<svg width="60" height="60" viewBox="0 0 60 60" fill="none" xmlns="http://www.w3.org/2000/svg">
<rect opacity="0.1" width="60" height="60" rx="5" fill="#2CE28B"/>
<path d="M18 30.7142H21.5713C21.6666 30.7083 21.7621 30.7228 21.8514 30.7566C21.9407 30.7904 22.0218 30.8429 22.0893 30.9104C22.1569 30.9779 22.2093 31.059 22.2431 31.1483C22.2769 31.2377 22.2914 31.3331 22.2856 31.4284V44.2851C22.2914 44.3804 22.2769 44.4759 22.2431 44.5652C22.2093 44.6545 22.1569 44.7356 22.0893 44.8032C22.0218 44.8706 21.9407 44.9231 21.8514 44.9569C21.7621 44.9907 21.6666 45.0052 21.5713 44.9994H18" fill="#326F52"/>
<path d="M28.003 29.9994L25.976 15.8157C25.9614 15.7143 25.9689 15.6111 25.9977 15.5128C26.0266 15.4146 26.0763 15.3238 26.1433 15.2464C26.2104 15.169 26.2933 15.107 26.3864 15.0645C26.4795 15.022 26.5807 15 26.6831 15H36.5742" stroke="#326F52" stroke-width="1.5" stroke-linecap="round" stroke-linejoin="round"/>
<path d="M31.5723 32.1426L30.2223 18.6432C30.2123 18.5435 30.2234 18.4429 30.2547 18.3478C30.2861 18.2528 30.3371 18.1653 30.4045 18.0913C30.4718 18.0172 30.554 17.9581 30.6457 17.9178C30.7374 17.8775 30.8365 17.857 30.9366 17.8575H40.7462C40.8496 17.8563 40.952 17.8776 41.0464 17.92C41.1407 17.9623 41.2247 18.0246 41.2926 18.1025C41.3606 18.1805 41.4108 18.2723 41.4398 18.3715C41.4687 18.4708 41.4758 18.5752 41.4605 18.6774L39.4291 32.1426" fill="#326F52"/>
<path d="M31.5723 32.1426L30.2223 18.6432C30.2123 18.5435 30.2234 18.4429 30.2547 18.3478C30.2861 18.2528 30.3371 18.1653 30.4045 18.0913C30.4718 18.0172 30.554 17.9581 30.6457 17.9178C30.7374 17.8775 30.8365 17.857 30.9366 17.8575H40.7462C40.8496 17.8563 40.952 17.8776 41.0464 17.92C41.1407 17.9623 41.2247 18.0246 41.2926 18.1025C41.3606 18.1805 41.4108 18.2723 41.4398 18.3715C41.4687 18.4708 41.4758 18.5752 41.4605 18.6774L39.4291 32.1426" stroke="#326F52" stroke-width="1.5" stroke-linecap="round" stroke-linejoin="round"/>
<path d="M33.7109 25.356C33.7109 25.8295 33.899 26.2837 34.2339 26.6186C34.5688 26.9535 35.023 27.1416 35.4966 27.1416C35.9702 27.1416 36.4243 26.9535 36.7592 26.6186C37.0941 26.2837 37.2823 25.8295 37.2823 25.356C37.2823 24.8824 37.0941 24.4282 36.7592 24.0933C36.4243 23.7584 35.9702 23.5703 35.4966 23.5703C35.023 23.5703 34.5688 23.7584 34.2339 24.0933C33.899 24.4282 33.7109 24.8824 33.7109 25.356Z" fill="#2CE28B" stroke="#2CE28B" stroke-width="1.5" stroke-linecap="round" stroke-linejoin="round"/>
<path d="M23.7176 32.8566C23.993 32.8472 24.2632 32.7785 24.5097 32.6552L27.8232 28.8125L32.376 34.8338L28.9267 40.5826L22.2891 41.1575V32.8566H23.7176Z" fill="#2CE28B" stroke="#2CE28B" stroke-width="1.5" stroke-linecap="round" stroke-linejoin="round"/>
<path d="M22.2891 41.4279C25.1461 43.5707 27.7446 44.9992 29.4316 44.9992H38.0028C39.0413 44.9992 39.6941 44.9264 40.1455 43.5707C40.8269 40.27 41.304 36.9305 41.5741 33.5711C41.5741 32.8568 40.8598 32.1426 39.4313 32.1426H29.4316" fill="#2CE28B"/>
<path d="M22.2891 41.4279C25.1461 43.5707 27.7446 44.9992 29.4316 44.9992H38.0028C39.0413 44.9992 39.6941 44.9264 40.1455 43.5707C40.8269 40.27 41.304 36.9305 41.5741 33.5711C41.5741 32.8568 40.8598 32.1426 39.4313 32.1426H29.4316" stroke="#2CE28B" stroke-width="1.5" stroke-linecap="round" stroke-linejoin="round"/>
</svg>
