<svg width="60" height="60" viewBox="0 0 60 60" fill="none" xmlns="http://www.w3.org/2000/svg">
<rect opacity="0.1" width="60" height="60" rx="5" fill="#2CE28B"/>
<path d="M21.9844 20V37.4023" stroke="#326F52" stroke-width="1.5" stroke-linecap="round"/>
<path d="M30.2031 27.459V40.1378" stroke="#2CE28B" stroke-width="1.5" stroke-linecap="round"/>
<path d="M22.8095 23.7285H21.1657C20.7117 23.7285 20.3438 24.0965 20.3438 24.5504V33.0994C20.3438 33.5533 20.7117 33.9213 21.1657 33.9213H22.8095C23.2634 33.9213 23.6314 33.5533 23.6314 33.0994V24.5504C23.6314 24.0965 23.2634 23.7285 22.8095 23.7285Z" fill="#326F52"/>
<path d="M15 31.302C16.8224 28.9435 20.3324 28.8022 22.3385 31.0064L22.8845 31.6064C24.7528 33.6591 27.8618 33.9888 30.1191 32.3735L33.0466 30.2784C34.2145 29.4427 35.7374 29.2874 37.0498 29.8703C38.8982 30.691 41.0687 30.0235 42.1364 28.3059L45 23.6992" stroke="#2CE28B" stroke-width="1.5"/>
<path d="M36.7812 20V37.4023" stroke="#326F52" stroke-width="1.5" stroke-linecap="round"/>
<path d="M37.6064 24.9629H35.9625C35.5086 24.9629 35.1406 25.3309 35.1406 25.7848V34.3338C35.1406 34.7877 35.5086 35.1557 35.9625 35.1557H37.6064C38.0603 35.1557 38.4283 34.7877 38.4283 34.3338V25.7848C38.4283 25.3309 38.0603 24.9629 37.6064 24.9629Z" fill="#326F52"/>
<path d="M31.0283 30.6895H29.3844C28.9305 30.6895 28.5625 31.0574 28.5625 31.5114V36.5799C28.5625 37.0338 28.9305 37.4018 29.3844 37.4018H31.0283C31.4822 37.4018 31.8502 37.0338 31.8502 36.5799V31.5114C31.8502 31.0574 31.4822 30.6895 31.0283 30.6895Z" fill="#2CE28B"/>
</svg>
