<svg width="60" height="60" viewBox="0 0 60 60" fill="none" xmlns="http://www.w3.org/2000/svg">
<rect opacity="0.1" width="60" height="60" rx="5" fill="#2CE28B"/>
<path d="M29.0904 24.5943C27.5913 22.1611 29.7009 18.2163 30.7931 17.2182C31.8853 16.2201 33.2198 15.5254 34.6639 15.2033C36.1079 14.8811 37.6111 14.9427 39.0239 15.382C40.4368 15.8213 41.71 16.6229 42.7168 17.707C43.7236 18.7911 44.429 20.12 44.7627 21.5615C45.0964 23.0029 45.0468 24.5066 44.6189 25.9229C44.191 27.3392 43.3996 28.6188 42.3235 29.6342C41.2475 30.6497 38.0015 31.79 34.6639 31.79" fill="#2CE28B"/>
<path d="M42.3688 33.2715V33.8972C42.3657 34.9333 41.9527 35.9261 41.2201 36.6588C40.4874 37.3914 39.4946 37.8044 38.4585 37.8075H35.8516" stroke="#326F52" stroke-width="1.5" stroke-linecap="round" stroke-linejoin="round"/>
<path d="M16.0428 20.1504L32.0673 24.4752C33.1275 24.7877 34.0632 25.4247 34.7426 26.2966C35.422 27.1684 35.8111 28.2313 35.8551 29.3358V41.8632C35.8833 42.3387 35.7964 42.8141 35.6017 43.2489C35.407 43.6837 35.1103 44.0651 34.7367 44.3607C34.3632 44.6564 33.9238 44.8575 33.4559 44.9471C32.988 45.0367 32.5054 45.0121 32.0491 44.8754L18.8113 41.4578C17.7475 41.1652 16.8046 40.5414 16.1193 39.6769C15.434 38.8123 15.0419 37.7518 15 36.6494V22.8185C15.0031 21.7824 15.4161 20.7896 16.1487 20.0569C16.8814 19.3243 17.8742 18.9113 18.9103 18.9082H26.1028" fill="#326F52"/>
<path d="M16.0428 20.1504L32.0673 24.4752C33.1275 24.7877 34.0632 25.4247 34.7426 26.2966C35.422 27.1684 35.8111 28.2313 35.8551 29.3358V41.8632C35.8833 42.3387 35.7964 42.8141 35.6017 43.2489C35.407 43.6837 35.1103 44.0651 34.7367 44.3607C34.3632 44.6564 33.9238 44.8575 33.4559 44.9471C32.988 45.0367 32.5054 45.0121 32.0491 44.8754L18.8113 41.4578C17.7475 41.1652 16.8046 40.5415 16.1193 39.6769C15.434 38.8123 15.0419 37.7518 15 36.6494V22.8185C15.0031 21.7824 15.4161 20.7896 16.1487 20.0569C16.8814 19.3243 17.8742 18.9113 18.9103 18.9082H26.1028" stroke="#326F52" stroke-width="1.5" stroke-linecap="round" stroke-linejoin="round"/>
<path d="M27.3906 35.853C27.3906 36.5444 27.6653 37.2075 28.1542 37.6964C28.643 38.1852 29.3061 38.4599 29.9975 38.4599C30.6889 38.4599 31.352 38.1852 31.8409 37.6964C32.3298 37.2075 32.6044 36.5444 32.6044 35.853C32.6044 35.1616 32.3298 34.4986 31.8409 34.0097C31.352 33.5208 30.6889 33.2461 29.9975 33.2461C29.3061 33.2461 28.643 33.5208 28.1542 34.0097C27.6653 34.4986 27.3906 35.1616 27.3906 35.853Z" fill="#2CE28B"/>
<path d="M38.465 20.8634C38.465 21.3819 38.259 21.8792 37.8924 22.2459C37.5257 22.6126 37.0284 22.8185 36.5098 22.8185H34.5547V18.9082H36.5098C37.0284 18.9082 37.5257 19.1142 37.8924 19.4809C38.259 19.8475 38.465 20.3448 38.465 20.8634Z" stroke="#326F52" stroke-width="1.5" stroke-linecap="round" stroke-linejoin="round"/>
<path d="M34.5547 22.8184H36.5098C36.9043 22.8184 37.2895 22.9377 37.615 23.1606C37.9404 23.3836 38.1907 23.6998 38.3332 24.0677C38.4755 24.4355 38.5033 24.8379 38.4129 25.2219C38.3224 25.6058 38.118 25.9534 37.8263 26.219" stroke="#326F52" stroke-width="1.5" stroke-linecap="round" stroke-linejoin="round"/>
<path d="M35.8594 17.6055V18.9089" stroke="#326F52" stroke-width="1.5" stroke-linecap="round" stroke-linejoin="round"/>
</svg>
