<svg width="60" height="60" viewBox="0 0 60 60" fill="none" xmlns="http://www.w3.org/2000/svg">
<rect opacity="0.1" width="60" height="60" rx="5" fill="#2CE28B"/>
<path d="M37.5665 25.4347V22.1739C37.5665 20.2712 36.8107 18.4465 35.4653 17.1012C34.12 15.7558 32.2953 15 30.3926 15C28.49 15 26.6653 15.7558 25.3199 17.1012C23.9746 18.4465 23.2188 20.2712 23.2188 22.1739" stroke="#2CE28B" stroke-width="1.5" stroke-linecap="round" stroke-linejoin="round"/>
<path d="M18 25.4355H42.7824V45.0006H18V25.4355Z" fill="#326F52" stroke="#326F52" stroke-width="1.5" stroke-linecap="round" stroke-linejoin="round"/>
<path d="M21.5839 28.3691C21.6484 28.3691 21.7114 28.3883 21.7651 28.4241C21.8187 28.4599 21.8605 28.5108 21.8852 28.5704C21.9098 28.63 21.9163 28.6956 21.9037 28.7588C21.8911 28.8221 21.8601 28.8802 21.8145 28.9258C21.7689 28.9714 21.7108 29.0024 21.6475 29.015C21.5843 29.0276 21.5187 29.0212 21.4591 28.9965C21.3995 28.9718 21.3486 28.93 21.3128 28.8764C21.2769 28.8227 21.2578 28.7597 21.2578 28.6952C21.2578 28.6087 21.2922 28.5258 21.3533 28.4646C21.4145 28.4035 21.4974 28.3691 21.5839 28.3691Z" fill="#2CE28B" stroke="#2CE28B" stroke-width="1.5" stroke-linecap="round" stroke-linejoin="round"/>
<path d="M24.8496 28.3691C24.9141 28.3691 24.9771 28.3883 25.0307 28.4241C25.0843 28.4599 25.1261 28.5108 25.1508 28.5704C25.1755 28.63 25.1819 28.6956 25.1694 28.7588C25.1568 28.8221 25.1257 28.8802 25.0801 28.9258C25.0345 28.9714 24.9764 29.0024 24.9132 29.015C24.8499 29.0276 24.7844 29.0212 24.7248 28.9965C24.6652 28.9718 24.6142 28.93 24.5784 28.8764C24.5426 28.8227 24.5234 28.7597 24.5234 28.6952C24.5234 28.6087 24.5578 28.5258 24.619 28.4646C24.6801 28.4035 24.7631 28.3691 24.8496 28.3691Z" fill="#2CE28B" stroke="#2CE28B" stroke-width="1.5" stroke-linecap="round" stroke-linejoin="round"/>
<path d="M21.5839 34.8906C21.6484 34.8906 21.7114 34.9098 21.7651 34.9456C21.8187 34.9814 21.8605 35.0324 21.8852 35.092C21.9098 35.1515 21.9163 35.2171 21.9037 35.2804C21.8911 35.3436 21.8601 35.4017 21.8145 35.4473C21.7689 35.4929 21.7108 35.524 21.6475 35.5366C21.5843 35.5491 21.5187 35.5427 21.4591 35.518C21.3995 35.4933 21.3486 35.4515 21.3128 35.3979C21.2769 35.3443 21.2578 35.2812 21.2578 35.2168C21.2578 35.1302 21.2922 35.0473 21.3533 34.9862C21.4145 34.925 21.4974 34.8906 21.5839 34.8906Z" fill="#2CE28B" stroke="#2CE28B" stroke-width="1.5" stroke-linecap="round" stroke-linejoin="round"/>
<path d="M24.8496 34.8906C24.9141 34.8906 24.9771 34.9098 25.0307 34.9456C25.0843 34.9814 25.1261 35.0324 25.1508 35.092C25.1755 35.1515 25.1819 35.2171 25.1694 35.2804C25.1568 35.3436 25.1257 35.4017 25.0801 35.4473C25.0345 35.4929 24.9764 35.524 24.9132 35.5366C24.8499 35.5491 24.7844 35.5427 24.7248 35.518C24.6652 35.4933 24.6142 35.4515 24.5784 35.3979C24.5426 35.3443 24.5234 35.2812 24.5234 35.2168C24.5234 35.1302 24.5578 35.0473 24.619 34.9862C24.6801 34.925 24.7631 34.8906 24.8496 34.8906Z" fill="#2CE28B" stroke="#2CE28B" stroke-width="1.5" stroke-linecap="round" stroke-linejoin="round"/>
<path d="M21.5839 41.4141C21.6484 41.4141 21.7114 41.4332 21.7651 41.469C21.8187 41.5048 21.8605 41.5558 21.8852 41.6153C21.9098 41.6749 21.9163 41.7405 21.9037 41.8037C21.8911 41.867 21.8601 41.9251 21.8145 41.9707C21.7689 42.0163 21.7108 42.0474 21.6475 42.0599C21.5843 42.0725 21.5187 42.0661 21.4591 42.0414C21.3995 42.0167 21.3486 41.9749 21.3128 41.9213C21.2769 41.8677 21.2578 41.8046 21.2578 41.7401C21.2578 41.6536 21.2922 41.5707 21.3533 41.5095C21.4145 41.4484 21.4974 41.4141 21.5839 41.4141Z" fill="#2CE28B" stroke="#2CE28B" stroke-width="1.5" stroke-linecap="round" stroke-linejoin="round"/>
<path d="M24.8496 41.4141C24.9141 41.4141 24.9771 41.4332 25.0307 41.469C25.0843 41.5048 25.1261 41.5558 25.1508 41.6153C25.1755 41.6749 25.1819 41.7405 25.1694 41.8037C25.1568 41.867 25.1257 41.9251 25.0801 41.9707C25.0345 42.0163 24.9764 42.0474 24.9132 42.0599C24.8499 42.0725 24.7844 42.0661 24.7248 42.0414C24.6652 42.0167 24.6142 41.9749 24.5784 41.9213C24.5426 41.8677 24.5234 41.8046 24.5234 41.7401C24.5234 41.6536 24.5578 41.5707 24.619 41.5095C24.6801 41.4484 24.7631 41.4141 24.8496 41.4141Z" fill="#2CE28B" stroke="#2CE28B" stroke-width="1.5" stroke-linecap="round" stroke-linejoin="round"/>
<path d="M18 31.957H42.7824" stroke="#2CE28B" stroke-width="1.5" stroke-linecap="round" stroke-linejoin="round"/>
<path d="M18 38.4785H42.7824" stroke="#2CE28B" stroke-width="1.5" stroke-linecap="round" stroke-linejoin="round"/>
</svg>
