<svg width="60" height="60" viewBox="0 0 60 60" fill="none" xmlns="http://www.w3.org/2000/svg">
<rect opacity="0.1" width="60" height="60" rx="5" fill="#2CE28B"/>
<path d="M27.3966 40.7619C34.2344 40.7619 39.7776 35.2188 39.7776 28.381C39.7776 21.5431 34.2344 16 27.3966 16C20.5588 16 15.0156 21.5431 15.0156 28.381C15.0156 35.2188 20.5588 40.7619 27.3966 40.7619Z" fill="#326F52"/>
<path d="M36.5286 31.5227L35.3506 29.1656C35.2604 28.9856 35.1025 28.8488 34.9115 28.7851C34.7205 28.7214 34.512 28.7361 34.3319 28.826L28.9375 31.5227" fill="#326F52"/>
<path d="M36.5286 31.5227L35.3506 29.1656C35.2604 28.9856 35.1025 28.8488 34.9115 28.7851C34.7205 28.7214 34.512 28.7361 34.3319 28.826L28.9375 31.5227" stroke="#326F52" stroke-width="1.5" stroke-linecap="round" stroke-linejoin="round"/>
<path d="M42.6217 41.1734V42.0414C42.6217 42.586 42.4067 43.1083 42.0239 43.4935C41.6412 43.8786 41.1221 44.095 40.5809 44.095H30.3767C29.8355 44.095 29.3164 43.8786 28.9337 43.4935C28.5509 43.1083 28.3359 42.586 28.3359 42.0414V35.1962C28.3359 34.6515 28.5509 34.1292 28.9337 33.7441C29.3164 33.359 29.8355 33.1426 30.3767 33.1426H40.5809C41.1221 33.1426 41.6412 33.359 42.0239 33.7441C42.4067 34.1292 42.6217 34.6515 42.6217 35.1962V36.0642" fill="#2CE28B"/>
<path d="M42.6217 41.1734V42.0414C42.6217 42.586 42.4067 43.1084 42.0239 43.4935C41.6412 43.8786 41.1221 44.095 40.5809 44.095H30.3767C29.8355 44.095 29.3164 43.8786 28.9337 43.4935C28.5509 43.1084 28.3359 42.586 28.3359 42.0414V35.1962C28.3359 34.6515 28.5509 34.1292 28.9337 33.7441C29.3164 33.359 29.8355 33.1426 30.3767 33.1426H40.5809C41.1221 33.1426 41.6412 33.359 42.0239 33.7441C42.4067 34.1292 42.6217 34.6515 42.6217 35.1962V36.0642" stroke="#2CE28B" stroke-width="1.5" stroke-linecap="round" stroke-linejoin="round"/>
<path d="M45.0026 39.9286C45.0026 40.2759 44.8621 40.609 44.6121 40.8545C44.362 41.1001 44.0229 41.2381 43.6693 41.2381H41.0026C40.2954 41.2381 39.6171 40.9621 39.117 40.471C38.6169 39.9798 38.3359 39.3137 38.3359 38.6191C38.3359 37.9244 38.6169 37.2583 39.117 36.7671C39.6171 36.276 40.2954 36 41.0026 36H43.6693C44.0229 36 44.362 36.138 44.6121 36.3836C44.8621 36.6291 45.0026 36.9622 45.0026 37.3095V39.9286Z" fill="#326F52"/>
<path d="M24.3613 22.2334L18.3508 19.8086C16.6841 21.9515 13.3509 26.4524 15.9699 32.9038C17.1604 32.9038 19.6366 32.7134 20.0175 31.9515C20.3985 31.1896 20.7165 30.1292 20.828 29.6943L21.927 26.9476L23.907 26.4524C24.1694 26.3868 24.4078 26.2481 24.5944 26.0523C24.781 25.8566 24.9083 25.6119 24.9613 25.3467L25.2604 23.8524C25.3272 23.5197 25.2735 23.1741 25.1087 22.8775C24.944 22.5808 24.6791 22.3525 24.3613 22.2334Z" fill="#2CE28B"/>
<path d="M31.7014 19.572V16.7148C34.1561 17.8742 39.1298 20.2314 39.7062 27.1703C38.644 27.7079 37.353 28.6512 36.6691 28.1434C35.9852 27.6356 35.7745 25.3859 35.4787 25.0482C35.131 23.4324 33.7295 23.1261 32.3037 22.6207C31.1206 22.2012 30.9364 20.4038 31.7014 19.572Z" fill="#2CE28B"/>
</svg>
