<svg width="155" height="155" viewBox="0 0 155 155" fill="none" xmlns="http://www.w3.org/2000/svg">
<path d="M43 41.5L35.5 47.5L37.5 53C38.3333 54.8333 40.1 58.6 40.5 59C40.9 59.4 43.6667 61.8333 45 63V67L52 67.5L54.5 66.5L52.5 60H51L49.5 58.5L48.5 57.5V55.5L48 54L50.5 52L52 50V47L51 44.5L48 42L43 41.5Z" fill="#FFCEB6"/>
<path d="M113.841 122.348C108.787 122.172 60.6559 122.342 60.6559 122.342C60.574 122.342 60.4955 122.375 60.4376 122.433C60.3797 122.491 60.3472 122.569 60.3472 122.651C60.3472 122.733 60.3797 122.812 60.4376 122.869C60.4955 122.927 60.574 122.96 60.6559 122.96L70.2111 122.923C70.0876 123.123 77.703 142.548 77.7422 142.626C77.8817 142.993 78.48 142.835 78.3366 142.464C77.4806 140.262 70.853 123.086 70.7541 122.918C74.8291 122.901 97.6824 122.841 100.453 122.867C100.404 123.053 109.865 141.626 109.938 141.703C110.118 142.056 110.648 141.745 110.467 141.392C110.16 140.792 101.109 122.968 101.056 122.872C104.427 122.872 110.508 122.872 113.85 122.96C114.239 122.978 114.239 122.362 113.841 122.348Z" fill="#DCBEFF"/>
<path d="M98.5544 124.231C94.6427 124.75 94.4847 124.627 94.4847 125.011C94.4847 125.16 94.6289 125.341 94.7915 125.318L98.5544 124.845C98.6357 124.845 98.7138 124.813 98.7713 124.755C98.8288 124.698 98.8612 124.62 98.8612 124.538C98.8612 124.457 98.8288 124.379 98.7713 124.321C98.7138 124.264 98.6357 124.231 98.5544 124.231ZM98.4715 125.902C97.8449 125.986 97.2183 126.074 96.5916 126.157C96.5527 126.168 96.5162 126.187 96.4844 126.212C96.4526 126.237 96.4261 126.268 96.4063 126.304C96.3866 126.339 96.374 126.378 96.3692 126.418C96.3645 126.458 96.3678 126.499 96.3788 126.538C96.3898 126.577 96.4084 126.614 96.4335 126.645C96.4586 126.677 96.4898 126.704 96.5251 126.723C96.5605 126.743 96.5994 126.756 96.6396 126.761C96.6799 126.765 96.7206 126.762 96.7596 126.751C97.3855 126.667 98.0121 126.579 98.638 126.496C98.6769 126.485 98.7134 126.466 98.7452 126.441C98.7771 126.416 98.8036 126.385 98.8235 126.35C98.8433 126.315 98.856 126.276 98.8608 126.235C98.8656 126.195 98.8625 126.155 98.8516 126.116C98.8406 126.077 98.8221 126.04 98.7971 126.008C98.7721 125.976 98.7411 125.95 98.7058 125.93C98.6705 125.91 98.6316 125.898 98.5915 125.893C98.5513 125.888 98.5105 125.891 98.4715 125.902ZM79.2921 126.143C78.5252 126.212 77.7582 126.288 76.9912 126.361C76.9098 126.361 76.8318 126.394 76.7742 126.451C76.7167 126.509 76.6844 126.587 76.6844 126.668C76.6844 126.75 76.7167 126.828 76.7742 126.885C76.8318 126.943 76.9098 126.975 76.9912 126.975C77.7582 126.898 78.5252 126.832 79.2921 126.757C79.3735 126.757 79.4515 126.725 79.5091 126.667C79.5666 126.61 79.5989 126.532 79.5989 126.45C79.5989 126.369 79.5666 126.291 79.5091 126.233C79.4515 126.176 79.3735 126.144 79.2921 126.144V126.143ZM64.9901 130.594C64.3596 130.786 63.723 130.977 63.0925 131.169C63.0137 131.191 62.9469 131.243 62.9067 131.315C62.8666 131.386 62.8565 131.47 62.8785 131.549C62.9006 131.628 62.9531 131.695 63.0244 131.735C63.0958 131.775 63.1801 131.785 63.259 131.763C63.8902 131.572 64.526 131.38 65.1573 131.187C65.236 131.165 65.3027 131.113 65.3427 131.041C65.3827 130.97 65.3927 130.886 65.3705 130.807C65.3483 130.728 65.2958 130.661 65.2244 130.621C65.1531 130.581 65.0688 130.571 64.9901 130.594ZM53.6624 142.474C52.6565 142.688 51.6239 142.749 50.5998 142.654C50.5184 142.654 50.4404 142.686 50.3828 142.744C50.3253 142.801 50.293 142.879 50.293 142.961C50.293 143.042 50.3253 143.12 50.3828 143.178C50.4404 143.235 50.5184 143.267 50.5998 143.267C51.6775 143.363 52.7635 143.296 53.8211 143.067C54.2146 142.987 54.0528 142.389 53.6624 142.474ZM150.069 136.167H147.554C147.472 136.167 147.393 136.199 147.335 136.257C147.277 136.315 147.245 136.393 147.245 136.475C147.245 136.557 147.277 136.636 147.335 136.694C147.393 136.751 147.472 136.784 147.554 136.784H150.069C150.151 136.784 150.23 136.751 150.288 136.694C150.346 136.636 150.378 136.557 150.378 136.475C150.378 136.393 150.346 136.315 150.288 136.257C150.23 136.199 150.151 136.167 150.069 136.167ZM146.658 139.392C145.117 139.853 143.507 140.035 141.902 139.929C141.508 139.906 141.508 140.518 141.902 140.542C143.562 140.648 145.227 140.461 146.822 139.99C147.201 139.87 147.039 139.277 146.658 139.392ZM143.79 132.366C144.66 132.481 145.545 132.434 146.398 132.227C146.781 132.134 146.62 131.54 146.235 131.633C145.434 131.82 144.605 131.859 143.789 131.749C143.707 131.749 143.629 131.781 143.571 131.839C143.513 131.897 143.481 131.976 143.481 132.058C143.481 132.14 143.514 132.218 143.572 132.276C143.63 132.334 143.708 132.366 143.79 132.366Z" fill="#DCBEFF"/>
<path d="M70.1313 115.201C70.1097 115.122 70.0577 115.055 69.9867 115.015C69.9157 114.974 69.8316 114.963 69.7528 114.985C69.6739 115.007 69.6069 115.059 69.5664 115.13C69.5259 115.201 69.5153 115.285 69.5369 115.364L70.5117 119.205C70.5332 119.284 70.585 119.351 70.6559 119.392C70.7267 119.432 70.8107 119.443 70.8894 119.421C70.9682 119.4 71.0351 119.348 71.0756 119.277C71.1161 119.206 71.1268 119.122 71.1054 119.044L70.1313 115.201ZM73.1057 114.718C72.344 115.992 71.866 117.415 71.7044 118.89C71.7044 118.972 71.7367 119.05 71.7942 119.107C71.8518 119.165 71.9298 119.197 72.0112 119.197C72.6585 119.197 71.9828 117.78 73.6357 115.03C73.8435 114.69 73.3097 114.378 73.1057 114.718ZM75.9083 115.814C75.3391 116.786 74.7769 117.758 74.2101 118.728C74.1688 118.799 74.1571 118.882 74.1775 118.961C74.198 119.04 74.2489 119.107 74.319 119.149C74.3892 119.19 74.4729 119.202 74.5518 119.181C74.6306 119.161 74.6981 119.11 74.7394 119.04C75.3054 118.065 75.8714 117.095 76.4382 116.121C76.473 116.051 76.4799 115.97 76.4574 115.895C76.4349 115.821 76.3848 115.757 76.3173 115.718C76.2498 115.679 76.1699 115.667 76.0939 115.685C76.0179 115.703 75.9515 115.749 75.9083 115.814ZM66.9483 116.575C66.8904 116.517 66.8119 116.484 66.7301 116.484C66.6482 116.484 66.5697 116.517 66.5118 116.575C66.454 116.632 66.4215 116.711 66.4215 116.793C66.4215 116.875 66.454 116.953 66.5118 117.011C67.7996 118.545 67.5013 119.548 68.0665 119.389C68.106 119.378 68.1428 119.359 68.175 119.334C68.2072 119.309 68.234 119.278 68.2538 119.242C68.2737 119.206 68.2862 119.167 68.2907 119.126C68.2951 119.085 68.2914 119.044 68.2798 119.005C68.0024 118.114 67.5497 117.288 66.9483 116.575ZM86.7037 114.616C86.574 114.245 85.9796 114.402 86.11 114.779C86.5272 115.966 86.945 117.153 87.3633 118.339C87.4929 118.709 88.0865 118.551 87.9569 118.175C87.5387 116.993 87.1209 115.806 86.7037 114.616ZM89.6305 115.122L90.1321 119.09C90.1321 119.171 90.1644 119.249 90.222 119.307C90.2795 119.364 90.3575 119.396 90.4389 119.396C90.5203 119.396 90.5983 119.364 90.6558 119.307C90.7134 119.249 90.7457 119.171 90.7457 119.09L90.2448 115.122C90.2448 115.04 90.2125 114.962 90.1549 114.905C90.0973 114.847 90.0191 114.815 89.9377 114.815C89.8562 114.815 89.7781 114.847 89.7205 114.905C89.6629 114.962 89.6305 115.04 89.6305 115.122ZM95.3845 115.92C93.991 117.029 92.8491 118.421 92.0342 120.004C91.8532 120.357 92.3825 120.667 92.5635 120.315C93.3569 118.78 94.4672 117.43 95.8209 116.356C96.0924 116.134 95.7542 115.63 95.3845 115.92ZM97.6954 116.352C96.8294 117.234 96.1131 118.251 95.5747 119.363C95.3783 119.757 95.9444 120.013 96.1116 119.675C96.6251 118.609 97.3085 117.634 98.1349 116.788C98.4102 116.505 97.9738 116.065 97.6954 116.352ZM105.659 115.466C106.107 116.475 106.321 117.573 106.285 118.677C106.285 118.759 106.317 118.837 106.375 118.895C106.433 118.953 106.512 118.986 106.594 118.986C106.676 118.986 106.754 118.953 106.812 118.895C106.87 118.837 106.902 118.759 106.902 118.677C106.931 117.465 106.689 116.261 106.192 115.155C106.151 115.084 106.083 115.033 106.004 115.012C105.925 114.991 105.841 115.003 105.77 115.044C105.7 115.085 105.648 115.152 105.627 115.232C105.606 115.311 105.618 115.395 105.659 115.466ZM108.6 115.647C108.59 115.608 108.571 115.571 108.546 115.539C108.521 115.508 108.49 115.481 108.454 115.461C108.419 115.441 108.38 115.429 108.34 115.424C108.3 115.419 108.259 115.422 108.22 115.433C108.181 115.444 108.145 115.463 108.113 115.488C108.081 115.513 108.054 115.544 108.035 115.579C108.015 115.615 108.002 115.654 107.997 115.694C107.993 115.734 107.996 115.775 108.007 115.814C108.156 116.734 108.304 117.647 108.448 118.565C108.459 118.604 108.477 118.64 108.502 118.672C108.527 118.704 108.558 118.731 108.594 118.75C108.629 118.77 108.668 118.783 108.708 118.788C108.748 118.793 108.789 118.789 108.828 118.779C108.867 118.768 108.903 118.749 108.935 118.724C108.967 118.699 108.994 118.668 109.013 118.633C109.033 118.597 109.046 118.559 109.051 118.518C109.056 118.478 109.052 118.438 109.042 118.399C108.893 117.48 108.753 116.56 108.6 115.647ZM110.485 116.486C110.404 116.486 110.326 116.519 110.268 116.576C110.211 116.634 110.178 116.712 110.178 116.793C110.26 117.747 110.194 118.708 109.983 119.643C109.894 120.026 110.489 120.195 110.577 119.804C110.801 118.817 110.873 117.802 110.79 116.793C110.789 116.713 110.756 116.636 110.699 116.578C110.643 116.521 110.566 116.488 110.485 116.486ZM142.509 114.886C141.375 116.01 140.678 117.502 140.546 119.094C140.513 119.489 141.126 119.485 141.159 119.094C141.29 117.665 141.923 116.328 142.946 115.321C143.231 115.043 142.791 114.608 142.509 114.886ZM145.4 115.466C144.354 116.375 143.507 117.49 142.913 118.742C142.892 118.777 142.879 118.816 142.874 118.857C142.869 118.897 142.872 118.938 142.883 118.977C142.893 119.016 142.912 119.053 142.937 119.085C142.961 119.117 142.992 119.144 143.028 119.164C143.063 119.184 143.102 119.197 143.142 119.202C143.182 119.207 143.223 119.205 143.262 119.194C143.302 119.183 143.338 119.165 143.37 119.14C143.402 119.115 143.429 119.084 143.45 119.049C144.02 117.845 144.833 116.773 145.839 115.899C146.133 115.642 145.698 115.206 145.4 115.466ZM148.774 114.969C148.3 116.093 147.825 117.217 147.349 118.338C147.162 118.779 147.752 118.952 147.886 118.649C148.358 117.524 148.833 116.401 149.31 115.28C149.496 114.838 148.902 114.664 148.774 114.969ZM67.7068 54.4637C67.6263 54.4844 68.0527 54.4713 60.1236 54.3708C60.0254 54.3708 59.6634 64.0089 55.4396 66.6619C54.945 65.3703 54.3378 64.1248 53.6249 62.9397C53.6762 63.2879 53.7177 63.6361 53.7598 63.9843C55.1061 68.0163 56.1881 72.1317 56.9988 76.3045C58.0749 76.0721 69.1817 73.2304 67.7068 54.4637ZM51.2257 60.3733C51.2557 60.1987 51.3041 60.0278 51.3699 59.8633C51.1007 59.5665 50.8177 59.2834 50.5201 59.0096C50.7906 59.445 51.0266 59.901 51.2257 60.3733ZM54.5253 68.564C53.1002 63.4589 54.9188 69.8004 54.1418 75.6595C53.845 77.8914 52.9307 80.1931 50.9626 81.4594C50.0356 82.0073 48.9929 82.3298 47.9184 82.4008C46.844 82.4718 45.7679 82.2894 44.7768 81.8683C40.2063 80.0167 38.4476 74.996 37.0647 70.6894C36.9443 70.3059 37.538 70.1525 37.6584 70.5275C38.4614 73.0241 39.2783 75.5713 40.7908 77.7434C43.9853 82.3515 48.8112 82.7288 51.32 80.4117C53.0074 78.857 53.529 76.5085 53.6548 74.305C53.7754 71.8471 53.6823 69.3835 53.3763 66.9418C53.2076 66.9342 49.174 66.7271 46.1459 66.5798C46.3415 70.7983 46.0132 67.9604 47.357 73.2434C47.3786 73.3222 47.368 73.4062 47.3275 73.4771C47.2871 73.5481 47.2202 73.6 47.1415 73.6216C47.0627 73.6431 46.9787 73.6325 46.9078 73.5921C46.8369 73.5517 46.7849 73.4848 46.7633 73.406C46.712 73.202 46.6567 73.0018 46.6053 72.7978C46.6075 72.8381 46.6017 72.8784 46.5883 72.9165C46.5749 72.9545 46.5541 72.9896 46.5271 73.0196C46.5002 73.0496 46.4676 73.074 46.4312 73.0914C46.3948 73.1089 46.3553 73.1189 46.315 73.1211C46.2747 73.1233 46.2344 73.1175 46.1964 73.1041C46.1583 73.0906 46.1233 73.0699 46.0933 73.0429C46.0633 73.0159 46.0388 72.9833 46.0214 72.9469C46.004 72.9106 45.9939 72.8711 45.9917 72.8308C46.106 70.5083 46.1451 71.0913 45.8798 70.1463C45.3628 68.3585 44.8175 66.5645 44.1448 64.8303C43.617 63.2765 42.7203 61.8737 41.5317 60.7422C41.2349 60.4822 41.6713 60.0458 41.9681 60.3058C43.9025 62.0024 44.7676 64.5672 45.5599 67.0116C45.5316 66.2216 45.4901 66.1779 45.606 66.0506C45.4357 63.4919 44.7024 61.9487 45.4111 61.3221C45.764 61.0115 46.284 61.1925 46.669 61.4471C46.6176 61.217 46.5716 60.9785 46.5294 60.7468C44.5046 61.8835 42.0701 60.8381 41.7549 57.3077C34.1034 60.4324 35.0928 79.8833 36.0653 88.064C36.1114 88.0548 36.1589 88.0548 36.2049 88.064C43.8749 89.8097 52.5096 89.0749 57.8617 87.136C57.3772 80.8488 56.2593 74.6267 54.5253 68.564ZM48.769 60.167C48.769 59.4 48.8534 58.1675 49.6127 58.2649C49.3042 58.0328 48.9809 57.8212 48.6448 57.6313C48.5964 57.9144 48.5249 58.193 48.4308 58.4643C47.8939 59.9576 47.8042 58.6238 48.769 60.167Z" fill="#6DD3A8"/>
<path d="M99.4967 75.338C102.532 75.4073 105.551 74.881 108.383 73.7887C108.046 69.9466 108.61 66.0789 110.031 62.4932C108.508 64.0755 104.1 67.8767 99.3901 64.693C94.466 61.3612 93.7911 57.2432 93.6983 56.0459C93.6469 56.072 86.1971 59.344 86.1089 59.3539C86.2431 60.7744 87.1995 67.1105 93.8555 73.7841C95.3596 72.6674 97.6905 75.0619 98.8409 76.5215C98.9515 76.1735 99.0795 75.8312 99.2244 75.496C99.2516 75.4478 99.2912 75.4078 99.3391 75.38C99.387 75.3522 99.4414 75.3377 99.4967 75.338Z" fill="#FF9F48"/>
<path d="M135.568 83.9146C133.267 75.7423 126.805 57.1106 118.263 57.3246C118.516 57.9381 118.519 58.6261 118.272 59.2421C117.648 60.4692 115.913 61.2102 114.527 61.4326C112.984 61.6773 112.275 61.576 111.815 60.1448C109.588 64.2473 108.606 68.9105 108.991 73.5626C112.426 72.178 115.567 70.1515 118.244 67.5915C118.3 67.1732 118.316 66.7504 118.291 66.3291C118.291 66.2477 118.324 66.1697 118.381 66.1121C118.439 66.0546 118.517 66.0223 118.598 66.0223C118.679 66.0223 118.757 66.0546 118.815 66.1121C118.872 66.1697 118.905 66.2477 118.905 66.3291C118.912 66.544 118.912 66.7591 118.905 66.9741C119.322 66.5558 119.731 66.1289 120.132 65.6932C120.397 65.401 120.832 65.8374 120.568 66.1296C120.55 66.1527 120.527 66.1711 120.508 66.1941C112.096 75.4747 102.177 76.1174 99.6909 75.9533C99.0421 77.6251 98.7886 79.4244 98.9501 81.2104C99.1116 82.9965 99.6838 84.721 100.622 86.2494L100.707 86.2693C105.439 86.8582 110.243 86.2524 114.68 84.5071C119.117 82.7619 123.046 79.9329 126.109 76.2785C126.339 75.9862 126.799 76.4035 126.546 76.7141C122.622 81.52 117.195 84.8659 111.139 86.2133C111.39 87.0624 112.443 90.0974 114.744 90.3551C114.956 90.0866 114.927 90.3781 116.976 90.4579C125.865 90.7739 135.042 85.6128 135.278 85.6128C135.447 85.3681 135.561 85.0892 135.611 84.7958C135.661 84.5025 135.646 84.2017 135.568 83.9146Z" fill="#FF9F48"/>
<path d="M98.6613 77.2003C97.8973 76.2799 97.0455 75.436 96.118 74.6807C94.1001 73.251 92.981 74.7351 95.0442 76.5828C95.0813 76.6214 95.1079 76.6688 95.1214 76.7205C95.1349 76.7723 95.1348 76.8267 95.1213 76.8784C95.1077 76.9301 95.0811 76.9775 95.044 77.016C95.0068 77.0545 94.9604 77.0828 94.9092 77.0982C92.981 77.5147 88.2471 79.0663 88.1896 80.9953C88.1582 82.0024 91.4409 80.7284 92.3713 80.3595C92.4415 80.3183 92.5253 80.3067 92.6041 80.3273C92.6829 80.3478 92.7504 80.3989 92.7916 80.4692C92.8328 80.5395 92.8443 80.6232 92.8238 80.702C92.8032 80.7809 92.7522 80.8483 92.6819 80.8895C91.8039 81.4434 91.0644 82.1909 90.5197 83.0746C90.4624 83.1758 90.4314 83.2897 90.4295 83.406C90.4277 83.5223 90.455 83.6371 90.5091 83.7401C90.5631 83.843 90.6421 83.9308 90.7388 83.9953C90.8356 84.0598 90.9469 84.099 91.0628 84.1093C92.0819 84.1159 93.0816 83.8312 93.9444 83.2886C94.0033 83.2569 94.071 83.2449 94.1372 83.2547C94.2035 83.2644 94.2649 83.2952 94.3122 83.3426C94.3596 83.3899 94.3904 83.4513 94.4002 83.5176C94.4099 83.5839 94.398 83.6515 94.3662 83.7105C94.041 84.252 93.3691 85.5812 93.7817 86.0498C94.8471 86.3129 98.2081 85.2169 99.2435 84.8656C98.2038 82.4459 97.999 79.7491 98.6613 77.2003ZM117.253 55.8817C115.638 56.9225 113.8 57.5693 111.889 57.7701C112.426 60.5857 112.795 60.8119 112.743 60.7306C112.819 60.7383 113.126 61.1356 114.856 60.7398C116.199 60.4331 118.092 59.4467 117.828 58.1229C117.813 58.0423 117.411 56.4992 117.253 55.8817ZM120.605 47.8421C120.437 47.6635 120.219 47.5403 119.979 47.4889C119.739 47.4375 119.49 47.4604 119.264 47.5545C118.929 47.7316 118.65 47.9969 118.456 48.3215C117.22 50.0718 116.58 47.8283 116.558 46.6096C116.33 46.8399 116.032 46.9877 115.711 47.0294C115.39 47.0711 115.065 47.0043 114.786 46.8397C114.27 46.3894 114.359 45.4944 114.507 44.8455C113.914 44.3642 113.214 44.0338 112.466 43.8826C111.718 43.7314 110.944 43.7639 110.211 43.9773C109.664 44.0407 109.136 44.2186 108.662 44.4992C108.188 44.7799 107.778 45.1571 107.46 45.6063C106.052 47.6136 105.246 53.0185 106.647 55.3003C108.618 58.5056 114.785 57.0529 117.091 55.2329C118.504 54.1169 118.358 53.2226 118.437 51.312C118.479 50.5128 118.355 50.2528 118.655 50.1975C120.129 49.9291 121.314 48.6873 120.605 47.8421ZM94.1353 51.1578C94.1175 51.112 94.0831 51.0746 94.0388 51.0531C93.9946 51.0316 93.9438 51.0276 93.8968 51.042C92.945 51.1057 92.1327 52.6159 91.9433 53.2663C91.9243 53.339 91.8793 53.4023 91.8169 53.444C91.7544 53.4858 91.6787 53.5032 91.6043 53.4928C91.5298 53.4825 91.4618 53.4453 91.413 53.3881C91.3642 53.3309 91.3381 53.2578 91.3396 53.1827C91.2699 51.6604 91.0385 50.1499 90.6494 48.6766C90.0925 46.3396 88.4703 47.398 88.7963 52.1112C88.8087 52.1634 88.8073 52.2179 88.7921 52.2693C88.7768 52.3207 88.7484 52.3672 88.7096 52.4043C88.6708 52.4413 88.623 52.4675 88.5709 52.4802C88.5188 52.493 88.4643 52.4919 88.4128 52.477C86.1118 52.0169 84.4099 52.9326 84.1744 55.3678C83.9627 57.6604 85.4093 58.2824 85.6033 58.0876C86.0712 57.6197 85.7299 55.5956 85.5895 54.9429C85.5679 54.8641 85.5786 54.7799 85.6191 54.709C85.6596 54.638 85.7266 54.586 85.8054 54.5644C85.8842 54.5429 85.9684 54.5535 86.0394 54.594C86.1104 54.6345 86.1624 54.7015 86.1839 54.7803C87.2416 58.3376 89.4897 56.7339 88.2119 53.379C88.0769 53.0078 88.672 52.8421 88.8055 53.2164C89.1353 54.1192 89.4275 55.7299 88.8891 56.6456C88.7366 56.9331 88.4887 57.1585 88.188 57.2831C87.8874 57.4076 87.5528 57.4236 87.2416 57.3283C86.9484 57.155 86.679 56.9444 86.4401 56.7016C86.5216 57.3001 86.4123 57.9091 86.1279 58.4419L86.118 58.4511C86.1602 58.5278 86.1947 58.5946 86.2392 58.669C87.3321 58.1942 83.5831 59.8348 93.4412 55.4906C93.6621 54.6921 94.4805 52.0215 94.1353 51.1578Z" fill="#FFCEB6"/>
<path d="M115.402 22.4725C113.944 13.9819 103.909 10.891 95.4062 13.1452C80.6799 17.066 79.4213 32.4733 94.1023 35.7791C94.1535 35.7926 94.2002 35.8195 94.2376 35.8569C94.2751 35.8944 94.3019 35.9411 94.3155 35.9923C94.8854 39.1032 96.1563 42.5884 98.6674 44.5059C98.6674 41.7532 98.5907 39.5358 99.5356 36.3666C99.5549 36.3021 99.5939 36.2452 99.6472 36.2039C99.7004 36.1627 99.7652 36.1391 99.8325 36.1365C108.135 35.5145 116.791 30.5835 115.402 22.4725ZM59.389 12.8084C51.3011 11.2538 42.2851 14.3785 40.8662 22.4725C39.4986 30.6065 48.0797 35.4991 56.4307 36.1388C56.4982 36.1407 56.5633 36.164 56.6167 36.2054C56.67 36.2468 56.7089 36.304 56.7275 36.3689C57.447 39.0203 57.7383 41.7695 57.5904 44.5128C60.1414 42.547 61.3724 39.1354 61.9523 35.9923C61.9661 35.9411 61.9932 35.8945 62.0307 35.857C62.0683 35.8196 62.115 35.7927 62.1663 35.7791C77.6027 32.2333 75.1837 15.8457 59.389 12.8084Z" fill="#FFD35C"/>
<path d="M58.2749 87.637C58.2657 87.6416 58.2611 87.6462 58.2519 87.65C52.9597 89.668 44.0733 90.4733 36.0659 88.6762C35.7783 90.6298 34.2466 101.628 34.7758 109.239C41.4049 110.038 56.7547 111.008 63.0364 108.06C62.2127 101.096 60.6157 94.2465 58.2749 87.637Z" fill="#B26EE6"/>
<path d="M46.7433 132.632C47.3002 131.482 47.1928 130.136 47.2212 128.897C47.2212 128.82 47.6154 110.141 47.597 110.047C47.561 110.047 47.0394 110.039 47.0041 110.038C46.9796 110.283 46.6283 127.488 46.6268 127.565C46.5669 130.812 46.5999 131.371 46.2885 132.136C46.0876 132.711 45.6991 133.201 45.1856 133.529C44.6722 133.856 44.0635 134.001 43.4576 133.941C41.0385 133.548 40.9411 130.566 40.7332 128.122C40.2255 122.248 40.3068 110.393 40.5622 109.759C40.4855 109.751 39.8443 109.707 39.9217 109.712C39.7906 110.067 39.2529 130.106 41.119 133.008C41.4134 133.515 41.8437 133.93 42.3612 134.205C42.8788 134.48 43.4629 134.605 44.0478 134.566C44.6327 134.527 45.1951 134.325 45.6714 133.984C46.1477 133.642 46.519 133.174 46.7433 132.632ZM53.871 130.245C52.2948 125.173 50.9833 115.319 50.428 110.041C50.395 110.041 49.9018 110.05 49.8144 110.05C50.3835 115.386 51.6475 124.939 53.1891 130.116C53.8442 132.296 55.0966 133.184 56.4611 133.267C57.2528 133.27 58.02 132.993 58.6259 132.483C59.2318 131.974 59.637 131.265 59.7692 130.485C59.9678 129.545 60.0046 130.581 57.5449 109.518L56.9413 109.603C59.5805 131.433 59.286 129.857 59.1594 130.396C58.4783 133.344 54.8957 133.543 53.871 130.245ZM127.228 125.21C126.949 122.2 124.588 114.472 125.134 102.18C125.832 109.725 130.146 127.79 131.724 130.607C132.004 131.207 132.462 131.707 133.036 132.037C133.61 132.368 134.271 132.513 134.93 132.454C136.081 132.418 138.558 131.939 139.404 130.997C141.798 128.339 139.418 122.062 138.838 119.92C135.582 107.825 137.35 100.452 136.481 89.6693C136.412 88.8087 136.276 85.8282 135.464 85.6134C135.386 85.5967 135.305 85.5983 135.228 85.618C134.802 85.7338 123.033 91.8598 115.033 90.2491C114.988 90.2401 114.941 90.2408 114.896 90.2513C114.851 90.2617 114.808 90.2816 114.771 90.3096C114.734 90.3377 114.704 90.3733 114.682 90.414C114.659 90.4548 114.646 90.4997 114.643 90.546C113.641 101.691 115.276 116.302 117.445 127.145C118.27 131.269 119.048 132.829 123.33 132.217C125.82 131.865 127.759 130.959 127.228 125.21ZM131.612 87.906C132.858 87.3842 134.091 86.8333 135.311 86.2539C135.862 87.1743 136.053 92.5302 136.078 93.5993C132.074 93.676 130.101 91.5822 129.901 88.597C129.905 88.4966 129.754 88.6691 131.612 87.906ZM115.223 90.9126C116.314 91.0716 117.419 91.1215 118.521 91.0614C117.92 93.0302 116.773 95.5429 114.956 96.507C114.989 93.9997 115.073 92.7066 115.223 90.9126ZM126.392 129.22C125.789 131.303 124.578 131.41 123.228 131.598C121.748 131.811 120.174 131.896 119.283 130.716C117.026 127.689 114.877 105.811 114.949 97.1797C117.077 96.4127 118.531 93.1959 119.172 91.0177C122.638 90.7538 126.049 89.999 129.302 88.7757C129.465 91.6964 131.637 94.3249 136.1 94.2214C136.241 100.252 135.756 104.4 136.675 111.966C136.02 112.191 133.765 112.964 133.65 112.997C133.279 113.122 133.437 113.716 133.812 113.591C134.62 113.317 135.427 113.039 136.24 112.765L135.14 115.233C135.099 115.304 135.087 115.388 135.108 115.467C135.129 115.546 135.18 115.614 135.251 115.655C135.321 115.697 135.406 115.708 135.485 115.687C135.564 115.667 135.632 115.615 135.673 115.545C136.05 114.695 136.43 113.846 136.806 112.997C137.782 120.023 138.908 121.619 139.512 124.645C139.862 126.376 140.143 128.93 139.117 130.357C138.408 131.345 136.1 131.766 135.024 131.823C134.411 131.903 133.789 131.771 133.261 131.449C132.734 131.126 132.332 130.633 132.124 130.051C130.878 127.596 125.993 109.256 125.543 98.7413C125.506 98.4427 125.493 98.1415 125.506 97.8408C125.548 97.5033 125.122 97.5486 125.227 97.5486C125.192 97.5372 125.154 97.534 125.117 97.539C125.079 97.544 125.044 97.5571 125.012 97.5775C124.981 97.5979 124.954 97.625 124.935 97.6569C124.915 97.6887 124.902 97.7246 124.898 97.7618C124.173 102.619 124.413 109.665 124.94 114.626C124.766 114.604 122.262 114.289 122.109 114.273C122.028 114.273 121.95 114.305 121.893 114.363C121.835 114.42 121.803 114.498 121.803 114.58C121.803 114.661 121.835 114.739 121.893 114.797C121.95 114.854 122.028 114.886 122.109 114.886C122.884 114.984 123.659 115.081 124.439 115.174C123.97 115.558 122.843 116.46 122.751 116.533C122.475 116.751 122.828 117.267 123.187 116.97L125.039 115.481C125.908 122.892 127.392 125.762 126.392 129.22ZM140.787 134.213C140.678 134.002 140.512 133.826 140.308 133.704C140.104 133.582 139.87 133.519 139.632 133.523C136.457 133.523 129.015 133.172 127.264 135.846C127.141 136.04 127.071 136.263 127.062 136.492C127.054 136.722 127.106 136.95 127.215 137.152C127.324 137.355 127.485 137.524 127.681 137.644C127.878 137.763 128.102 137.828 128.332 137.832L140.202 138.054C140.376 138.058 140.549 138.026 140.711 137.962C140.872 137.897 141.019 137.8 141.142 137.677C141.266 137.554 141.363 137.407 141.428 137.245C141.493 137.084 141.524 136.911 141.52 136.736C141.46 135.852 141.21 134.992 140.787 134.213ZM123.929 133.519C120.755 133.519 113.312 133.168 111.562 135.842C111.438 136.036 111.368 136.259 111.359 136.489C111.35 136.718 111.403 136.946 111.512 137.149C111.621 137.351 111.781 137.521 111.978 137.641C112.174 137.76 112.399 137.825 112.629 137.829L124.499 138.05C124.673 138.055 124.847 138.024 125.009 137.959C125.171 137.894 125.318 137.798 125.442 137.674C125.565 137.551 125.662 137.404 125.727 137.242C125.792 137.08 125.824 136.907 125.82 136.733C125.762 135.85 125.514 134.991 125.092 134.214C124.981 134.003 124.813 133.826 124.608 133.703C124.403 133.581 124.168 133.517 123.929 133.519ZM126.518 76.6987C126.772 76.3873 126.316 75.97 126.082 76.263C123.019 79.9173 119.089 82.7462 114.652 84.4914C110.214 86.2366 105.411 86.8425 100.679 86.2539C100.26 86.1488 97.5918 81.0383 99.6865 75.9516C99.9027 75.9654 110.871 76.6918 120.48 66.1786C120.499 66.1556 120.523 66.1372 120.541 66.1142C120.805 65.822 120.374 65.3856 120.105 65.6778C119.708 66.1165 119.299 66.5436 118.877 66.9587C118.889 66.7438 118.889 66.5285 118.877 66.3136C118.877 66.2323 118.845 66.1542 118.787 66.0967C118.73 66.0391 118.652 66.0068 118.571 66.0068C118.489 66.0068 118.411 66.0391 118.354 66.0967C118.296 66.1542 118.264 66.2323 118.264 66.3136C118.287 66.735 118.271 67.1576 118.217 67.5761C115.539 70.1356 112.399 72.1622 108.964 73.5479C108.565 68.9076 109.557 64.2535 111.813 60.1792C112.265 61.5844 112.998 61.6557 114.498 61.4179C115.878 61.2062 117.622 60.4438 118.243 59.2274C118.644 58.4389 118.363 57.7785 117.751 55.45C118.115 55.137 118.412 54.7534 118.623 54.3225C118.912 53.1538 119.049 51.9528 119.032 50.7491C121.734 50.048 122.083 47.4986 120.233 46.9302C120.628 46.2898 121.811 44.0486 119.895 42.698C119.669 41.7504 119.105 40.918 118.309 40.3573C117.512 39.7967 116.538 39.5465 115.57 39.6538C115.57 39.6538 111.51 35.9001 108.507 38.8101C108.356 39.0259 108.251 39.27 108.198 39.5276C108.145 39.7852 108.144 40.0509 108.196 40.3088C108.196 40.3088 102.897 40.4852 103.695 44.4574C103.89 45.4231 104.822 46.2115 106.122 46.8566C105.361 48.9574 104.823 52.813 105.788 55.0427C106.515 56.714 108.294 57.9572 111.24 57.8131C111.306 58.1475 111.365 58.4811 111.44 58.8155C111.685 59.9338 111.683 58.669 110.317 61.7385C108.663 65.5242 107.988 69.6653 108.354 73.7803C105.521 74.8693 102.502 75.3958 99.4671 75.3304C99.413 75.328 99.3594 75.3411 99.3127 75.3683C99.2659 75.3955 99.2279 75.4356 99.2033 75.4838C99.0591 75.8228 98.934 76.1618 98.8198 76.5092C97.8602 75.2989 95.784 73.0885 94.3052 73.5302C93.1854 73.8723 92.7843 75.0849 94.2025 76.6258C92.239 77.1167 88.8427 78.281 87.8503 80.0458C87.0833 81.3927 87.5872 82.5401 90.8615 81.563C88.7507 83.6231 89.9334 85.6848 93.3925 84.2221C92.9661 85.2192 92.6685 86.5561 93.8888 86.6911C95.109 86.826 98.322 85.8082 99.4763 85.4148C99.8207 86.1419 100.026 86.7793 100.441 86.8391C103.999 87.237 107.599 87.0156 111.082 86.1848C117.147 84.8469 122.585 81.5052 126.518 76.6987ZM117.828 58.1229C118.205 59.9461 114.265 61.4049 112.742 60.7307C112.311 59.792 112.024 58.794 111.889 57.7701C113.796 57.5536 115.63 56.908 117.253 55.8818C117.495 56.8451 117.771 57.8506 117.828 58.1229ZM111.468 57.2025C109.691 57.3644 107.609 56.8727 106.649 55.3119C105.366 53.2226 106.025 49.0993 106.714 47.1212C107.018 46.0695 107.684 45.1589 108.594 44.5502C109.737 43.8668 112.26 43.468 113.828 44.3554C114.072 44.4967 114.299 44.665 114.506 44.857C114.357 45.5021 114.268 46.3972 114.785 46.8512C115.064 47.0149 115.389 47.0812 115.71 47.0395C116.031 46.9979 116.329 46.8507 116.556 46.6211C116.573 47.8391 117.264 50.0925 118.455 48.333C118.649 48.0084 118.928 47.7432 119.262 47.566C120.322 47.1243 121.444 48.2257 120.374 49.3363C119.906 49.807 119.302 50.1201 118.648 50.2321C118.377 50.282 118.454 50.476 118.429 51.3458C118.353 53.2456 118.499 54.1438 117.084 55.2666C115.413 56.3892 113.477 57.0554 111.468 57.1995V57.2025ZM96.4237 85.7093C95.3 85.9992 93.9394 86.217 93.7944 86.0529H93.7837C93.8604 86.0529 93.6035 86.0445 93.6771 85.4961C93.7885 84.8609 94.0266 84.2547 94.3773 83.7136C94.4097 83.6546 94.4221 83.5868 94.4126 83.5202C94.4032 83.4536 94.3723 83.3919 94.3248 83.3443C94.2772 83.2968 94.2155 83.2659 94.1489 83.2564C94.0823 83.247 94.0144 83.2593 93.9555 83.2917C93.2959 83.6752 91.9115 84.2727 91.0739 84.1132C90.9581 84.1028 90.8467 84.0634 90.75 83.9988C90.6533 83.9342 90.5743 83.8464 90.5203 83.7434C90.4662 83.6404 90.4389 83.5255 90.4408 83.4092C90.4426 83.293 90.4736 83.179 90.5309 83.0778C91.0744 82.1932 91.8142 81.4455 92.693 80.8926C92.7633 80.8514 92.8144 80.784 92.8349 80.7052C92.8555 80.6263 92.8439 80.5426 92.8027 80.4723C92.7615 80.402 92.6941 80.351 92.6153 80.3304C92.5364 80.3098 92.4527 80.3214 92.3824 80.3626C92.3347 80.3854 92.2858 80.4056 92.2359 80.4232C91.3247 80.7768 88.2008 81.984 88.2008 80.9992C88.2529 79.0687 93.0044 77.5125 94.9204 77.1014C94.9726 77.0873 95.0202 77.0597 95.0583 77.0213C95.0964 76.9829 95.1237 76.9352 95.1374 76.8828C95.1512 76.8305 95.1508 76.7755 95.1364 76.7233C95.122 76.6712 95.094 76.6238 95.0554 76.5859C92.973 74.7413 94.1143 73.2633 96.1292 74.6838C97.0585 75.433 97.9068 76.2775 98.6602 77.2034C98.019 79.7541 98.2291 82.4445 99.2585 84.8648C98.3229 85.176 97.3775 85.4566 96.4237 85.7062V85.7093ZM93.6978 56.0467C93.9501 55.9186 93.9624 55.8634 94.0529 55.552C96.2143 48.6859 93.075 50.0296 91.8716 52.0345C91.7512 50.6263 91.2986 46.819 89.8674 46.921C88.2568 47.0292 87.9691 50.0695 88.1547 51.8298C87.5157 51.7057 86.8567 51.7317 86.2294 51.9057C85.6021 52.0796 85.0238 52.3968 84.5399 52.8322C83.2 54.3294 83.0558 57.6919 84.9434 58.5724C85.7449 58.9444 85.3644 58.3469 85.8208 59.2082C85.8484 59.2587 85.8906 59.2997 85.942 59.3257C85.9933 59.3518 86.0514 59.3616 86.1084 59.3539C86.1981 59.3463 93.6456 56.0728 93.6978 56.0467ZM86.2288 58.6544C86.1874 58.5777 86.1521 58.5103 86.1084 58.4366C86.3677 58.1774 86.4674 57.6589 86.4405 56.7055C86.5684 56.9188 86.7509 57.094 86.9692 57.2131C87.1875 57.3322 87.4336 57.3909 87.6822 57.3831C87.9307 57.3753 88.1727 57.3012 88.383 57.1686C88.5934 57.036 88.7645 56.8497 88.8788 56.6288C89.421 55.7084 89.1142 54.0755 88.7952 53.1996C88.6602 52.8284 88.0665 52.991 88.2015 53.3622C89.4786 56.7163 87.2313 58.3223 86.1736 54.7635C86.152 54.6847 86.1001 54.6176 86.0291 54.5772C85.9581 54.5367 85.8739 54.526 85.7951 54.5476C85.7163 54.5692 85.6492 54.6211 85.6087 54.6921C85.5683 54.7631 85.5576 54.8473 85.5792 54.9261C85.7218 55.5665 86.0555 57.606 85.593 58.0708C84.0306 58.4543 82.6738 51.8229 88.1547 52.4326C88.2744 52.4326 88.8673 52.6765 88.7998 52.1304C88.3749 48.6851 89.7501 45.8303 90.6406 48.6598C91.031 50.1328 91.2624 51.6435 91.3308 53.1659C91.3295 53.2409 91.3558 53.3139 91.4046 53.3709C91.4534 53.4279 91.5215 53.465 91.5959 53.4752C91.6703 53.4854 91.7458 53.468 91.8082 53.4263C91.8706 53.3845 91.9155 53.3213 91.9345 53.2487C92.2896 52.4203 93.0083 51.0934 93.911 51.0405C94.7317 51.0405 93.6656 54.6791 93.4194 55.4576C83.9907 59.6147 87.4652 58.1191 86.2288 58.6567V58.6544ZM93.7599 36.322C94.4218 39.7819 95.9006 43.4795 98.8596 45.3893C98.9063 45.4172 98.9595 45.4321 99.0138 45.4327C99.0682 45.4332 99.1217 45.4193 99.1689 45.3924C99.216 45.3655 99.2552 45.3265 99.2824 45.2795C99.3096 45.2325 99.3239 45.179 99.3237 45.1247C99.0993 42.3038 99.355 39.4653 100.08 36.73C108.811 35.9837 117.426 30.8242 115.992 22.3106C114.521 13.8805 105.128 10.5863 96.6691 12.2223C80.2816 15.3992 78.0458 32.6672 93.7599 36.322ZM95.4051 13.145C103.863 10.8931 113.903 13.9572 115.401 22.4724C116.76 30.6178 108.147 35.4875 99.8383 36.1363C99.7709 36.1382 99.7058 36.1615 99.6526 36.2029C99.5993 36.2443 99.5607 36.3016 99.5423 36.3664C98.8185 39.0152 98.5256 41.7632 98.6748 44.505C96.1614 42.5875 94.8874 39.0877 94.3221 35.9914C94.3084 35.9401 94.2814 35.8934 94.2438 35.8559C94.2063 35.8185 94.1594 35.7917 94.1081 35.7782C79.4801 32.4793 80.5999 17.0858 95.4059 13.145H95.4051ZM67.0686 15.2358C57.2856 8.75244 42.0816 11.69 40.2738 22.3075C38.8587 30.8518 47.4497 35.9745 56.1911 36.7269C56.9151 39.4614 57.1697 42.2989 56.9443 45.1186C56.9441 45.1729 56.9583 45.2263 56.9855 45.2733C57.0127 45.3204 57.0519 45.3593 57.0991 45.3863C57.1463 45.4132 57.1998 45.4271 57.2542 45.4265C57.3085 45.426 57.3617 45.411 57.4084 45.3832C60.3728 43.4795 61.8255 39.7911 62.5081 36.3204C74.8643 33.4243 76.6767 21.6034 67.0686 15.2358ZM72.0893 28.1918C70.7134 32.3413 66.4397 34.7964 62.166 35.7766C62.1148 35.7903 62.068 35.8171 62.0305 35.8546C61.9929 35.892 61.9658 35.9387 61.952 35.9898C61.3714 39.1345 60.1465 42.54 57.5901 44.5104C57.7406 41.767 57.4492 39.0173 56.7273 36.3664C56.7079 36.302 56.6688 36.2452 56.6156 36.2039C56.5624 36.1627 56.4977 36.1391 56.4304 36.1363C48.0879 35.4967 39.4999 30.5979 40.8659 22.4701C42.9997 10.2657 62.3547 9.38214 70.0936 18.7187C71.1983 20.0013 71.9605 21.5424 72.3094 23.1987C72.6584 24.855 72.5827 26.5727 72.0893 28.1918ZM62.9752 48.3315C62.8563 47.224 62.4613 45.0127 61.3515 44.88C60.632 44.7934 60.3966 45.8365 60.2654 46.5506C59.9327 49.0389 59.7822 51.5483 59.8152 54.0586C59.8175 54.1364 59.8483 54.2106 59.9018 54.2672C59.9552 54.3237 60.0276 54.3587 60.1051 54.3654C67.7566 54.3654 67.8057 54.6178 67.9499 54.3125C68.2129 53.5761 68.3179 52.7925 68.2579 52.0128C68.1979 51.2331 67.9743 50.4748 67.6017 49.7873C66.7618 48.2632 64.7293 48.0485 62.9752 48.3315ZM67.4721 53.8492C65.9151 53.8285 60.6044 53.7603 60.4326 53.7564C60.4326 53.6076 60.4372 53.4596 60.4372 53.3108C60.8 53.4719 60.9112 52.9465 60.8637 53.0232C60.9596 52.0196 61.2135 51.0375 61.6161 50.1132C62.7911 50.1132 62.1721 52.7555 62.2097 52.981C62.2138 53.0525 62.2428 53.1203 62.2916 53.1726C62.3404 53.225 62.406 53.2587 62.477 53.2678C62.548 53.2769 62.62 53.2608 62.6804 53.2225C62.7409 53.1841 62.786 53.1258 62.808 53.0577L62.8502 52.7885C63.3456 52.8759 63.7253 52.405 63.9454 51.9532C64.2077 52.9319 65.0077 53.0961 65.5599 52.6589C66.1671 51.9717 66.5678 51.1271 66.7158 50.2221C66.7925 49.8386 66.205 49.6707 66.1214 50.0603C66.0141 50.8474 65.6823 51.5868 65.1657 52.1902C65.1354 52.2231 65.0981 52.2487 65.0566 52.2652C65.0151 52.2817 64.9703 52.2886 64.9258 52.2854C64.8812 52.2823 64.8379 52.2691 64.7991 52.2469C64.7603 52.2247 64.727 52.1941 64.7017 52.1573C64.6779 52.0806 64.4762 52.0092 64.4555 51.0436C64.4533 50.7357 64.4735 50.4281 64.5161 50.1232C64.5767 49.7397 63.996 49.5664 63.9224 49.9614C63.8357 50.4392 63.4009 52.1795 62.9253 52.1795C63.0568 51.4502 62.9525 50.698 62.6277 50.0319C62.6599 49.6814 62.7558 49.3416 62.4521 49.2527C62.373 49.2306 62.2883 49.2406 62.2166 49.2805C62.1448 49.3204 62.0916 49.387 62.0686 49.4659C62.064 49.4989 62.064 49.5311 62.0594 49.5633C61.9648 49.5122 61.8605 49.4816 61.7533 49.4735C61.6461 49.4653 61.5384 49.4798 61.4371 49.5159C61.3358 49.5521 61.2433 49.6091 61.1655 49.6834C61.0878 49.7576 61.0265 49.8473 60.9856 49.9468C60.7206 50.5142 60.5422 51.1181 60.4564 51.7385C60.4901 50.4737 60.6098 46.5935 61.2234 45.5105C61.3676 45.3671 61.6069 45.7069 61.7158 45.894C62.1059 46.7728 62.3368 47.714 62.3976 48.6736C62.3988 48.7206 62.4105 48.7668 62.4318 48.8087C62.4532 48.8506 62.4837 48.8871 62.5211 48.9156C62.5586 48.9441 62.6019 48.9638 62.648 48.9733C62.694 48.9828 62.7416 48.9818 62.7873 48.9704C64.1057 48.6636 66.06 48.7288 66.8899 49.8057C67.2562 50.4049 67.4967 51.0724 67.5968 51.7676C67.6969 52.4627 67.6545 53.171 67.4721 53.8492Z" fill="black"/>
<path d="M51.5046 135.898C46.9149 133.857 43.2349 134.674 40.9056 136.951C40.7715 137.084 40.6801 137.254 40.6432 137.439C40.6062 137.624 40.6254 137.816 40.6983 137.99C40.7712 138.164 40.8944 138.312 41.0521 138.415C41.2099 138.519 41.3949 138.573 41.5836 138.571L52.6229 138.459C52.8037 138.456 52.9794 138.399 53.1282 138.297C53.277 138.194 53.3922 138.05 53.4596 137.882C53.5269 137.714 53.5433 137.53 53.5068 137.353C53.4702 137.176 53.3824 137.014 53.2541 136.886C52.7534 136.428 52.1552 136.09 51.5046 135.898ZM64.5634 135.114C60.019 133.075 56.2983 133.886 53.9644 136.168C53.8299 136.3 53.7382 136.47 53.7011 136.655C53.6639 136.84 53.6829 137.032 53.7558 137.206C53.8286 137.38 53.9519 137.528 54.1098 137.632C54.2676 137.735 54.4529 137.789 54.6416 137.787L65.6817 137.675C65.8626 137.672 66.0385 137.616 66.1875 137.513C66.3365 137.41 66.4518 137.266 66.5192 137.098C66.5865 136.93 66.6029 136.746 66.5662 136.569C66.5295 136.391 66.4414 136.229 66.3129 136.102C65.8114 135.645 65.2134 135.307 64.5634 135.114ZM48.8501 89.539C52.0477 89.3025 55.203 88.6666 58.2426 87.6461C58.37 87.5825 58.4804 87.4927 58.4727 87.3493C57.8592 79.401 56.2758 71.5575 53.758 63.9936C53.6514 63.8341 53.5203 60.4264 52.5309 59.5896C52.4508 59.4951 52.3462 59.4244 52.2287 59.3854C52.1111 59.3463 51.9851 59.3404 51.8644 59.3682C51.7437 59.396 51.633 59.4564 51.5444 59.543C51.4557 59.6295 51.3926 59.7388 51.362 59.8588C51.2961 60.0233 51.2478 60.1942 51.2178 60.3688C51.2145 60.3553 51.2082 60.3428 51.1994 60.332C50.9033 59.6655 50.3319 58.3562 49.6148 58.265C48.8554 58.1676 48.7711 59.4016 48.7711 60.1671C48.5697 59.8345 48.3183 59.5349 48.0255 59.2789C48.9229 57.8178 48.8861 55.8275 48.5134 54.1784C52.8461 51.8153 53.4221 46.9189 50.7867 43.8302C50.9644 43.5183 51.0667 43.1691 51.0854 42.8106C51.104 42.452 51.0385 42.0941 50.8941 41.7654C49.5902 37.8661 45.0443 36.6396 43.6729 38.4797C43.0372 37.6142 42.1323 36.9841 41.1001 36.688C40.0679 36.392 38.9666 36.4467 37.9688 36.8437C36.971 37.2407 36.1331 37.9574 35.5864 38.8817C35.0397 39.8059 34.815 40.8854 34.9476 41.9511C35.0542 42.8001 35.3694 43.7151 34.943 44.4614C34.4107 45.3964 32.4955 45.8175 31.5414 48.0624C29.7673 52.2379 34.9698 52.33 33.8799 56.6244C33.4765 58.2159 32.1864 59.427 31.5184 60.931C31.1576 61.7448 30.986 62.6298 31.0167 63.5194C31.0473 64.4091 31.2793 65.2802 31.6952 66.0672C32.111 66.8542 32.7 67.5367 33.4177 68.0632C34.1355 68.5898 34.9632 68.9467 35.8388 69.1072C36.3849 64.8235 37.7463 58.9622 41.7316 57.3016C42.0453 60.8098 44.4744 61.8813 46.5069 60.7401C46.5491 60.9771 46.5951 61.2094 46.6465 61.4411C46.263 61.1811 45.7414 61.0047 45.3886 61.3161C44.683 61.9396 45.4162 63.5403 45.5834 66.0446C45.4615 66.1911 45.5067 66.2217 45.5374 67.0048C44.7528 64.5643 43.8715 61.9895 41.9456 60.2998C41.648 60.0398 41.2124 60.4716 41.5092 60.7354C43.7043 62.6606 44.7137 66.2102 45.8573 70.1418C46.1434 71.1121 46.0644 70.5 45.9685 72.8263C45.9685 72.9077 46.0008 72.9857 46.0583 73.0432C46.1159 73.1008 46.1939 73.1331 46.2753 73.1331C46.3562 73.1315 46.4333 73.0987 46.4905 73.0415C46.5477 72.9843 46.5805 72.9072 46.5821 72.8263C46.5821 72.7496 46.5759 72.7496 46.7401 73.4023C46.7616 73.481 46.8136 73.548 46.8845 73.5884C46.9554 73.6288 47.0395 73.6394 47.1182 73.6178C47.1969 73.5963 47.2639 73.5443 47.3043 73.4734C47.3447 73.4025 47.3553 73.3184 47.3337 73.2397C45.9846 67.916 46.319 70.8298 46.1226 66.5761C46.8183 66.6114 52.9113 66.9189 53.3523 66.9381C53.6561 69.3787 53.7493 71.8408 53.6307 74.2974C53.5057 76.4971 52.9811 78.8503 51.2968 80.4042C48.7895 82.7213 43.995 82.3799 40.7675 77.7366C39.255 75.5645 38.4382 73.0165 37.6351 70.52C37.5147 70.1441 36.9203 70.3067 37.0415 70.6826C38.429 74.9938 40.1861 80.0145 44.7536 81.8615C45.7446 82.2824 46.8206 82.4648 47.895 82.3939C48.9694 82.323 50.0122 82.0009 50.9394 81.4534C54.1891 79.3603 54.3778 74.9823 54.2712 71.221C54.1945 67.9728 53.9045 67.0593 53.9644 66.6689C55.9847 73.3313 57.2793 80.1925 57.8254 87.133C52.5968 89.0275 44.064 89.8589 36.1679 88.0611C35.7667 87.9882 35.631 88.5726 36.0053 88.6555C36.0191 88.6601 36.029 88.6601 36.0428 88.6647C40.2438 89.5974 44.5613 89.8922 48.8501 89.539ZM41.9471 53.5671C41.2063 53.1628 40.5569 52.61 40.0394 51.9433C39.522 51.2766 39.1476 50.5103 38.9398 49.6923C38.9212 49.6274 38.8824 49.57 38.829 49.5287C38.7756 49.4873 38.7105 49.464 38.6429 49.4622C36.5636 49.5688 35.1002 47.636 36.74 47.096C37.3379 46.932 37.9735 46.9728 38.5455 47.2119C38.6246 47.2335 38.7091 47.2233 38.7808 47.1834C38.8524 47.1436 38.9057 47.0772 38.929 46.9986C39.2257 45.8748 39.8107 44.8479 40.6263 44.0196C41.4418 43.1914 42.4596 42.5906 43.5787 42.2767C44.6979 41.9627 45.8796 41.9466 47.007 42.2298C48.1343 42.5131 49.1681 43.0859 50.0059 43.8915C48.6322 43.3922 48.768 44.4024 49.2075 44.3786C49.5785 44.3636 49.944 44.4715 50.2475 44.6854C50.3112 44.7082 50.3808 44.7087 50.4448 44.6866C50.5088 44.6646 50.5634 44.6214 50.5996 44.5642C54.5826 49.97 47.8699 56.8414 41.9502 53.5664L41.9471 53.5671ZM46.4156 60.1011C45.949 60.4238 45.3911 60.5881 44.8241 60.5698C42.3345 60.48 42.0783 57.1037 42.4342 54.4722C44.2166 55.1744 46.201 55.1626 47.9749 54.4392C48.363 55.9435 48.1997 57.5371 47.5147 58.9315C47.3942 58.8479 47.2547 58.7956 47.1088 58.7794C46.963 58.7632 46.8155 58.7836 46.6795 58.8387C46.2776 59.0603 46.3727 59.6847 46.4187 60.1004L46.4156 60.1011ZM46.1978 65.9755C46.0214 63.5526 45.5152 62.4075 45.7706 61.8407C45.7791 61.8239 45.7899 61.8084 45.8028 61.7947C46.4571 61.7072 47.03 62.9175 46.9771 62.8339C47.1611 63.2029 47.6735 63.0364 47.5669 62.6713C46.8574 60.1326 47.0024 59.4868 46.9909 59.4093C47.0676 59.4822 48.0869 59.5221 48.8317 61.7624C48.9337 62.0731 49.4675 62.0455 49.4353 61.6788C49.2805 60.7437 49.3279 59.7862 49.5741 58.8709C50.045 59.1064 50.7729 60.8075 51.0782 61.6597C51.0977 61.7316 51.1428 61.794 51.205 61.8351C51.2671 61.8762 51.3422 61.8933 51.416 61.8832C51.4899 61.873 51.5575 61.8363 51.6063 61.78C51.655 61.7236 51.6816 61.6514 51.681 61.5768C51.6956 61.1843 51.7485 60.7941 51.839 60.4118C51.8989 60.1694 52.0078 59.7982 52.2893 60.2538C52.9849 61.3713 53.3331 65.7861 53.3331 66.333C52.0837 66.2701 47.5155 66.03 46.2009 65.9748L46.1978 65.9755ZM45.565 119.92C45.2168 119.997 44.8686 120.065 44.5212 120.139C44.1377 120.216 44.2696 120.823 44.6876 120.733C45.0358 120.656 45.384 120.588 45.7322 120.514C46.1157 120.437 45.9838 119.831 45.565 119.92ZM56.5353 118.078C56.5701 118.099 56.6088 118.113 56.6491 118.119C56.6895 118.125 56.7306 118.123 56.77 118.113C56.8095 118.102 56.8464 118.084 56.8786 118.059C56.9107 118.034 56.9375 118.003 56.9572 117.967C56.9974 117.896 57.0083 117.812 56.9875 117.733C56.9668 117.654 56.916 117.586 56.8459 117.544C56.3681 117.297 55.2943 117.027 55.3242 117.563C55.3254 117.644 55.3581 117.722 55.4154 117.779C55.4727 117.836 55.55 117.869 55.631 117.87C55.9434 117.877 56.2511 117.948 56.5353 118.078Z" fill="black"/>
<path d="M49.7601 79.7293C49.7457 79.7883 49.7488 79.8502 49.769 79.9075C49.7893 79.9647 49.8257 80.0149 49.8739 80.0518C49.9221 80.0887 49.98 80.1108 50.0406 80.1153C50.1011 80.1199 50.1617 80.1068 50.2149 80.0775C50.6743 79.7409 50.9985 79.2513 51.1291 78.6969C51.1401 78.658 51.1433 78.6172 51.1386 78.577C51.1338 78.5368 51.1211 78.4979 51.1013 78.4626C51.0815 78.4272 51.055 78.3962 51.0232 78.3711C50.9913 78.346 50.9549 78.3275 50.9159 78.3165C50.8769 78.3055 50.8362 78.3023 50.796 78.3071C50.7558 78.3119 50.7169 78.3245 50.6816 78.3443C50.6462 78.3641 50.6151 78.3907 50.5901 78.4225C50.565 78.4543 50.5465 78.4908 50.5355 78.5297C50.3246 79.3627 49.8176 79.513 49.7601 79.7293ZM44.0598 48.1001C44.0889 48.2298 44.1674 48.3431 44.2787 48.4159C44.3899 48.4886 44.5252 48.5151 44.6557 48.4898C44.7862 48.4644 44.9016 48.3892 44.9776 48.28C45.0535 48.1709 45.0839 48.0365 45.0622 47.9053C45.0332 47.7756 44.9546 47.6623 44.8434 47.5896C44.7321 47.5168 44.5969 47.4903 44.4664 47.5156C44.3359 47.541 44.2204 47.6162 44.1445 47.7254C44.0686 47.8345 44.0382 47.9689 44.0598 48.1001ZM50.3928 46.3606C50.457 46.3414 50.5244 46.335 50.5911 46.3419C50.6577 46.3487 50.7224 46.3686 50.7814 46.4005C50.8403 46.4323 50.8925 46.4754 50.9348 46.5274C50.9771 46.5794 51.0087 46.6392 51.0279 46.7034C51.0471 46.7676 51.0534 46.835 51.0466 46.9017C51.0398 46.9683 51.0198 47.033 50.988 47.092C50.9562 47.1509 50.913 47.2031 50.8611 47.2454C50.8091 47.2877 50.7493 47.3193 50.6851 47.3385C50.5554 47.3772 50.4156 47.3629 50.2965 47.2986C50.1774 47.2343 50.0887 47.1253 50.05 46.9956C50.0112 46.866 50.0256 46.7262 50.0899 46.6071C50.1542 46.488 50.2632 46.3993 50.3928 46.3606ZM43.078 46.7126C43.2987 46.1767 43.708 45.7402 44.2285 45.4854C44.2986 45.4437 44.3496 45.3762 44.3705 45.2973C44.3914 45.2185 44.3807 45.1346 44.3405 45.0636C44.2976 44.9946 44.2299 44.9447 44.1513 44.924C44.0727 44.9033 43.9892 44.9135 43.9179 44.9524C43.3063 45.2614 42.8191 45.7705 42.5373 46.3951C42.4952 46.4668 42.4833 46.5523 42.5042 46.6328C42.5252 46.7132 42.5772 46.7821 42.6489 46.8242C42.7206 46.8663 42.8061 46.8782 42.8866 46.8573C42.9671 46.8364 43.0359 46.7843 43.078 46.7126ZM43.9647 50.2715C43.4278 52.1391 46.5188 53.9323 48.2476 51.9374C48.9777 51.0116 48.7078 50.0429 47.4077 49.8028C47.331 49.7883 45.7096 49.496 45.4634 49.4776C45.16 49.4095 44.8422 49.452 44.5673 49.5976C44.2925 49.7432 44.0788 49.9822 43.9647 50.2715ZM115.307 81.7894C114.784 82.1147 114.242 82.4078 113.683 82.6669C113.354 82.8203 113.575 83.3856 113.994 83.2038C114.552 82.9435 115.095 82.6505 115.619 82.3263C115.69 82.285 115.742 82.2172 115.763 82.1376C115.784 82.0581 115.773 81.9734 115.731 81.9022C115.69 81.831 115.622 81.7791 115.543 81.758C115.463 81.7368 115.378 81.7482 115.307 81.7894ZM96.2528 82.1476H95.7658C95.6844 82.1476 95.6064 82.1799 95.5488 82.2375C95.4913 82.295 95.459 82.3731 95.459 82.4544C95.459 82.5358 95.4913 82.6138 95.5488 82.6714C95.6064 82.7289 95.6844 82.7612 95.7658 82.7612C96.2367 82.7612 96.3556 82.7896 96.4714 82.673C96.515 82.6301 96.5447 82.5751 96.5568 82.5152C96.569 82.4552 96.5629 82.393 96.5394 82.3366C96.5159 82.2801 96.4761 82.2319 96.425 82.1983C96.3739 82.1646 96.314 82.147 96.2528 82.1476ZM95.1253 79.5759C94.5593 79.6894 94.4688 79.6841 94.3783 79.8313C94.3377 79.9019 94.3262 79.9855 94.3462 80.0644C94.3663 80.1433 94.4163 80.2113 94.4856 80.2539C94.6283 80.3306 94.7157 80.2838 95.2833 80.1703C95.3223 80.16 95.3589 80.142 95.391 80.1175C95.4231 80.0929 95.4501 80.0623 95.4703 80.0274C95.4906 79.9925 95.5038 79.9539 95.5091 79.9139C95.5145 79.8738 95.5119 79.8331 95.5015 79.7941C95.4911 79.7551 95.4732 79.7185 95.4487 79.6864C95.4241 79.6543 95.3935 79.6274 95.3586 79.6071C95.3237 79.5868 95.2851 79.5737 95.2451 79.5683C95.205 79.5629 95.1643 79.5655 95.1253 79.5759ZM111.892 51.7241C111.815 51.761 110.401 52.4405 110.184 52.5778C109.648 52.9122 109.173 53.4598 109.441 54.1279C110.184 55.9633 113.69 55.5606 113.883 52.8838C113.933 51.8147 113.186 51.1167 111.892 51.7241ZM112.416 49.812C112.538 49.812 112.655 49.7636 112.741 49.6773C112.827 49.5909 112.876 49.4739 112.876 49.3518C112.876 49.2298 112.827 49.1127 112.741 49.0264C112.655 48.9401 112.538 48.8916 112.416 48.8916C112.294 48.8916 112.176 48.9401 112.09 49.0264C112.004 49.1127 111.955 49.2298 111.955 49.3518C111.955 49.4739 112.004 49.5909 112.09 49.6773C112.176 49.7636 112.294 49.812 112.416 49.812ZM107.232 48.6056C107.11 48.6056 106.993 48.654 106.907 48.7404C106.821 48.8267 106.772 48.9437 106.772 49.0658C106.772 49.1878 106.821 49.3049 106.907 49.3912C106.993 49.4775 107.11 49.526 107.232 49.526C107.354 49.526 107.471 49.4775 107.558 49.3912C107.644 49.3049 107.692 49.1878 107.692 49.0658C107.692 48.9437 107.644 48.8267 107.558 48.7404C107.471 48.654 107.354 48.6056 107.232 48.6056ZM108.077 46.1834C107.802 46.2693 106.937 46.6083 106.876 46.8844C106.861 46.9435 106.863 47.0057 106.884 47.0632C106.904 47.1207 106.94 47.1711 106.989 47.2081C107.037 47.245 107.095 47.267 107.156 47.2712C107.217 47.2755 107.277 47.2618 107.33 47.2319C107.611 47.0358 107.919 46.8825 108.245 46.7771C108.323 46.7549 108.39 46.7023 108.43 46.631C108.47 46.5597 108.48 46.4754 108.458 46.3966C108.436 46.3179 108.383 46.2512 108.312 46.2112C108.241 46.1712 108.156 46.1612 108.077 46.1834ZM112.207 47.0141C112.513 47.1496 112.813 47.3014 113.103 47.4689L113.114 47.4804C113.124 47.5034 113.14 47.5287 113.126 47.4919C113.159 47.5584 113.215 47.6107 113.283 47.6391C113.352 47.6674 113.429 47.67 113.499 47.6462C113.569 47.6224 113.629 47.5739 113.666 47.5097C113.703 47.4455 113.716 47.37 113.702 47.2971C113.569 46.9374 113.199 46.7886 112.514 46.4756C112.478 46.4555 112.439 46.4425 112.399 46.4374C112.359 46.4323 112.318 46.4353 112.278 46.446C112.239 46.4568 112.203 46.4751 112.17 46.5001C112.138 46.5251 112.111 46.5561 112.091 46.5914C112.071 46.6268 112.058 46.6658 112.053 46.7061C112.048 46.7465 112.051 46.7875 112.062 46.8267C112.072 46.866 112.091 46.9027 112.116 46.9349C112.141 46.967 112.172 46.9939 112.207 47.0141ZM113.127 47.4919L113.116 47.4804C113.097 47.4443 113.115 47.4696 113.126 47.4919H113.127ZM119.697 48.5128C119.677 48.4667 119.646 48.4263 119.607 48.3949C119.568 48.3635 119.521 48.3421 119.472 48.3326C119.423 48.323 119.372 48.3255 119.324 48.3399C119.276 48.3543 119.232 48.3802 119.196 48.4153C118.98 48.6301 118.693 48.8242 118.812 49.0696C118.832 49.1161 118.862 49.1571 118.902 49.189C118.941 49.2208 118.987 49.2425 119.037 49.2522C119.086 49.2618 119.137 49.2591 119.186 49.2442C119.234 49.2294 119.278 49.2028 119.313 49.167C119.506 48.9776 119.839 48.7367 119.697 48.5128ZM61.4866 28.3777C60.2066 25.1512 58.3627 22.1783 56.041 19.5979C56.0024 19.5612 55.9551 19.535 55.9035 19.5217C55.8519 19.5084 55.7978 19.5084 55.7463 19.5219C55.6948 19.5353 55.6475 19.5617 55.609 19.5985C55.5705 19.6353 55.5421 19.6813 55.5263 19.7322C54.4133 22.5983 53.5122 25.5422 52.8303 28.5403C52.7421 28.9238 53.3358 29.0925 53.424 28.7029C53.664 27.658 53.9317 26.6196 54.227 25.5889H54.2454C55.9128 25.3007 57.6025 25.1608 59.2945 25.1709C59.9029 26.2576 60.4392 27.3832 60.8999 28.5403C61.0371 28.9069 61.6346 28.7489 61.4866 28.3777ZM54.4142 24.9469C54.8641 23.413 55.3714 21.9017 55.9359 20.4133C57.0629 21.7091 58.071 23.1037 58.9479 24.5803C57.4287 24.5676 55.9115 24.6903 54.4142 24.9469ZM102.351 23.2312C102.487 22.8583 102.592 22.4751 102.666 22.0853C102.743 21.7018 102.151 21.5331 102.073 21.9227C101.982 22.3735 101.853 22.8161 101.689 23.2458C100.654 23.2897 99.6286 23.4702 98.6404 23.7827C98.6865 22.4926 98.7839 21.2025 98.9327 19.9216C100.144 19.8441 101.341 19.6245 102.501 19.2674C102.872 19.1378 102.709 18.5441 102.339 18.6737C101.26 19.0134 100.144 19.2237 99.0155 19.3004C99.1321 18.3976 99.343 16.8559 99.5263 15.9593C99.603 15.5758 99.0117 15.4071 98.9327 15.7967C98.5898 17.4926 98.4303 19.1048 98.3958 19.3418C97.3534 19.4185 96.3249 19.4361 95.7052 19.4185C95.6238 19.4185 95.5458 19.4508 95.4882 19.5083C95.4307 19.5659 95.3984 19.6439 95.3984 19.7253C95.3984 19.8066 95.4307 19.8847 95.4882 19.9422C95.5458 19.9997 95.6238 20.0321 95.7052 20.0321C96.5726 20.0505 97.4493 20.0321 98.3267 19.9715C98.1817 21.3056 98.0858 22.6447 98.0391 23.9859C96.3049 24.6248 94.287 25.7853 93.6212 27.5033C92.8811 29.4208 94.3882 31.5983 98.1595 28.7512C98.1879 29.058 98.2201 29.3648 98.2569 29.6716C98.3037 30.0612 98.9212 30.0658 98.8705 29.6716C98.8153 29.2114 98.7731 28.7512 98.7317 28.2841C100.168 27.0685 101.32 25.5526 102.106 23.8432C108.206 23.7873 107.181 28.3861 101.782 30.7853C101.424 30.9571 101.735 31.4863 102.093 31.3145C108.496 28.2834 108.396 23.3416 102.351 23.2312ZM97.2514 28.6285C94.8116 30.2722 93.928 29.3617 94.0768 28.1783C94.2947 26.5216 96.4814 25.243 98.0307 24.6279C97.9999 25.7516 98.0255 26.8761 98.1074 27.9973C97.8213 28.2243 97.539 28.4345 97.2514 28.6285ZM98.6803 27.5102C98.6197 26.4848 98.6036 25.4493 98.6197 24.4193C99.5271 24.1177 100.469 23.9321 101.423 23.867C100.763 25.2533 99.8299 26.4923 98.6803 27.5102Z" fill="black"/>
<path d="M34.79 136.659C34.79 137.429 35.0467 138.168 35.5035 138.713C35.9603 139.258 36.5799 139.564 37.226 139.564C37.8721 139.564 38.4917 139.258 38.9485 138.713C39.4053 138.168 39.662 137.429 39.662 136.659C39.662 135.889 39.4053 135.15 38.9485 134.605C38.4917 134.06 37.8721 133.754 37.226 133.754C36.5799 133.754 35.9603 134.06 35.5035 134.605C35.0467 135.15 34.79 135.889 34.79 136.659Z" fill="#F55555"/>
<path d="M27.4926 136.896C28.8379 136.896 29.9293 138.199 29.9293 139.801C29.9293 141.402 28.8379 142.705 27.4926 142.705C26.1473 142.705 25.0566 141.402 25.0566 139.801C25.0566 138.2 26.145 136.896 27.4926 136.896Z" fill="#F55555"/>
<path d="M4.63623 132.575C4.63623 133.345 4.89288 134.084 5.34971 134.629C5.80654 135.173 6.42614 135.479 7.07219 135.479C7.71825 135.479 8.33785 135.173 8.79468 134.629C9.25151 134.084 9.50816 133.345 9.50816 132.575C9.50816 131.804 9.25151 131.066 8.79468 130.521C8.33785 129.976 7.71825 129.67 7.07219 129.67C6.42614 129.67 5.80654 129.976 5.34971 130.521C4.89288 131.066 4.63623 131.804 4.63623 132.575Z" fill="#F55555"/>
<path d="M22.9473 96.2399L11.9072 96.4439C11.4087 96.4541 10.9335 96.6571 10.5814 97.0102C10.2293 97.3633 10.0277 97.839 10.0189 98.3376L9.93526 103.539C9.92824 104.026 10.1063 104.499 10.4337 104.861C10.761 105.222 11.2132 105.447 11.6993 105.488L22.563 106.37C22.8215 106.391 23.0815 106.36 23.3275 106.278C23.5735 106.196 23.8004 106.065 23.9946 105.893C24.1887 105.721 24.3461 105.512 24.4573 105.277C24.5685 105.043 24.6311 104.789 24.6416 104.53L24.897 98.2402C24.9083 97.9788 24.866 97.7178 24.7727 97.4733C24.6794 97.2288 24.5371 97.0061 24.3544 96.8187C24.1718 96.6313 23.9527 96.4833 23.7107 96.3837C23.4687 96.2842 23.2089 96.2352 22.9473 96.2399ZM28.9751 78.7824C28.9739 78.7014 28.9412 78.624 28.8839 78.5668C28.8266 78.5095 28.7493 78.4768 28.6683 78.4756L17.2017 78.629C17.1209 78.6306 17.0437 78.6634 16.9865 78.7206C16.9293 78.7778 16.8965 78.8549 16.8949 78.9358C16.572 83.481 16.1149 89.9168 15.8212 94.1751C16.0252 94.1705 16.2315 94.1629 16.4347 94.1583C16.717 90.1354 17.2102 83.3053 17.4909 79.2326C19.9568 79.1943 28.2863 79.0846 28.3776 79.0838C29.2067 94.9881 29.1361 93.8645 29.1752 93.9565C29.3608 93.9657 29.5511 93.9795 29.7367 93.9895C29.7789 93.9028 29.8057 94.6783 28.9751 78.7824Z" fill="#F55555"/>
<path d="M36.0385 94.6432C36.036 94.5627 36.0029 94.4861 35.9459 94.4291C35.8889 94.3721 35.8123 94.3389 35.7317 94.3364C33.7321 94.2252 28.6922 93.9376 28.4514 93.9238C26.491 93.8187 8.37618 94.3894 8.45518 94.3878C8.37443 94.3898 8.29752 94.4227 8.2404 94.4798C8.18328 94.537 8.15033 94.6139 8.14838 94.6946C8.13074 95.3006 7.21112 131.961 7.21112 131.961C7.2067 132.024 7.2242 132.086 7.2606 132.137C7.29699 132.188 7.35002 132.224 7.41054 132.24C7.50258 132.286 27.0724 140.129 27.2112 140.12C27.2741 140.12 38.3172 136.469 38.3763 136.449C38.4412 136.43 38.4984 136.391 38.5398 136.338C38.5811 136.285 38.6045 136.22 38.6064 136.152C38.5251 134.604 36.0385 94.7222 36.0385 94.6432ZM24.1724 138.285C23.7122 138.103 9.74526 132.526 9.60643 132.476C9.62331 130.772 9.73145 117.857 9.79665 109.528C9.80508 108.545 10.4256 107.865 11.6942 107.978C18.0119 108.55 21.109 108.822 22.6967 108.975C22.9106 108.967 23.1237 109.005 23.3222 109.085C23.5206 109.165 23.6999 109.286 23.8484 109.44C23.9969 109.595 24.1111 109.778 24.1837 109.98C24.2564 110.181 24.2857 110.395 24.2698 110.609C24.236 122.177 24.1785 136.076 24.1724 138.287V138.285ZM26.8791 139.369C26.3637 139.165 24.9716 138.607 24.786 138.534C24.8489 121.736 24.8834 110.418 24.8834 110.532C24.8878 110.197 24.8138 109.866 24.6673 109.565C24.5208 109.263 24.3059 109.001 24.0397 108.797C23.4054 108.319 23.8487 108.461 12.7956 107.46C11.8445 107.372 10.819 107.141 9.9976 107.781C9.7409 107.985 9.53396 108.245 9.39244 108.541C9.25092 108.836 9.17853 109.16 9.18075 109.488C9.16541 110.116 9.14317 115.689 8.99054 132.236C8.79572 132.159 8.0203 131.842 7.83008 131.767C7.83622 131.441 8.80646 93.5204 8.76735 95.006C27.6929 94.4691 26.5984 94.5144 26.629 94.5136C26.6275 94.6095 26.8752 139.268 26.8791 139.369ZM30.5606 138.395C30.4839 138.42 27.9053 139.274 27.5118 139.401C27.5118 109.169 26.9849 94.4599 27.419 94.486C28.5189 94.5458 29.6234 94.611 30.7232 94.6716C30.7064 95.8351 30.5606 138.345 30.5606 138.395ZM31.1742 138.195C31.1742 136.507 31.3322 94.7061 31.3322 94.7061C32.4505 94.7713 35.1933 94.9247 35.4433 94.9362C35.5146 95.9908 37.9636 135.877 37.9744 135.953C36.2172 136.522 35.3819 136.806 31.1742 138.195Z" fill="#FCAFB7"/>
</svg>
