<svg width="154" height="154" viewBox="0 0 154 154" fill="none" xmlns="http://www.w3.org/2000/svg">
<path d="M56.2218 77.1055C55.6367 74.0087 54.1914 71.1392 52.0513 68.8257C49.9113 66.5121 47.1629 64.8479 44.121 64.0237C44.1248 63.7024 44.1286 63.381 44.1248 63.0596C43.8325 63.0278 43.5372 63.0806 43.2741 63.2118C43.011 63.3431 42.7911 63.5471 42.6407 63.7998C42.6134 63.8438 42.5713 63.8766 42.5219 63.8922C42.4726 63.9079 42.4193 63.9054 42.3716 63.8853C42.3239 63.8651 42.285 63.8285 42.262 63.7822C42.2389 63.7358 42.2331 63.6828 42.2457 63.6326C42.5425 62.5849 41.8468 61.7481 40.9364 62.1262C40.8246 62.2061 40.7051 62.2747 40.5798 62.331C40.5306 62.357 40.4733 62.363 40.4198 62.3478C40.3663 62.3325 40.3208 62.2972 40.2927 62.2491C40.2647 62.2011 40.2563 62.1441 40.2694 62.09C40.2824 62.0359 40.3159 61.989 40.3627 61.959C40.4768 61.8731 40.6003 61.8005 40.7309 61.7427C41.8929 60.8361 40.4149 58.8043 38.8448 59.3558C38.2313 59.569 37.5816 60.0262 37.702 60.7548C37.8876 61.8455 39.1923 63.1102 38.7398 64.3259C38.581 64.7608 37.9398 65.6106 37.4735 65.6398C36.448 65.708 36.8714 63.0811 36.6827 62.6102C36.2754 61.5509 35.2477 61.4252 34.7882 62.3271C34.835 63.0865 34.8933 63.8458 34.9899 64.5974C31.2714 66.0323 28.2149 68.7916 26.4084 72.3445C24.602 75.8974 24.1732 79.9928 25.2047 83.8428C27.2617 91.2826 34.9823 96.9292 42.7688 95.7511C51.6252 94.3743 57.8049 85.6046 56.2218 77.1055ZM28.8333 73.7668C26.8621 77.1186 26.4088 82.7629 28.4306 86.1438C28.4739 86.2177 28.4859 86.3058 28.4642 86.3886C28.4425 86.4715 28.3888 86.5423 28.3148 86.5855C28.2409 86.6288 28.1528 86.6409 28.0699 86.6191C27.9871 86.5974 27.9163 86.5437 27.873 86.4697C25.7255 82.8817 26.1987 76.9859 28.2795 73.4378C28.324 73.3661 28.3949 73.3148 28.4768 73.2948C28.5587 73.2748 28.6452 73.2877 28.7177 73.3308C28.7902 73.3739 28.8429 73.4437 28.8646 73.5252C28.8862 73.6067 28.8749 73.6935 28.8333 73.7668ZM32.0447 68.7699C31.2565 69.274 30.6046 69.9644 30.1464 70.7802C30.1027 70.8534 30.0321 70.9066 29.9497 70.9284C29.8672 70.9502 29.7795 70.9389 29.7054 70.8967C29.6328 70.8523 29.5802 70.7815 29.5585 70.6992C29.5368 70.6169 29.5476 70.5294 29.5888 70.4549C30.1056 69.5438 30.837 68.7726 31.7195 68.2084C31.7938 68.1665 31.8816 68.1552 31.9641 68.177C32.0466 68.1987 32.1173 68.2519 32.1613 68.325C32.2034 68.3998 32.2148 68.488 32.193 68.571C32.1713 68.6541 32.1181 68.7254 32.0447 68.7699ZM36.1588 55.0875C36.1236 55.4334 36.1917 55.7819 36.3546 56.0891C36.5175 56.3962 36.7679 56.6481 37.074 56.8129C37.3801 56.9777 37.7282 57.048 38.0743 57.0149C38.4204 56.9817 38.7489 56.8467 39.0182 56.6269C39.2636 56.3981 39.4292 56.0967 39.4905 55.7668C39.5518 55.437 39.5056 55.0962 39.3587 54.7945C38.6945 53.4561 36.2064 53.6195 36.1588 55.0875ZM37.386 54.5406C37.624 54.499 37.8685 54.5164 38.0982 54.5914C38.3278 54.6665 38.5355 54.7968 38.703 54.9709C38.8128 55.1227 38.8716 55.3054 38.8709 55.4927C38.8702 55.6801 38.8101 55.8623 38.6991 56.0133C37.7342 57.456 35.9341 54.9548 37.383 54.5406H37.386ZM43.2098 59.046C43.4016 58.8744 43.5391 58.6507 43.6055 58.4021C43.672 58.1536 43.6644 57.8911 43.5838 57.6468C43.5032 57.4024 43.353 57.187 43.1517 57.0268C42.9504 56.8666 42.7067 56.7687 42.4505 56.745C39.723 56.5164 41.5063 60.4925 43.2098 59.046ZM42.768 58.5927C42.6728 58.6464 42.5661 58.6761 42.4568 58.6793C42.3476 58.6825 42.2393 58.6591 42.1411 58.6111C42.043 58.5631 41.958 58.4919 41.8935 58.4037C41.829 58.3155 41.7869 58.2129 41.7709 58.1049C41.5385 56.7036 43.7996 57.5611 42.768 58.5927ZM41.4741 54.9786C41.6853 55.054 41.9169 55.0484 42.1242 54.963C42.3315 54.8776 42.4998 54.7184 42.5966 54.5161C42.6934 54.3139 42.7118 54.0829 42.6483 53.8679C42.5847 53.6528 42.4438 53.469 42.2526 53.3518C42.0968 53.2487 41.9127 53.1968 41.726 53.2035C41.5393 53.2101 41.3593 53.2749 41.2112 53.3887C41.0631 53.5026 40.9543 53.6599 40.8999 53.8387C40.8456 54.0174 40.8484 54.2087 40.9081 54.3857C40.9516 54.5208 41.0252 54.6443 41.1232 54.747C41.2212 54.8496 41.3412 54.9288 41.4741 54.9786ZM36.0545 51.3914C36.1192 51.4892 36.2108 51.5662 36.3182 51.6132C36.4256 51.6603 36.5443 51.6753 36.66 51.6565C36.7758 51.6377 36.8836 51.5859 36.9706 51.5073C37.0577 51.4287 37.1201 51.3267 37.1506 51.2134C37.4581 49.9832 35.3512 50.4142 36.0545 51.3914Z" fill="#44AD81"/>
<path d="M147.742 104.041C146.926 102.784 147.254 103.168 132.343 89.2239C130.892 90.8829 127.905 93.6587 125.714 93.8105C125.324 93.8349 124.931 93.7969 124.552 93.6978C123.597 95.2627 122.456 96.7067 121.155 97.9983C120.633 98.6416 119.921 99.1038 119.121 99.3191C118.354 99.4472 117.829 98.9118 118.272 97.9132C118.366 97.7038 118.466 97.4982 118.579 97.2996C117.91 97.6156 116.76 98.0221 116.135 97.5703C115.415 97.0549 116.244 96.1253 116.595 95.6452C117.269 94.7248 117.334 95.0484 115.96 95.4596C115.346 95.6413 114.305 95.9282 113.988 95.1374C113.697 94.4172 114.434 93.7469 114.898 93.3051C115.748 92.5039 116.687 91.8022 117.696 91.2135C117.216 91.179 116.746 91.0582 116.309 90.8568C115.342 90.3867 115.342 88.8627 117.184 88.5482C118.646 88.3201 120.127 88.241 121.605 88.312C122.312 86.6629 123.722 86.5993 126.02 83.3027C125.928 83.2222 110.768 69.0099 110.681 68.927C109.739 68.0511 110.575 69.9786 106.361 55.6358C105.307 57.8601 103.983 56.7096 103.2 56.7664C101.181 56.8983 102.406 60.958 100.531 61.7135C99.4964 62.1322 98.3927 60.9971 98.3344 59.885C98.2761 58.7728 98.8713 57.7466 99.3315 56.7319C100.753 53.5754 100.983 50.011 99.9788 46.6981C99.5831 45.4088 98.8629 44.0451 97.5766 43.6416C95.4697 42.9797 93.5246 45.4471 93.5883 47.6553C93.6519 49.8635 94.9052 51.8316 95.6453 53.9116C96.3855 55.9917 96.4315 58.6961 94.6536 60.0054C93.4172 60.9196 92.3741 59.8719 92.4493 58.5604C92.4961 57.7504 92.8673 56.9911 92.9447 56.1827C93.0207 55.3547 92.7838 54.5282 92.2805 53.8662C91.7773 53.2043 91.0444 52.7548 90.2262 52.6065C89.4081 52.4582 88.564 52.6217 87.8604 53.0649C87.1569 53.5081 86.6449 54.1987 86.4253 55.0008C85.9061 56.942 87.1731 58.8442 87.9056 60.7148C88.6381 62.5855 88.3934 65.3521 86.433 65.7939C85.0846 66.0961 83.8068 65.0108 83.082 63.8334C82.3572 62.6561 81.9047 61.2763 80.893 60.3352C79.3399 58.8863 76.93 58.9953 75.0163 60.0138C81.094 81.689 80.4834 79.0352 80.3546 80.1151C80.2579 80.9366 74.7878 126.518 74.6788 127.822C74.5789 129.198 74.7624 130.579 75.2179 131.881C75.6734 133.183 76.3914 134.377 77.3272 135.39C78.263 136.403 79.3969 137.214 80.6586 137.771C81.9202 138.328 83.2828 138.62 84.662 138.63C87.944 138.613 95.7834 137.413 99.0301 136.817C114.941 133.903 130.511 128.074 143.852 118.579C145.182 117.732 146.371 116.679 147.373 115.46C148.587 113.82 149.273 111.849 149.339 109.808C149.405 107.768 148.848 105.757 147.742 104.041ZM78.5107 131.418C78.6641 131.802 78.0344 131.976 77.8872 131.589C77.3946 130.028 77.3172 128.366 77.6624 126.766C78.1311 123.554 80.1935 110.67 80.7074 107.438C80.7734 107.027 81.3977 107.201 81.331 107.608C78.1817 127.758 77.5689 129.025 78.5084 131.418H78.5107ZM81.6332 103.894C81.591 104.305 80.9429 104.309 80.9866 103.894C81.1569 102.248 82.6832 87.3601 83.2799 81.5609C83.3221 81.1506 83.9702 81.1467 83.9265 81.5609C83.928 81.5609 82.7913 92.6148 81.6309 103.894H81.6332ZM89.5608 34.0673C87.8734 37.8807 93.3781 41.7295 95.5387 37.8946C95.9694 37.2041 96.1434 36.3841 96.0304 35.5782C95.8571 34.8832 95.5118 34.2429 95.0264 33.7162C94.541 33.1895 93.9309 32.7933 93.2523 32.564C92.5589 32.3311 91.805 32.3548 91.1276 32.6306C90.4502 32.9065 89.8942 33.4163 89.5608 34.0673ZM95.1782 35.1058C95.4051 35.7015 95.4305 36.3551 95.2504 36.9666C95.0703 37.5781 94.6947 38.1136 94.1811 38.4913C93.135 39.2 91.7168 38.6846 90.9076 37.8524C87.6602 34.5137 92.8918 30.5146 95.1782 35.1058ZM89.4058 21.1711C90.3976 19.3886 90.2434 17.8063 88.7156 16.1772C86.4913 13.7842 83.2162 14.5097 82.2889 16.6374C80.2879 21.099 86.8495 25.7868 89.4058 21.1711ZM83.1763 16.4257C84.6168 14.5665 87.7277 15.0451 89.0922 17.8584C89.2699 18.2339 89.3641 18.6435 89.368 19.0589C89.372 19.4744 89.2857 19.8857 89.1152 20.2645C88.8752 20.9435 88.4433 21.5382 87.8719 21.9764C86.5933 22.8638 84.8469 22.2633 83.8352 21.2447C81.7543 19.1431 83.1955 16.5615 83.1763 16.4257ZM82.0381 34.9777C82.3195 35.1068 82.633 35.1492 82.9385 35.0995C83.2441 35.0498 83.528 34.9102 83.7539 34.6985C83.9637 34.4922 84.1024 34.2243 84.1497 33.9339C84.197 33.6434 84.1505 33.3455 84.017 33.0832C83.8255 32.8292 83.5659 32.6347 83.2683 32.5223C82.9707 32.4099 82.6473 32.3842 82.3357 32.4481C82.0887 32.4537 81.8504 32.5406 81.6578 32.6954C81.4652 32.8501 81.329 33.0641 81.2704 33.3041C81.0295 33.6109 81.2742 34.6226 82.0381 34.9777ZM81.8755 33.5327C81.9844 32.8777 83.2477 32.9889 83.467 33.4284C83.5273 33.5739 83.5398 33.7348 83.5029 33.8879C83.466 34.041 83.3814 34.1784 83.2615 34.2805C83.1455 34.3757 83.0078 34.4408 82.8606 34.4698C82.7133 34.4988 82.5612 34.491 82.4178 34.4469C82.2347 34.3821 82.0802 34.2551 81.9811 34.088C81.882 33.9209 81.8446 33.7244 81.8755 33.5327ZM86.6125 46.2041C87.0066 46.3627 87.4399 46.3962 87.8537 46.3002C88.2675 46.2042 88.6418 45.9832 88.9257 45.6672C89.205 45.351 89.3565 44.9421 89.3507 44.5203C89.3449 44.0984 89.1822 43.6938 88.8943 43.3854C88.5071 43.1422 88.0717 42.9861 87.6182 42.9279C87.1648 42.8698 86.704 42.911 86.2681 43.0487C84.863 43.6416 85.3017 45.6427 86.6125 46.2041Z" fill="#B26EE6"/>
<path d="M41.2455 121.322C42.7631 120.895 44.0739 119.931 44.9344 118.61C45.795 117.289 46.1467 115.701 45.9241 114.14C45.7324 113.099 44.7514 113.506 44.1846 114.257C44.7224 111.771 44.5887 109.186 43.7973 106.769C43.5189 105.92 43.0149 104.983 42.1314 104.866C41.0783 104.727 40.299 105.857 40.0666 106.897C39.8342 107.936 39.8365 109.089 39.1723 109.918C38.7298 110.462 38.3033 110.054 38.2734 109.62C38.2542 109.337 38.3585 109.062 38.3624 108.776C38.366 108.602 38.3332 108.43 38.2662 108.27C38.1993 108.11 38.0995 107.966 37.9734 107.847C37.8474 107.727 37.6977 107.636 37.5342 107.578C37.3706 107.52 37.1968 107.497 37.0238 107.51C36.8508 107.524 36.6825 107.573 36.5298 107.655C36.377 107.738 36.2432 107.851 36.1369 107.988C36.0305 108.125 35.9541 108.283 35.9124 108.451C35.8708 108.62 35.8648 108.795 35.895 108.966C35.9602 109.341 36.1933 109.666 36.2861 110.04C36.3789 110.413 36.2432 110.9 35.8674 110.97C35.6848 110.979 35.5023 110.951 35.3305 110.889C35.0364 110.824 34.7294 110.856 34.4547 110.979C34.18 111.102 33.9521 111.311 33.8046 111.573C33.6571 111.835 33.5978 112.138 33.6354 112.437C33.673 112.736 33.8056 113.014 34.0135 113.232C34.3625 113.596 34.9623 113.91 34.8503 114.402C34.2966 114.46 33.7459 114.519 33.1921 114.573C33.0809 118.3 36.8683 122.405 41.2455 121.322Z" fill="#FFD35C"/>
<path d="M40.5255 111.886C40.0561 111.886 39.8007 112.269 39.665 112.668C39.5415 113.029 39.4249 113.389 39.3091 113.753C39.1 113.475 38.8855 113.201 38.6656 112.932C38.4063 112.618 37.9684 112.367 37.6002 112.687C37.3538 112.967 37.1707 113.296 37.0633 113.652C35.7295 116.966 38.2782 120.985 39.9188 120.377C40.6389 120.06 41.2529 119.543 41.6879 118.887C42.1229 118.232 42.3608 117.465 42.3732 116.678C42.4445 115.378 41.7696 111.897 40.5255 111.886ZM39.7424 119.754C38.7246 120.137 36.584 116.947 37.6117 114.024C37.9753 113.002 38.055 113.209 38.154 113.319C38.5375 113.734 38.8558 114.218 39.2002 114.663C39.3589 114.869 39.6765 114.725 39.7424 114.52C40.3484 112.632 40.3499 112.57 40.4826 112.533C41.0041 112.391 41.6008 114.976 41.676 115.566C41.8846 117.154 41.3899 119.127 39.7424 119.754Z" fill="#FEE992"/>
<path d="M59.2308 76.5093C58.5414 72.8826 56.8573 69.519 54.3664 66.7943C51.8756 64.0695 48.6763 62.091 45.1258 61.0798C45.1949 54.6784 44.3182 48.4466 43.4461 42.2072C43.4732 42.1709 43.4927 42.1294 43.5034 42.0854C43.514 42.0414 43.5157 41.9957 43.5082 41.951C43.2651 40.3073 34.9885 41.7846 34.0129 41.8743C32.9437 41.9763 33.2275 42.4587 33.6685 42.5914C33.2242 48.9826 33.2719 55.3985 33.8112 61.7823C30.5725 63.0699 27.7478 65.2189 25.6428 67.9966C23.5377 70.7743 22.2327 74.075 21.8688 77.5411C21.505 81.0073 22.0962 84.507 23.5785 87.6613C25.0608 90.8156 27.3777 93.5043 30.2784 95.4364C44.6664 105.484 62.0687 91.7333 59.2308 76.5093ZM42.0165 41.8919C39.883 42.6655 37.5776 42.8359 35.3536 42.3843C37.5458 41.9468 39.7837 41.7814 42.0165 41.8919ZM54.1027 92.0048C52.335 94.0391 50.1334 95.6509 47.6602 96.7216C45.187 97.7923 42.5052 98.2945 39.8121 98.1914C37.1568 97.9735 34.5772 97.1983 32.2415 95.9164C29.9059 94.6345 27.8668 92.8746 26.2571 90.7516C24.6287 88.6436 23.4772 86.2073 22.8821 83.611C22.287 81.0146 22.2625 78.32 22.8102 75.7133C23.3579 73.1065 24.4648 70.6497 26.0545 68.5124C27.6443 66.3751 29.6789 64.6083 32.018 63.3339C33.9738 62.2602 34.5206 62.3798 34.4723 61.9978C33.8442 57.1221 33.9469 48.1421 34.2944 42.7947C37.1078 43.5817 40.1043 43.3988 42.8011 42.2754C45.4625 61.0667 43.97 61.4502 44.7109 61.6412C57.2596 64.7966 64.0023 80.8919 54.1027 92.0048ZM122.04 68.8816C122.112 69.147 122.434 69.3939 122.679 69.2459C122.948 69.1125 122.762 68.5894 122.543 68.3899C122.269 68.1499 121.904 68.5096 122.04 68.8816ZM122.018 72.2541L122.051 72.1704C122.072 72.1127 122.078 72.051 122.069 71.9904C122.061 71.9297 122.038 71.872 122.003 71.822C121.968 71.772 121.921 71.7312 121.866 71.7029C121.812 71.6747 121.752 71.6598 121.691 71.6596C121.648 71.6593 121.607 71.6674 121.567 71.6835C121.528 71.6995 121.493 71.7232 121.463 71.7531C121.433 71.783 121.409 71.8185 121.393 71.8577C121.377 71.8968 121.369 71.9387 121.369 71.981C121.369 72.6191 121.898 72.4941 122.018 72.2541ZM120.784 75.0099C121.168 75.332 121.188 75.3558 121.249 75.3742C121.317 75.4025 121.394 75.4061 121.465 75.3845C121.536 75.3629 121.597 75.3174 121.638 75.2557C121.679 75.1941 121.698 75.12 121.69 75.0463C121.683 74.9725 121.65 74.9035 121.598 74.8511C121.214 74.5297 121.195 74.5052 121.133 74.4875C121.065 74.4575 120.988 74.4526 120.916 74.4737C120.844 74.4947 120.782 74.5404 120.74 74.6026C120.698 74.6649 120.68 74.7398 120.688 74.8143C120.696 74.8887 120.73 74.9579 120.784 75.0099Z" fill="black"/>
<path d="M148.258 103.65C147.27 102.155 147.446 102.512 132.758 88.7244C139.488 80.4348 139.367 67.0876 129.829 62.978C124.635 60.7277 117.634 61.3183 110.46 67.4212L96.4836 19.3508C97.1179 15.9254 75.9865 21.4109 68.2852 25.1615C67.1216 25.7314 64.5484 27.0384 65.3706 28.0439C66.0387 30.4216 79.6742 79.0895 79.7387 79.2958C79.7985 79.4737 80.1582 76.1511 74.0944 127.061C73.2982 133.734 78.217 139.819 85.9827 139.174C110.969 137.089 132.404 128.259 145.819 117.911C147.933 116.268 149.355 113.893 149.807 111.254C150.258 108.615 149.706 105.902 148.258 103.65ZM135.284 68.936C137.821 73.9736 137.334 81.4618 132.887 87.5271C131.471 89.4446 128.548 92.3592 126.402 93.0196C125.897 93.1405 125.372 93.1516 124.862 93.0521C124.353 92.9527 123.871 92.7451 123.448 92.4432C123.026 92.1414 122.674 91.7524 122.415 91.3026C122.155 90.8527 121.996 90.3525 121.947 89.8358C121.941 89.382 122.034 88.9323 122.219 88.5181C122.405 88.1039 122.678 87.7351 123.021 87.4374C123.858 86.7424 124.645 85.9891 125.376 85.1832C128.447 81.6742 130.012 77.0967 129.733 72.4419C129.702 72.027 129.055 72.0232 129.086 72.4419C129.319 76.078 128.375 79.6925 126.394 82.7503C125.32 81.7471 124.246 80.7423 123.173 79.736C124.114 76.2961 126.446 67.4212 126.697 66.4333C126.717 66.3514 126.705 66.2648 126.662 66.1919C126.62 66.119 126.55 66.0658 126.469 66.0435C126.387 66.0212 126.301 66.0318 126.227 66.0728C126.153 66.1138 126.098 66.1821 126.074 66.2631C125.183 69.7452 122.87 78.3884 122.638 79.2367C120.158 76.9158 110.857 68.1844 110.717 68.064C120.698 59.3387 131.597 61.6327 135.284 68.936ZM119.688 95.724C119.031 96.3993 118.186 96.8611 117.263 97.0493C117.07 97.0877 116.744 97.1767 116.558 97.0601C116.372 96.9435 117 96.1397 117.348 95.6933C117.764 95.163 118.22 94.6656 118.712 94.2053C118.991 93.9461 118.635 93.5319 118.321 93.6976C117.511 94.1523 116.66 94.5288 115.78 94.822C115.532 94.8949 114.819 95.1779 114.605 94.9294C114.392 94.6809 114.873 94.2207 115.02 94.0734C116.228 92.8592 117.64 91.8679 119.192 91.145C119.252 91.108 119.298 91.0528 119.324 90.9875C119.35 90.9221 119.354 90.8502 119.335 90.7824C119.317 90.7145 119.278 90.6544 119.222 90.6108C119.167 90.5673 119.1 90.5427 119.029 90.5406C118.268 90.6367 117.496 90.5679 116.764 90.3389C116.534 90.2622 116.248 90.118 116.303 89.8281C116.349 89.6802 116.434 89.5477 116.55 89.4457C116.667 89.3437 116.809 89.2761 116.962 89.2506C118.371 88.9779 119.808 88.8767 121.242 88.9491C121.152 89.8912 121.363 90.8377 121.847 91.6513C122.33 92.465 123.06 93.1035 123.931 93.4744C122.997 94.9714 121.892 96.3546 120.638 97.5962C120.336 97.9291 119.988 98.2164 119.604 98.4491C119.434 98.5457 118.724 98.9093 118.756 98.5035C119.055 97.6429 119.529 96.8538 120.15 96.1865C120.421 95.8712 119.986 95.4248 119.688 95.724ZM65.8914 27.5783C65.8914 25.5074 90.2587 17.7309 95.5579 19.0555C99.58 20.397 67.7299 30.1523 65.8914 27.5783ZM147.367 115.446C146.366 116.666 145.178 117.718 143.846 118.565C130.673 127.935 115.183 133.84 99.0247 136.803C95.7726 137.4 87.9355 138.599 84.6566 138.616C83.2771 138.608 81.9142 138.316 80.6522 137.758C79.3902 137.201 78.2561 136.391 77.3202 135.378C76.3842 134.364 75.6663 133.169 75.2111 131.867C74.7558 130.565 74.5728 129.183 74.6734 127.807C74.7432 126.94 80.4535 79.5535 80.4182 79.2904C80.4075 79.2137 73.7224 55.404 73.6971 55.315C75.8048 54.7142 77.8838 54.026 79.9342 53.2503C80.3177 53.103 80.1551 52.4833 79.764 52.6267C77.7146 53.4014 75.6342 54.0896 73.523 54.6915L72.012 49.3026L76.9552 47.7801C77.3541 47.6566 77.1853 47.0331 76.785 47.1565L71.8417 48.679C71.4352 47.2302 70.4082 43.5732 70.3077 43.1935C72.8526 42.2373 75.399 41.2793 77.947 40.3196C78.3343 40.1723 78.1679 39.5526 77.7767 39.696C75.2313 40.6522 72.6849 41.6102 70.1375 42.5699L69.033 38.6307C70.2454 38.2727 71.4592 37.9135 72.6747 37.553C72.7574 37.5299 72.8274 37.4748 72.8695 37.3999C72.9116 37.325 72.9222 37.2365 72.899 37.1538C72.8758 37.0711 72.8207 37.001 72.7459 36.959C72.671 36.9169 72.5825 36.9063 72.4998 36.9295L68.8581 38.0102L66.1813 28.4573C68.1632 28.9098 73.2208 27.9158 75.2188 27.4932C81.2103 26.2383 87.0666 24.4077 92.7062 22.0268C93.8966 21.5297 95.0168 20.8786 96.038 20.0902C96.2083 20.6823 109.671 67.1068 110.026 68.1928C110.124 68.4904 110.468 68.7113 110.689 68.9169C111.495 69.6716 126.003 83.2657 126.029 83.2926C123.728 86.629 122.397 86.5193 121.613 88.3018C120.609 88.2528 119.603 88.2733 118.603 88.3632C117.654 88.4491 116.582 88.5319 116.066 89.022C115.925 89.1406 115.817 89.2928 115.751 89.4644C115.685 89.636 115.664 89.8215 115.689 90.0036C115.714 90.1857 115.785 90.3585 115.895 90.5059C116.005 90.6533 116.15 90.7705 116.317 90.8467C116.757 91.0483 117.229 91.1691 117.712 91.2033C116.702 91.7879 115.763 92.4877 114.914 93.2888C114.45 93.7267 113.714 94.4009 114.004 95.1211C114.401 96.109 116.069 95.4701 117.084 95.0283C116.354 95.9149 115.391 97.0018 116.158 97.554C116.793 98.0096 117.893 97.6062 118.607 97.2787C118.318 97.7956 117.977 98.4292 118.204 98.9139C118.294 99.0755 118.436 99.2021 118.607 99.2731C118.777 99.3441 118.967 99.3553 119.145 99.3051C119.944 99.0883 120.655 98.6264 121.178 97.9843C122.481 96.6939 123.622 95.2498 124.576 93.6838C126.424 94.1555 127.916 93.1415 129.43 91.9795C130.499 91.1563 131.482 90.2285 132.367 89.2099C147.277 103.152 146.953 102.774 147.765 104.027C148.874 105.743 149.43 107.758 149.359 109.799C149.287 111.84 148.592 113.811 147.367 115.446Z" fill="black"/>
<path d="M38.1002 30.9485C38.6334 30.538 39.0419 29.9872 39.28 29.3577C39.518 28.7282 39.5761 28.0449 39.4478 27.3843C39.3157 26.6353 38.9025 25.965 38.2925 25.5106C37.6826 25.0562 36.9221 24.852 36.1666 24.9399C35.3428 24.9399 33.6616 26.2047 33.1646 27.5477C32.7304 28.7173 33.726 30.0457 34.6755 30.6348C35.6251 31.2238 37.0732 31.5951 38.1002 30.9485ZM33.7145 28.0002C33.9068 27.4181 34.2392 26.8923 34.6824 26.4688C35.1256 26.0454 35.6661 25.7374 36.2563 25.5719C36.7809 25.5139 37.3097 25.6361 37.7557 25.9184C38.2017 26.2006 38.5385 26.6261 38.7107 27.125C38.8812 27.659 38.9037 28.2292 38.7759 28.775C38.6482 29.3207 38.3749 29.8216 37.9851 30.2245C36.7142 31.4447 33.5366 29.7742 33.7145 28.0002ZM36.6045 36.4302C36.2555 37.3253 37.0149 38.3553 37.7473 38.801C38.1204 39.0652 38.5584 39.2228 39.0143 39.257C39.4702 39.2912 39.9268 39.2006 40.3352 38.995C40.7335 38.6774 41.0352 38.2549 41.2064 37.775C41.3775 37.2952 41.4113 36.7771 41.3039 36.2791C40.8015 33.896 37.6323 33.817 36.6045 36.4302ZM40.145 38.317C39.2591 39.2481 37.0218 37.9511 37.1698 36.806C37.3133 36.4091 37.5484 36.0517 37.8562 35.7628C38.1639 35.474 38.5356 35.262 38.9408 35.1439C39.2912 35.1102 39.643 35.1929 39.9416 35.3792C40.2403 35.5656 40.4692 35.8452 40.5929 36.1748C40.7174 36.5394 40.7412 36.931 40.6617 37.308C40.5822 37.6851 40.4023 38.0337 40.1411 38.317H40.145ZM46.3668 30.8902C46.2671 30.4107 45.9945 29.9846 45.6008 29.6932C45.2071 29.4018 44.72 29.2655 44.2323 29.3102C43.7833 29.4143 43.3657 29.6239 43.014 29.9216C42.6622 30.2193 42.3865 30.5966 42.2097 31.0221C41.9029 31.8206 42.5663 32.7302 43.2214 33.126C43.552 33.3587 43.9397 33.4972 44.343 33.5265C44.7463 33.5558 45.15 33.4749 45.5108 33.2924C45.8629 33.0113 46.1295 32.6375 46.2807 32.2131C46.4319 31.7887 46.4617 31.3306 46.3668 30.8902ZM45.2861 32.6336C44.5352 33.419 42.6592 32.2953 42.7796 31.3588C42.9013 31.022 43.1009 30.7187 43.3622 30.4737C43.6234 30.2287 43.9389 30.049 44.2829 29.9491C45.7102 29.821 46.254 31.6227 45.2861 32.6336Z" fill="#FEE992"/>
<path d="M36.8877 90.9787C35.8446 91.1321 34.0207 92.9882 36.0394 94.1901C36.663 94.5621 37.6624 94.7983 38.2046 94.174C38.4648 93.8798 38.6395 93.52 38.7098 93.1336C38.7801 92.7472 38.7433 92.3489 38.6035 91.9819C38.4668 91.6499 38.2249 91.372 37.9149 91.1907C37.605 91.0095 37.2441 90.935 36.8877 90.9787ZM40.5562 73.0541C40.1876 73.1571 39.8455 73.3386 39.5533 73.586C39.2612 73.8334 39.0259 74.1409 38.8635 74.4876C38.5567 75.1188 39.181 75.9518 39.7072 76.2655C40.3307 76.6375 41.3301 76.8737 41.8724 76.2501C43.0973 74.8396 42.1109 72.8255 40.5562 73.0541ZM43.365 90.5446C42.3234 90.698 40.4995 92.5541 42.5159 93.7559C43.1402 94.1279 44.1396 94.3642 44.6819 93.7406C44.9419 93.4462 45.1165 93.0862 45.1868 92.6998C45.2571 92.3133 45.2204 91.9149 45.0807 91.5478C44.9439 91.2159 44.702 90.938 44.3921 90.7568C44.0821 90.5756 43.7213 90.501 43.365 90.5446ZM33.4324 77.8071C32.0887 78.0081 30.7763 79.9417 32.5834 81.0185C33.2077 81.3905 34.2071 81.6267 34.7493 81.0032C35.0093 80.7088 35.1838 80.3491 35.2541 79.9627C35.3244 79.5764 35.2878 79.1782 35.1482 78.8111C35.012 78.4787 34.7703 78.2003 34.4602 78.0188C34.1501 77.8374 33.789 77.763 33.4324 77.8071ZM41.4429 65.4885C41.2496 65.5424 41.0703 65.6375 40.9173 65.7673C40.7643 65.897 40.6411 66.0583 40.5562 66.2401C40.3975 66.573 40.7227 67.0071 41.0019 67.1736C41.3309 67.3714 41.854 67.4911 42.1408 67.1659C42.2866 67.0315 42.3876 66.8556 42.4301 66.6619C42.4726 66.4683 42.4545 66.2662 42.3783 66.0832C42.3021 65.9001 42.1716 65.7449 42.0042 65.6385C41.8369 65.5322 41.641 65.4798 41.4429 65.4885Z" fill="#ACEAC7"/>
<path d="M72.6632 59.3555C72.0496 59.39 71.4314 59.4176 70.8224 59.4529V50.562C70.8183 50.4789 70.7825 50.4007 70.7223 50.3433C70.6621 50.286 70.5822 50.254 70.4991 50.254C70.416 50.254 70.336 50.286 70.2759 50.3433C70.2157 50.4007 70.1798 50.4789 70.1758 50.562V59.4874C49.0513 60.6188 28.542 60.9654 7.76571 60.5528V24.212C7.76166 24.129 7.72583 24.0507 7.66565 23.9934C7.60546 23.936 7.52553 23.9041 7.44242 23.9041C7.3593 23.9041 7.27937 23.936 7.21919 23.9934C7.159 24.0507 7.12318 24.129 7.11913 24.212V60.5382C6.2624 60.5229 5.40644 60.5114 4.55048 60.4914C4.46463 60.4914 4.38231 60.5255 4.32161 60.5862C4.26091 60.6469 4.22681 60.7293 4.22681 60.8151C4.22681 60.9009 4.26091 60.9833 4.32161 61.044C4.38231 61.1047 4.46463 61.1388 4.55048 61.1388C5.40644 61.1579 6.2624 61.1694 7.11913 61.1886V135.645C7.12032 135.731 7.15494 135.813 7.21565 135.874C7.27636 135.935 7.35839 135.97 7.44434 135.971C65.3315 135.994 70.2847 135.971 70.4995 135.971C70.5856 135.97 70.6678 135.935 70.7287 135.874C70.7895 135.813 70.8243 135.731 70.8254 135.645V60.0995C71.439 60.065 72.0572 60.0374 72.6662 60.0029C73.0773 59.9837 73.0812 59.3325 72.6632 59.3555ZM70.1566 135.32H56.551C56.8107 132.073 57.0692 128.827 57.3264 125.579C57.3954 124.671 57.1975 124.268 55.9972 124.115C45.0415 122.741 33.947 123.609 22.9521 124.582C21.807 124.676 21.6099 125.109 21.794 126.031C22.3984 128.998 22.9713 132.326 23.5757 135.321C2.00867 135.278 9.29509 135.244 7.76647 135.298V61.2063C29.2537 61.6227 49.4502 61.2469 70.175 60.1409C70.172 133 70.1513 135.236 70.1566 135.32Z" fill="#E59E70"/>
<path d="M141.095 56.7756C140.578 56.7999 140.063 56.7101 139.585 56.5125C139.282 56.2973 139.045 56.0013 138.902 55.6583C138.759 55.3152 138.715 54.9389 138.775 54.572C138.891 53.2613 139.937 51.7495 139.039 49.3887C138.358 47.6185 137.391 48.0265 136.977 47.6377C136.796 47.3875 136.692 47.0895 136.679 46.7809C136.575 46.4013 136.381 46.0522 136.114 45.7626C135.847 45.473 135.515 45.2513 135.146 45.1158C133.842 44.5981 131.321 44.799 130.152 45.8828C129.849 44.6196 128.37 44.0037 127.071 44.0037C124.573 44.0037 123.45 45.3152 122.098 45.9871C120.285 46.8791 119.537 46.0055 119.03 45.8866C118.31 45.7156 117.636 46.4596 117.586 47.1997C117.61 47.9441 117.849 48.6656 118.276 49.276C117.71 49.3517 117.193 49.6352 116.824 50.0712C116.456 50.5072 116.263 51.0647 116.282 51.6352C116.33 52.2054 116.537 52.7507 116.879 53.209C117.222 53.6672 117.686 54.0199 118.22 54.2269C118.816 54.4708 120.495 54.7638 121.262 54.299C121.14 53.5044 121.22 52.6917 121.496 51.9365C121.771 51.1813 122.233 50.508 122.839 49.9793C122.882 49.9423 122.932 49.9155 122.986 49.9007C123.041 49.886 123.098 49.8837 123.153 49.8942C125.386 50.2567 127.586 50.8021 129.731 51.5248C131.936 52.1961 134.005 53.2547 135.84 54.651C135.879 54.6914 135.908 54.7413 135.924 54.7958C135.939 54.8504 135.94 54.908 135.927 54.9632C135.836 55.4784 135.689 55.9822 135.489 56.4657C135.336 57.1767 134.952 57.817 134.397 58.2866C134.24 59.0482 136.602 60.7992 139.808 60.1189C142.851 59.4647 143.456 56.9535 141.095 56.7756Z" fill="#FFD35C"/>
<path d="M133.537 58.9873C132.773 59.3752 131.901 59.4953 131.06 59.3284C130.219 59.1615 129.459 58.7173 128.901 58.0669C128.323 57.4211 128.23 56.9256 127.944 56.6219C127.368 56.0152 126.647 56.49 125.782 56.7462C124.913 57.0389 123.965 56.9813 123.138 56.5856C122.311 56.1898 121.671 55.4871 121.354 54.627C120.764 56.1703 120.786 57.8811 121.418 59.4082C122.049 60.9354 123.24 62.163 124.748 62.8391C124.713 63.1567 124.698 63.4205 124.689 63.5248C124.656 64.0581 124.835 64.5828 125.187 64.9849C125.539 65.3869 126.035 65.634 126.568 65.6724C127.932 65.7307 128.567 64.3785 128.997 63.3016C128.997 63.2863 129.017 63.251 129.032 63.2012C130.073 62.9269 131.03 62.3983 131.816 61.6628C132.603 60.9273 133.194 60.0079 133.537 58.9873Z" fill="#E59E70"/>
<path d="M125.104 53.7965C124.979 53.7082 124.832 53.6587 124.679 53.6545C124.526 53.6502 124.376 53.6912 124.246 53.7725C124.117 53.8537 124.015 53.9714 123.952 54.1108C123.89 54.2502 123.87 54.4049 123.896 54.5555C123.921 54.7061 123.991 54.8457 124.096 54.9567C124.2 55.0678 124.336 55.1453 124.485 55.1794C124.634 55.2135 124.789 55.2027 124.932 55.1484C125.075 55.094 125.198 54.9986 125.287 54.8742C125.405 54.7068 125.452 54.4996 125.417 54.2977C125.383 54.0958 125.271 53.9157 125.104 53.7965ZM131.706 56.3107C131.581 56.2215 131.433 56.1713 131.28 56.1665C131.127 56.1617 130.976 56.2024 130.846 56.2836C130.716 56.3647 130.613 56.4826 130.55 56.6223C130.487 56.762 130.467 56.9173 130.493 57.0683C130.519 57.2193 130.588 57.3593 130.694 57.4706C130.799 57.5818 130.935 57.6593 131.084 57.6932C131.234 57.7271 131.39 57.7158 131.533 57.6609C131.676 57.6059 131.799 57.5097 131.887 57.3845C132.005 57.2178 132.052 57.0113 132.018 56.8102C131.984 56.6091 131.871 56.4295 131.706 56.3107ZM131.712 54.4907C132.082 54.5849 132.427 54.7602 132.722 55.004C133.017 55.2478 133.253 55.554 133.415 55.9004C133.426 55.9286 133.443 55.9543 133.464 55.9759C133.486 55.9974 133.511 56.0144 133.539 56.0257C133.567 56.0371 133.597 56.0425 133.628 56.0418C133.658 56.0411 133.688 56.0342 133.715 56.0215C133.743 56.0089 133.767 55.9907 133.788 55.9682C133.808 55.9456 133.823 55.9192 133.833 55.8904C133.843 55.8617 133.847 55.8313 133.844 55.8011C133.842 55.7709 133.833 55.7415 133.819 55.7148C133.637 55.2892 133.354 54.9148 132.994 54.6243C132.634 54.3338 132.208 54.1362 131.754 54.0489C131.465 53.9791 131.387 54.4669 131.712 54.4907ZM126.359 51.6413C125.951 51.486 125.506 51.4532 125.08 51.5468C124.653 51.6404 124.263 51.8563 123.957 52.1682C123.753 52.3623 124.016 52.7534 124.252 52.5134C124.503 52.2679 124.817 52.0962 125.159 52.0169C125.501 51.9376 125.859 51.9539 126.192 52.0639C126.419 52.228 126.619 51.7594 126.359 51.6413ZM129.497 59.414C127.893 58.8173 126.255 58.2635 124.651 57.6668C124.618 57.6547 124.583 57.6496 124.548 57.652C124.514 57.6544 124.48 57.6641 124.449 57.6806C124.418 57.697 124.391 57.7198 124.37 57.7475C124.349 57.7751 124.334 57.8069 124.326 57.8409C124.147 59.934 125.88 61.5685 127.723 61.0622C128.378 60.8789 129.978 59.7545 129.497 59.414ZM127.733 60.6611C126.386 61.1382 124.958 60.036 124.836 58.2673C126.231 58.7828 127.652 59.2514 129.047 59.7668C128.666 60.1425 128.22 60.4456 127.73 60.6611H127.733Z" fill="black"/>
<path d="M135.833 54.6473C132.918 52.2435 127.966 50.807 124.251 50.0837C123.05 49.8536 122.973 49.8475 122.833 49.9756C122.227 50.5043 121.765 51.1775 121.489 51.9328C121.214 52.688 121.133 53.5007 121.256 54.2953C121.374 54.7641 121.587 55.2034 121.884 55.5854C122.18 55.9674 122.552 56.2837 122.977 56.5144C123.402 56.7451 123.87 56.8851 124.351 56.9256C124.833 56.9661 125.318 56.9062 125.775 56.7496C126.642 56.4935 127.36 56.0187 127.936 56.6261C128.243 56.9506 128.262 57.3509 128.893 58.0712C129.451 58.722 130.212 59.1665 131.053 59.3334C131.894 59.5003 132.767 59.3799 133.531 58.9915C134.865 58.1908 135.67 56.4006 135.909 54.9702C135.926 54.9145 135.928 54.8551 135.915 54.7983C135.902 54.7415 135.873 54.6893 135.833 54.6473ZM132.186 58.7829C131.492 58.8285 130.8 58.6644 130.201 58.3121C129.601 57.9598 129.121 57.4355 128.823 56.8071C128.722 56.5643 128.572 56.3447 128.383 56.1616C128.193 55.9785 127.969 55.8356 127.723 55.7418C127.015 55.5117 126.302 55.9159 125.636 56.1138C122.322 57.0978 120.343 53.3357 123.171 50.5508C126.866 51.1314 132.298 52.6876 135.243 55.0178C134.928 56.5939 133.971 58.6479 132.186 58.7829Z" fill="black"/>
<path d="M86.8872 115.961C85.2252 116.21 83.5286 117.933 82.816 119.409C82.0836 120.927 83.583 122.93 84.8493 123.689C86.3488 124.584 88.7549 125.15 90.0603 123.655C90.688 122.947 91.1092 122.081 91.2779 121.151C91.4465 120.22 91.3562 119.261 91.0167 118.379C90.6892 117.578 90.1074 116.908 89.3611 116.471C88.6148 116.034 87.7455 115.855 86.8872 115.961ZM86.4263 109.643C88.3392 110.597 89.6791 108.163 88.6229 106.714C88.3917 106.395 88.066 106.157 87.6919 106.033C87.3178 105.909 86.9142 105.906 86.5383 106.024C86.1449 106.128 85.7957 106.357 85.5426 106.676C85.2895 106.995 85.146 107.387 85.1334 107.793C85.1208 108.2 85.2398 108.6 85.4728 108.934C85.7057 109.268 86.0401 109.518 86.4263 109.646V109.643ZM97.9127 117.975C97.5123 118.236 97.189 118.599 96.9765 119.027C96.7639 119.455 96.6698 119.932 96.704 120.409C96.8006 123.17 101.028 124.08 102.371 121.737C103.883 119.125 100.034 116.671 97.9127 117.975ZM89.169 79.3295C86.4999 79.6578 85.9185 83.9361 87.8437 85.4386C88.3859 85.8239 89.0384 86.0231 89.7034 86.0063C90.3683 85.9896 91.01 85.7579 91.5321 85.3458C92.0922 84.8884 92.4905 84.2631 92.6684 83.5622C92.8462 82.8612 92.7942 82.1217 92.52 81.4526C92.2674 80.7831 91.8039 80.2139 91.1994 79.8309C90.5949 79.448 89.8823 79.272 89.169 79.3295ZM106.17 79.3802C105.922 77.0684 102.408 76.0898 101.893 78.6899C101.861 78.7126 101.834 78.7432 101.817 78.7788C101.636 79.1967 101.587 79.6599 101.676 80.1064C101.766 80.5528 101.99 80.9611 102.319 81.2765C102.647 81.5919 103.064 81.7993 103.514 81.8708C103.964 81.9423 104.425 81.8745 104.835 81.6765C105.261 81.4701 105.615 81.1413 105.853 80.7322C106.091 80.3231 106.201 79.8524 106.17 79.3802ZM92.958 69.3778C91.5099 69.4131 91.0175 70.5774 91.5866 71.3068C91.6111 71.3376 91.643 71.3617 91.6794 71.3766C91.7169 71.6923 91.8335 71.9934 92.0184 72.2521C92.2033 72.5107 92.4505 72.7185 92.7371 72.8561C94.311 73.6085 95.6563 71.8744 95.0266 70.4547C94.8207 70.0962 94.5165 69.8043 94.1499 69.6135C93.7833 69.4226 93.3696 69.3408 92.958 69.3778Z" fill="#DCBEFF"/>
<path d="M119.688 95.724C119.031 96.3994 118.186 96.8612 117.263 97.0494C117.07 97.0878 116.744 97.1767 116.558 97.0601C116.373 96.9436 117 96.1398 117.348 95.6934C117.764 95.1631 118.22 94.6656 118.712 94.2054C118.991 93.9462 118.635 93.532 118.321 93.6977C117.511 94.1524 116.661 94.5289 115.78 94.8221C115.532 94.8949 114.819 95.178 114.605 94.9294C114.392 94.6809 114.873 94.2207 115.02 94.0735C116.228 92.8593 117.64 91.868 119.192 91.1451C119.252 91.1081 119.298 91.0529 119.324 90.9875C119.35 90.9222 119.354 90.8503 119.336 90.7824C119.317 90.7146 119.278 90.6544 119.223 90.6109C119.167 90.5674 119.1 90.5427 119.029 90.5407C118.268 90.6368 117.496 90.568 116.764 90.339C116.534 90.2623 116.248 90.1181 116.304 89.8282C116.349 89.6802 116.434 89.5478 116.55 89.4458C116.667 89.3437 116.809 89.2762 116.962 89.2506C118.371 88.978 119.808 88.8767 121.242 88.9492C121.152 89.8913 121.364 90.8378 121.847 91.6514C122.331 92.465 123.061 93.1036 123.931 93.4745C122.997 94.9715 121.892 96.3547 120.638 97.5963C120.336 97.9291 119.988 98.2164 119.604 98.4492C119.434 98.5458 118.724 98.9094 118.756 98.5036C119.055 97.6429 119.53 96.8539 120.15 96.1865C120.421 95.8713 119.986 95.4249 119.688 95.724Z" fill="#E59E70"/>
</svg>
