<svg width="154" height="154" viewBox="0 0 154 154" fill="none" xmlns="http://www.w3.org/2000/svg">
<path d="M11.7013 101.714C11.7105 101.136 11.7213 100.558 11.7382 99.9802C11.7283 99.9065 11.6921 99.8388 11.6362 99.7898C11.5802 99.7409 11.5084 99.7139 11.434 99.7139C11.3597 99.7139 11.2879 99.7409 11.2319 99.7898C11.176 99.8388 11.1398 99.9065 11.1299 99.9802C11.086 101.654 11.0619 103.329 11.0578 105.004C11.0402 108.574 11.0839 112.145 11.2496 115.71C11.3439 117.73 11.4759 119.749 11.7029 121.759C11.7466 122.142 12.3548 122.148 12.3111 121.759C11.8977 118.102 11.7688 114.411 11.7013 110.733C11.6471 107.73 11.6471 104.723 11.7013 101.714ZM22.8856 102.783C21.7795 105.887 19.6996 108.55 16.956 110.376L16.8126 110.464C16.6674 108.519 16.5227 106.572 16.3785 104.626L16.3133 103.741C16.2841 103.353 15.6759 103.35 15.705 103.741L16.176 110.08L16.2412 110.964C16.2418 111.018 16.2564 111.07 16.2835 111.116C16.3107 111.163 16.3495 111.201 16.396 111.227C16.4426 111.254 16.4952 111.268 16.5488 111.268C16.6024 111.268 16.655 111.253 16.7014 111.227C17.305 110.91 17.8732 110.529 18.3964 110.092C19.7071 109.043 20.8406 107.79 21.7535 106.381C22.4528 105.303 23.03 104.15 23.4747 102.944C23.6097 102.577 23.0221 102.418 22.8856 102.783ZM16.1614 112.901V124.337C16.1718 124.41 16.2083 124.477 16.2641 124.525C16.3199 124.574 16.3913 124.6 16.4651 124.6C16.539 124.6 16.6104 124.574 16.6662 124.525C16.722 124.477 16.7584 124.41 16.7689 124.337V112.901C16.7584 112.828 16.722 112.761 16.6662 112.712C16.6104 112.664 16.539 112.637 16.4651 112.637C16.3913 112.637 16.3199 112.664 16.2641 112.712C16.2083 112.761 16.1718 112.828 16.1614 112.901Z" fill="#F55555"/>
<path d="M40.1698 84.0277C40.1698 84.0277 37.0251 63.5237 29.2179 60.5769L29.2064 60.863C29.2044 61.2201 29.177 61.5766 29.1244 61.9299C29.5188 61.8727 29.9199 61.973 30.2411 62.2091C30.5308 62.4898 30.7196 62.8584 30.778 63.2575C30.8864 63.7187 30.9319 64.1924 30.913 64.6657C30.8746 65.6628 30.653 66.6599 30.5295 67.657C30.406 68.6541 30.3117 69.6427 30.2196 70.6352C29.9044 74.0192 29.6559 77.44 28.6856 80.7143C27.8972 83.3842 26.67 86.14 24.5439 88.0191C23.4541 89.0414 22.0779 89.7061 20.5997 89.9242C19.1215 90.1423 17.612 89.9033 16.2734 89.2394C14.8579 88.3933 13.7124 87.1619 12.9707 85.689C12.2781 84.3736 11.7237 82.99 11.3163 81.5603C11.3041 81.5802 11.2903 81.6001 11.2788 81.6201C11.2515 81.6653 11.2129 81.7028 11.1669 81.7288C11.1209 81.7547 11.0689 81.7684 11.0161 81.7684C10.9632 81.7684 10.9113 81.7547 10.8652 81.7288C10.8192 81.7028 10.7807 81.6653 10.7534 81.6201C10.6278 81.355 10.5229 81.0807 10.4397 80.7994C10.211 80.0574 10.0614 79.2933 9.99329 78.5199C9.10434 87.2022 9.3935 98.9318 10.3952 100.816C11.2136 102.356 21.6147 104.065 29.9182 100.139L29.9029 96.2781L29.8906 93.6764C29.89 93.6315 29.8998 93.5871 29.9192 93.5465C29.9385 93.506 29.9669 93.4704 30.0022 93.4426C30.0375 93.4148 30.0787 93.3955 30.1227 93.3862C30.1666 93.3768 30.2121 93.3777 30.2557 93.3888L30.3193 93.3474C31.1937 92.7793 32.0696 92.2135 32.947 91.65C34.6671 90.545 36.3911 89.4457 38.1189 88.352C38.77 87.9393 39.4228 87.5305 40.0762 87.1202C40.2031 86.0945 40.2345 85.0592 40.1698 84.0277Z" fill="#FCAFB7"/>
<path d="M11.0799 80.7895L11.0945 80.8287C11.1106 80.808 11.1282 80.7888 11.1451 80.7681C11.1672 80.7138 11.2059 80.668 11.2555 80.6369C11.5602 80.3041 11.891 79.9963 12.245 79.7165C13.5007 78.7346 14.8431 77.869 16.2556 77.1302C16.9886 76.7263 17.734 76.3452 18.4906 75.9874C19.0908 73.9494 19.5664 71.8767 19.9149 69.7809C20.0517 68.713 20.2882 67.6601 20.6213 66.6363C20.8516 66.0273 21.1395 65.4418 21.4811 64.8875C20.875 64.8496 20.2791 64.713 19.717 64.4833C19.4172 64.3456 19.1528 64.1411 18.9442 63.8854C18.7357 63.6298 18.5883 63.3298 18.5136 63.0084C18.4818 62.8738 18.4574 62.7376 18.4407 62.6003C16.2747 63.9855 14.4498 65.8424 13.1025 68.0322C13.1367 68.0507 13.1668 68.076 13.191 68.1066C13.2151 68.1372 13.2327 68.1724 13.2428 68.21C13.2528 68.2476 13.2551 68.2869 13.2494 68.3254C13.2438 68.364 13.2303 68.4009 13.2098 68.4341C12.3287 69.9144 11.6373 71.4997 11.152 73.1526C10.5699 75.0962 10.4129 77.1424 10.6918 79.152C10.7752 79.7078 10.905 80.2555 11.0799 80.7895Z" fill="#FCAFB7"/>
<path d="M20.5924 64.14C21.0088 64.2286 21.4305 64.2898 21.8549 64.3233C21.983 64.1415 22.1157 63.9628 22.2553 63.7864C22.485 63.4985 22.7314 63.2242 22.9931 62.9649C23.1227 62.8369 23.2823 62.7249 23.4042 62.5891C23.4777 62.4864 23.5364 62.3738 23.5783 62.2547C23.7206 61.9296 23.8383 61.5942 23.9304 61.2515C24.0071 60.9769 24.0792 60.6992 24.152 60.4224C22.3432 60.7215 20.6027 61.3426 19.0132 62.2562C19.0248 62.5362 19.0764 62.8131 19.1666 63.0785C19.2921 63.3636 19.4895 63.6113 19.7394 63.7974C19.9893 63.9835 20.2832 64.1015 20.5924 64.14ZM28.0376 62.3513C28.1652 62.2531 28.3046 62.1711 28.4525 62.1074C28.5421 61.8192 28.5864 61.5188 28.5837 61.217L28.6159 60.3924C28.3363 60.3214 28.0513 60.2734 27.7638 60.249C27.8938 61.0802 27.8728 61.928 27.7017 62.7517C27.783 62.5953 27.8977 62.4587 28.0376 62.3513Z" fill="#FCAFB7"/>
<path d="M61.1109 41.111C60.6671 41.0381 60.2119 41.1271 59.8282 41.3616C59.4444 41.5961 59.1577 41.9606 59.0201 42.3888C58.8003 42.8961 58.7019 43.4476 58.7325 43.9996C58.7631 44.5516 58.922 45.0888 59.1965 45.5687C59.3839 45.9587 59.7126 46.2629 60.1159 46.4195C60.5192 46.5762 60.9671 46.5737 61.3686 46.4124C61.8061 46.1399 62.1618 45.7542 62.3981 45.2961C62.6344 44.838 62.7424 44.3245 62.7108 43.81C62.7008 42.7677 62.2353 41.4254 61.1109 41.111Z" fill="#ACEAC7"/>
<path d="M81.4211 35.3476L80.2207 6.30697C80.1617 5.85579 79.9951 5.42543 79.7349 5.05215C79.4747 4.67888 79.1285 4.37365 78.7256 4.1622C78.3227 3.95075 77.8749 3.83928 77.4199 3.83719C76.9649 3.8351 76.516 3.94245 76.1112 4.15019L33.251 26.2633C32.7444 26.5221 32.3272 26.9272 32.0537 27.426C31.7802 27.9248 31.6629 28.4942 31.717 29.0605L32.2615 63.2522C32.4702 65.4328 36.1118 67.1578 37.8905 65.8792L80.2606 38.0228C80.678 37.7236 81.0064 37.3168 81.2108 36.8457C81.4151 36.3745 81.4878 35.8568 81.4211 35.3476ZM61.2155 47.114C60.6499 47.2095 60.0687 47.1047 59.5721 46.8176C59.0755 46.5306 58.6946 46.0794 58.4949 45.5416C58.2147 44.9251 58.0892 44.2495 58.1293 43.5734C58.1694 42.8974 58.3739 42.2413 58.725 41.6622C59.0004 41.1682 59.4481 40.7929 59.9826 40.608C60.5171 40.4231 61.101 40.4415 61.6227 40.6597C62.1673 40.9796 62.6136 41.4429 62.9128 41.9991C63.212 42.5552 63.3526 43.1829 63.3193 43.8136C63.3063 45.1482 62.6459 46.7681 61.2155 47.114Z" fill="#ACEAC7"/>
<path d="M69.3247 107.19C70.8387 106.146 72.3619 105.105 73.9381 104.158C74.1398 104.036 74.3439 103.916 74.5517 103.805C74.6284 103.764 74.7051 103.728 74.7818 103.687L74.8202 103.671C74.8452 103.661 74.8708 103.652 74.8969 103.645C74.965 103.616 75.0202 103.563 75.0523 103.496C75.0845 103.429 75.0913 103.353 75.0715 103.282C75.0518 103.21 75.0068 103.148 74.945 103.107C74.8831 103.067 74.8085 103.049 74.735 103.059C74.4204 103.172 74.1207 103.322 73.8422 103.507C73.3721 103.783 72.9119 104.075 72.454 104.37C71.5082 104.983 70.5693 105.607 69.6376 106.241C69.4295 106.382 69.2221 106.524 69.0156 106.666C68.6973 106.885 69.001 107.412 69.3247 107.19ZM75.3179 113.357C75.3946 113.316 75.4713 113.28 75.548 113.24L75.5864 113.223C75.6109 113.214 75.6355 113.205 75.6631 113.197C75.7312 113.168 75.7865 113.115 75.8186 113.048C75.8507 112.982 75.8575 112.905 75.8378 112.834C75.818 112.762 75.7731 112.7 75.7112 112.66C75.6493 112.619 75.5747 112.602 75.5012 112.611C75.1867 112.724 74.887 112.875 74.6085 113.059C74.1383 113.335 73.6781 113.628 73.2202 113.922C72.0638 114.672 70.9178 115.437 69.7826 116.218C69.462 116.439 69.7657 116.966 70.0894 116.743C71.6034 115.7 73.1266 114.659 74.7028 113.711C74.9045 113.592 75.1078 113.468 75.3179 113.357ZM110.781 130.115C112.295 129.072 113.819 128.03 115.394 127.083C115.596 126.961 115.801 126.841 116.008 126.73C116.084 126.69 116.161 126.654 116.238 126.613L116.275 126.596C116.3 126.586 116.326 126.577 116.352 126.571C116.421 126.542 116.477 126.489 116.509 126.422C116.542 126.355 116.549 126.278 116.529 126.206C116.51 126.134 116.464 126.072 116.402 126.031C116.339 125.99 116.264 125.973 116.19 125.984C115.876 126.097 115.576 126.248 115.297 126.433C114.827 126.708 114.367 127 113.908 127.295C112.962 127.907 112.023 128.531 111.093 129.166C110.885 129.307 110.677 129.449 110.471 129.591C110.154 129.81 110.458 130.337 110.781 130.115ZM116.957 135.535C116.643 135.648 116.343 135.799 116.064 135.983C115.594 136.259 115.134 136.551 114.676 136.846C113.729 137.458 112.791 138.081 111.86 138.717C111.653 138.858 111.445 138.999 111.238 139.142C110.918 139.363 111.222 139.889 111.545 139.667C113.059 138.624 114.583 137.582 116.159 136.635C116.36 136.513 116.564 136.394 116.772 136.282C116.849 136.242 116.926 136.206 117.002 136.165L117.041 136.148C117.066 136.138 117.091 136.13 117.117 136.123C117.187 136.094 117.243 136.042 117.276 135.974C117.309 135.907 117.317 135.83 117.297 135.758C117.277 135.686 117.232 135.623 117.169 135.582C117.107 135.541 117.031 135.525 116.957 135.535ZM110.653 75.5489C110.339 75.6614 110.039 75.8119 109.76 75.9968C109.292 76.275 108.829 76.5627 108.371 76.8597C107.423 77.4733 106.488 78.0968 105.556 78.7304C105.348 78.8715 105.141 79.0131 104.934 79.1553C104.613 79.3762 104.917 79.9031 105.241 79.6807C106.755 78.6375 108.279 77.5967 109.854 76.6487C110.057 76.5268 110.26 76.4071 110.468 76.2959C110.544 76.2553 110.621 76.2192 110.698 76.1793L110.736 76.1617C110.761 76.1525 110.786 76.1441 110.813 76.1364C110.882 76.1079 110.938 76.0553 110.971 75.9882C111.004 75.9212 111.012 75.8444 110.992 75.7723C110.973 75.7002 110.927 75.6377 110.865 75.5965C110.802 75.5554 110.727 75.5384 110.653 75.5489ZM111.417 85.0995C111.103 85.212 110.803 85.3624 110.524 85.5474C110.056 85.8257 109.593 86.1134 109.135 86.4102C108.188 87.0238 107.252 87.6474 106.32 88.2809C106.112 88.4221 105.904 88.5637 105.698 88.7058C105.378 88.9267 105.682 89.4537 106.004 89.2312C107.519 88.1881 109.043 87.1473 110.618 86.1993C110.82 86.0781 111.024 85.9577 111.232 85.8465C111.308 85.8059 111.385 85.7698 111.462 85.7299L111.5 85.7123C111.524 85.7031 111.549 85.6946 111.577 85.687C111.646 85.6585 111.702 85.6058 111.735 85.5388C111.768 85.4718 111.776 85.395 111.756 85.3229C111.736 85.2507 111.691 85.1882 111.629 85.1471C111.566 85.106 111.491 85.089 111.417 85.0995ZM63.9849 90.4047L59.7664 88.3484L57.2476 87.1212C56.8012 87.2693 56.3747 87.4715 55.9775 87.7233C54.1283 88.7526 52.3573 89.9422 50.6162 91.1495L51.2244 91.4486L55.7612 93.6828L58.4411 95.0021L59.1313 94.5104L64.521 90.6701L63.9849 90.4047ZM104.099 114.129C104.119 113.592 103.984 113.062 103.711 112.6C103.438 112.139 103.037 111.765 102.558 111.525C101.732 111.077 100.824 110.8 99.8893 110.709C98.1303 110.456 96.3362 110.75 94.7504 111.552C93.9455 111.956 93.3253 112.652 93.017 113.498C92.8452 113.992 92.8536 114.532 93.0408 115.021C93.252 115.486 93.5819 115.887 93.9972 116.185C94.9718 116.869 96.1059 117.292 97.2907 117.412C98.1923 117.546 99.1066 117.572 100.014 117.489C100.922 117.427 101.801 117.149 102.579 116.678C103.011 116.398 103.372 116.022 103.636 115.58C103.899 115.138 104.058 114.641 104.099 114.129ZM93.1121 66.9333L93.8484 66.4731L98.1796 63.7686L100.206 62.5039L99.6216 62.3988C97.5824 62.0342 95.5417 61.6763 93.4995 61.325C92.4909 61.1517 91.4815 60.9799 90.4706 60.8157C90.0871 60.7528 89.6975 60.6915 89.3109 60.634L89.2127 60.6194L89.3393 60.8219C90.6018 62.8521 91.8849 64.8754 93.1121 66.9333Z" fill="#DCBEFF"/>
<path d="M143.774 77.0612C141.271 75.9153 138.757 74.7927 136.232 73.6933C135.624 73.4287 135.015 73.1641 134.405 72.9041C134.297 72.8523 134.178 72.8261 134.059 72.8274C133.939 72.8288 133.821 72.8576 133.715 72.9118C133.392 73.059 133.082 73.237 132.769 73.4027C131.58 74.0381 130.404 74.6963 129.241 75.3769C125.828 77.3611 122.459 79.422 119.111 81.5128C119.182 78.7762 119.177 76.0365 119.178 73.2999C119.178 70.4293 119.171 67.5584 119.157 64.6873L119.147 62.9163C119.148 62.877 119.14 62.8379 119.125 62.8015C119.11 62.7651 119.088 62.7321 119.06 62.7046C119.031 62.6772 118.998 62.6557 118.961 62.6416C118.924 62.6275 118.885 62.621 118.846 62.6226C118.831 62.6071 118.814 62.5932 118.797 62.5812C117.071 61.4543 115.285 60.4217 113.448 59.4879C111.179 58.2952 108.876 57.1662 106.56 56.0656C104.31 54.9918 102.046 53.9454 99.7682 52.9263C98.0579 52.1557 96.3424 51.3956 94.6217 50.646C94.1431 50.4374 93.6638 50.23 93.1836 50.024L92.8323 49.8706C92.8078 49.8598 92.7833 49.8483 92.7556 49.8391C92.6861 49.8138 92.6115 49.8059 92.5382 49.8161C92.465 49.8262 92.3953 49.8542 92.3353 49.8974C90.5222 50.8247 88.7558 51.844 86.9994 52.8741C84.8201 54.1566 82.655 55.4632 80.5045 56.7934C78.34 58.128 76.1843 59.4759 74.0372 60.837C72.3094 61.9302 70.5855 63.0296 68.8654 64.1351C67.988 64.6976 67.112 65.2633 66.2377 65.8324L66.1733 65.8739C66.1297 65.8628 66.0842 65.8619 66.0403 65.8712C65.9963 65.8806 65.9551 65.8999 65.9198 65.9277C65.8845 65.9555 65.8561 65.991 65.8367 66.0316C65.8174 66.0721 65.8076 66.1166 65.8082 66.1615L65.8212 68.7631C65.8314 70.9731 65.8401 73.1825 65.8473 75.3915C65.8534 77.378 65.858 79.3645 65.8611 81.351C65.1907 81.0442 64.5219 80.7374 63.85 80.4344C62.1396 79.6633 60.4241 78.9033 58.7035 78.1542C58.2244 77.9455 57.745 77.7382 57.2654 77.5321L56.9134 77.3787C56.8888 77.368 56.8643 77.3565 56.8367 77.3473C56.767 77.322 56.6923 77.3141 56.6189 77.3242C56.5455 77.3344 56.4757 77.3623 56.4156 77.4056C54.6024 78.3321 52.836 79.3522 51.0804 80.3823C48.9011 81.6648 46.736 82.9713 44.5855 84.3016C43.0771 85.2312 41.5735 86.1685 40.0748 87.1134C39.4221 87.5237 38.7709 87.9325 38.1175 88.3452C36.3897 89.4384 34.6658 90.5378 32.9456 91.6432C32.0687 92.2057 31.1928 92.7715 30.3179 93.3406L30.2543 93.382C30.2107 93.371 30.1652 93.3701 30.1213 93.3794C30.0773 93.3887 30.0361 93.408 30.0008 93.4358C29.9655 93.4636 29.9371 93.4992 29.9178 93.5397C29.8984 93.5803 29.8886 93.6247 29.8892 93.6696L29.9015 96.2713C29.9076 97.5583 29.9127 98.8453 29.9168 100.132C29.9209 101.053 29.9245 101.975 29.9275 102.9C29.9372 105.834 29.9442 108.769 29.9482 111.703C29.9518 114.777 29.9505 117.851 29.9444 120.925C29.9383 123.516 29.9275 126.105 29.8984 128.695L29.8892 129.462C29.8889 129.512 29.9012 129.562 29.9251 129.606C29.949 129.65 29.9837 129.687 30.0259 129.714C30.0681 129.741 30.1164 129.757 30.1664 129.76C30.2164 129.763 30.2664 129.754 30.3118 129.733C30.772 130.015 31.235 130.294 31.7008 130.571C33.0154 131.36 34.3344 132.139 35.6577 132.91C37.4903 133.979 39.3311 135.031 41.1801 136.068C43.2376 137.22 45.3103 138.345 47.3981 139.443C49.3876 140.482 51.3941 141.492 53.4351 142.426C54.3314 142.838 55.2372 143.23 56.1517 143.6C56.7372 143.837 57.329 144.057 57.9266 144.261C58.0178 144.292 58.1252 144.338 58.2334 144.372C58.2714 144.41 58.3187 144.439 58.3709 144.454C58.4231 144.469 58.4783 144.47 58.5311 144.458C58.584 144.445 58.6327 144.419 58.6726 144.382C58.7125 144.346 58.7422 144.299 58.7587 144.247C58.8707 144.164 58.9789 144.069 59.0855 143.99L60.4254 142.999L64.5971 139.916L69.0288 136.653L71.4064 134.895V141.095C71.4018 143.563 71.3865 146.03 71.3604 148.498L71.3512 149.27C71.361 149.343 71.3973 149.411 71.4532 149.46C71.5092 149.509 71.581 149.536 71.6553 149.536C71.7297 149.536 71.8015 149.509 71.8574 149.46C71.9134 149.411 71.9496 149.343 71.9594 149.27C71.9883 146.88 72.0057 144.489 72.0116 142.099C72.0208 139.307 72.0234 136.514 72.0193 133.722C72.0193 132.44 72.0164 131.157 72.0108 129.875C72.7778 130.327 73.5481 130.775 74.3218 131.219C76.5016 132.476 78.6934 133.711 80.8972 134.925C83.6435 136.445 86.4158 137.917 89.2129 139.341C91.8107 140.657 94.4361 141.934 97.1329 143.035C97.682 143.259 98.235 143.476 98.7926 143.677C99.0442 143.768 99.2973 143.856 99.5512 143.94L99.6279 143.967C99.6156 145.48 99.5998 146.993 99.5803 148.506C99.5901 148.579 99.6264 148.647 99.6823 148.696C99.7383 148.745 99.8101 148.772 99.8845 148.772C99.9588 148.772 100.031 148.745 100.087 148.696C100.142 148.647 100.179 148.579 100.189 148.506C100.21 146.959 100.226 145.413 100.237 143.868C100.39 143.762 100.535 143.638 100.68 143.535L104.399 140.885L110.136 136.798L116.385 132.349L121.644 128.602L124.133 126.828V127.568C124.137 129.773 124.137 131.977 124.133 134.181C124.127 135.774 124.123 137.367 124.087 138.959C124.087 139.085 124.081 139.212 124.077 139.342C124.087 139.416 124.123 139.484 124.179 139.533C124.235 139.582 124.307 139.609 124.381 139.609C124.456 139.609 124.528 139.582 124.584 139.533C124.639 139.484 124.676 139.416 124.686 139.342C124.724 137.972 124.731 136.6 124.737 135.23C126.731 136.271 128.735 137.283 130.778 138.221C131.698 138.643 132.628 139.049 133.567 139.426C133.977 139.591 134.39 139.749 134.805 139.899C134.987 139.965 135.169 140.028 135.351 140.09C135.434 140.118 135.522 140.155 135.611 140.182C135.647 140.22 135.693 140.248 135.743 140.264C135.793 140.28 135.846 140.283 135.898 140.273C135.95 140.263 135.998 140.24 136.039 140.207C136.08 140.173 136.112 140.13 136.131 140.081C136.226 140.021 136.318 139.957 136.409 139.9L137.532 139.21L140.545 137.348L142.451 136.172C142.783 135.966 142.477 135.44 142.144 135.646L136.461 139.156L136.154 139.346C136.181 137.069 136.197 134.794 136.201 132.519C136.206 131.015 136.209 129.511 136.21 128.007C136.295 127.953 136.378 127.897 136.463 127.846L137.631 127.145L140.692 125.304L142.642 124.135C142.7 124.089 142.739 124.023 142.753 123.951C142.767 123.878 142.754 123.803 142.716 123.739C142.679 123.675 142.62 123.627 142.55 123.603C142.48 123.579 142.403 123.582 142.335 123.61L136.482 127.121L136.21 127.285V123.374C136.21 121.16 136.205 118.946 136.196 116.732L136.212 116.721L142.279 112.974L142.451 112.867C142.783 112.662 142.478 112.136 142.145 112.342L136.462 115.852L136.194 116.017V114.426C136.187 112.094 136.178 109.762 136.167 107.43C136.164 106.415 136.193 105.392 136.156 104.378C136.364 104.253 136.564 104.108 136.764 103.98C137.06 103.79 137.355 103.599 137.648 103.407C138.798 102.656 139.928 101.883 141.054 101.1C141.586 100.731 142.117 100.359 142.645 99.9843C142.962 99.7595 142.659 99.2326 142.339 99.4589C141.27 100.215 140.195 100.961 139.113 101.698C138.017 102.442 136.92 103.207 135.78 103.884C135.655 103.96 135.62 103.986 135.485 103.92C135.35 103.855 135.218 103.782 135.084 103.712L134.151 103.226L132.374 102.301L128.875 100.479L114.72 93.1074L111.173 91.2613L109.445 90.3608L108.601 89.9213L108.156 89.6912C108.113 89.6682 107.984 89.6207 107.881 89.5716V89.4903C107.881 89.4644 107.877 89.4386 107.871 89.4136C108.01 89.3308 108.143 89.2364 108.279 89.149L109.122 88.6006L110.818 87.5092C111.947 86.7841 113.077 86.0624 114.208 85.3439C118.688 82.4969 123.186 79.6751 127.754 76.9722C128.86 76.318 129.969 75.6683 131.088 75.0356C131.661 74.7119 132.236 74.3946 132.815 74.0837L133.687 73.6235C133.795 73.5461 133.914 73.487 134.041 73.4487C134.2 73.471 134.353 73.5267 134.489 73.612C136.915 74.6475 139.332 75.7098 141.74 76.7989C142.316 77.0607 142.893 77.3233 143.468 77.5866C143.82 77.7484 144.13 77.2246 143.774 77.0612ZM88.3401 60.1022C88.3561 60.0443 88.3933 59.9943 88.4442 59.9623C88.4951 59.9302 88.5562 59.9183 88.6154 59.9289C89.3763 60.0102 90.1333 60.1444 90.888 60.2679C93.0548 60.6223 95.2169 61.0027 97.3783 61.3854C98.6239 61.6053 99.869 61.8272 101.114 62.0512C101.385 62.1003 101.39 62.4799 101.186 62.6072L100.195 63.2262L95.8635 65.9306L93.1629 67.618C93.0931 67.6581 93.0103 67.6692 92.9324 67.6488C92.8545 67.6285 92.7877 67.5783 92.7464 67.5091C92.4673 67.0366 92.1796 66.5695 91.892 66.1017C90.72 64.1918 89.5402 62.2872 88.3523 60.3876C88.3237 60.346 88.3073 60.2971 88.3051 60.2467C88.303 60.1962 88.3151 60.1461 88.3401 60.1022ZM68.0547 67.4186L72.9281 69.9558L79.3709 73.3098L85.9356 76.7283L91.25 79.4956L93.9184 80.8854C93.9715 80.9143 94.0282 80.9357 94.0871 80.9491C94.1045 82.3757 94.1173 83.802 94.1255 85.2281C94.1424 87.7883 94.1488 90.348 94.1447 92.9072C92.208 92.2376 90.3116 91.4565 88.4651 90.5679C86.0491 89.4458 83.6714 88.2416 81.3114 87.0052C78.9654 85.7781 76.6358 84.5174 74.3225 83.2232C72.5155 82.2174 70.7159 81.1978 68.9237 80.1644C68.1045 79.692 67.3 79.1812 66.4693 78.7332C66.4693 77.9532 66.4693 77.1739 66.4647 76.3947C66.457 74.0625 66.4481 71.7306 66.4379 69.399C66.434 68.4586 66.4578 67.5122 66.4325 66.5711L68.0547 67.4186ZM94.1094 102.403C93.5848 102.705 93.0617 103.009 92.5401 103.315L92.2387 103.493C90.0911 102.656 88.0034 101.644 85.9432 100.632C85.054 100.196 84.1692 99.7516 83.2887 99.3001C83.2836 96.8524 83.269 94.4052 83.245 91.9585L83.2288 90.4291C83.2293 90.3897 83.2217 90.3507 83.2066 90.3144C83.1916 90.278 83.1692 90.2451 83.1411 90.2176C83.1129 90.1902 83.0794 90.1687 83.0427 90.1546C83.006 90.1404 82.9667 90.1339 82.9274 90.1353C82.9125 90.1197 82.8961 90.1055 82.8783 90.0931C81.1527 88.9665 79.3674 87.9342 77.5301 87.0006C75.2606 85.8072 72.9573 84.679 70.6425 83.5776C69.2568 82.9185 67.866 82.2703 66.4701 81.6332L66.4655 79.4373C67.2325 79.8909 68.0041 80.3396 68.7803 80.7834C70.96 82.0397 73.1516 83.2751 75.3549 84.4895C78.101 86.0094 80.8733 87.4815 83.6706 88.9051C86.2692 90.2212 88.8938 91.4983 91.5914 92.5997C92.1405 92.8244 92.6928 93.0399 93.2511 93.2417C93.5027 93.3322 93.7555 93.4198 94.0097 93.5047L94.1408 93.5492V95.4828C94.1327 97.7464 94.114 100.01 94.0848 102.273C94.0836 102.318 94.092 102.362 94.1094 102.403ZM32.1365 94.9267L37.0099 97.4647L43.4527 100.819L50.0173 104.237L55.3311 107.005L58.0002 108.394C58.0528 108.423 58.1094 108.445 58.1682 108.458L58.1812 110.989C58.1909 113.199 58.1994 115.408 58.2065 117.618C58.2096 118.549 58.2119 119.481 58.2134 120.412C56.2813 119.744 54.3893 118.964 52.5469 118.078C50.1309 116.955 47.7524 115.751 45.3931 114.515C43.0462 113.288 40.7165 112.027 38.4043 110.733C36.5968 109.728 34.7972 108.708 33.0055 107.674C32.1863 107.202 31.381 106.691 30.5511 106.242C30.5511 105.463 30.5496 104.683 30.5465 103.904C30.5393 101.572 30.5306 99.2403 30.5204 96.9086C30.5158 95.9683 30.5396 95.0218 30.5143 94.0807L32.1365 94.9267ZM58.2219 135.642C58.2184 138.232 58.2031 140.822 58.1758 143.412V143.706C56.2611 143.036 54.3887 142.251 52.5691 141.355C50.1477 140.205 47.7678 138.97 45.4077 137.699C43.0477 136.428 40.7291 135.129 38.4105 133.802C36.5998 132.764 34.7979 131.712 33.0047 130.644C32.1817 130.155 31.3748 129.619 30.535 129.159L30.5066 129.142C30.5365 126.76 30.548 124.378 30.5557 121.996C30.5598 120.739 30.5621 119.482 30.5626 118.226C30.9435 118.45 31.3252 118.673 31.7077 118.895C33.0147 119.655 34.3262 120.406 35.6424 121.151C37.475 122.187 39.3158 123.208 41.1647 124.214C43.2141 125.329 45.2773 126.418 47.3543 127.482C49.3393 128.493 51.3427 129.476 53.3714 130.389C54.2713 130.796 55.1799 131.183 56.0965 131.551C56.4931 131.709 56.8927 131.862 57.2938 132.011C57.4799 132.078 57.6671 132.144 57.8552 132.208C57.9634 132.245 58.0991 132.308 58.2311 132.347L58.2242 135.642H58.2219ZM52.5569 129.353C50.1347 128.228 47.7509 127.021 45.3855 125.782C43.0421 124.555 40.7155 123.296 38.4059 122.005C36.5952 120.997 34.7918 119.974 32.9955 118.937C32.184 118.468 31.3848 117.961 30.5611 117.517V112.847C30.5611 110.879 30.557 108.911 30.5488 106.942C31.3158 107.394 32.0874 107.843 32.8636 108.288C35.0439 109.544 37.2357 110.779 39.439 111.994C42.1851 113.514 44.9574 114.986 47.7547 116.409C50.3525 117.726 52.9779 119.003 55.6754 120.104C56.2238 120.329 56.7768 120.544 57.3344 120.746C57.586 120.836 57.8391 120.924 58.0938 121.009L58.2142 121.05L58.2265 126.415V131.682C56.294 131.016 54.4017 130.239 52.5592 129.354L52.5569 129.353ZM58.6245 95.6147C58.5779 95.6417 58.525 95.6558 58.4711 95.6558C58.4173 95.6558 58.3644 95.6417 58.3177 95.6147L57.2677 95.097L52.7302 92.8628L49.969 91.5014C49.9268 91.4914 49.8876 91.4714 49.8547 91.4431C49.8219 91.4254 49.7933 91.401 49.7706 91.3715C49.7479 91.342 49.7317 91.308 49.7231 91.2718C49.7144 91.2356 49.7136 91.1979 49.7205 91.1614C49.7275 91.1248 49.7421 91.0901 49.7635 91.0596C49.7866 91.0058 49.8247 90.9597 49.8731 90.9269C50.8677 90.2335 51.8747 89.5573 52.8943 88.8982C53.5897 88.4448 54.2939 88.0053 55.0066 87.5797C55.576 87.2255 56.1699 86.9123 56.7837 86.6425C56.9806 86.5228 57.2161 86.4838 57.4411 86.5335C57.5108 86.5612 57.5783 86.6003 57.6458 86.6333L58.929 87.2591L65.2728 90.3532C65.3181 90.3805 65.3555 90.419 65.3815 90.465C65.4075 90.511 65.4211 90.563 65.4211 90.6159C65.4211 90.6687 65.4075 90.7207 65.3815 90.7667C65.3555 90.8127 65.3181 90.8512 65.2728 90.8786L64.456 91.4607L58.6245 95.6147ZM58.7779 108.387C58.7783 108.329 58.7618 108.272 58.7304 108.224C59.2105 107.921 59.6876 107.614 60.1616 107.304C61.4312 106.468 62.6884 105.614 63.9329 104.741C66.6557 102.831 69.3497 100.879 72.0139 98.8875C74.3629 97.1377 76.6982 95.3695 79.0196 93.583C80.2258 92.6559 81.4274 91.724 82.6245 90.7873C82.6393 92.1193 82.651 93.4521 82.6597 94.7856C82.6705 96.359 82.6774 97.9318 82.6804 99.5041V103.157L80.3312 104.83L74.4836 108.996L67.4142 114.032L61.2821 118.4L59.2665 119.836C59.1254 119.937 58.972 120.033 58.8209 120.134V118.614C58.8137 116.282 58.805 113.95 58.7948 111.618C58.7902 110.558 58.8247 109.489 58.7795 108.43C58.7764 108.416 58.7772 108.401 58.7772 108.387L58.7779 108.387ZM71.4064 134.142L66.987 137.409L59.9092 142.64L58.781 143.474C58.8071 141.218 58.8221 138.962 58.8262 136.706C58.8308 135.197 58.8337 133.687 58.8347 132.177C58.9175 132.111 58.995 132.044 59.0648 131.996L60.394 131.053L64.5771 128.082L69.0119 124.933L71.3827 123.246L71.3896 124.762C71.3993 127.398 71.4062 130.034 71.4103 132.67C71.4103 133.164 71.4064 133.653 71.4064 134.142ZM71.7769 116.271L71.7125 116.313C71.669 116.302 71.6235 116.301 71.5796 116.31C71.5357 116.319 71.4945 116.339 71.4593 116.367C71.424 116.394 71.3957 116.43 71.3764 116.47C71.3571 116.511 71.3475 116.555 71.3481 116.6L71.3604 118.896C71.3666 120.099 71.3719 121.303 71.3765 122.507L66.997 125.616L59.9016 130.661L58.84 131.415V127.561C58.84 125.345 58.8354 123.128 58.8262 120.912C58.9635 120.813 59.097 120.703 59.2289 120.606L62.9481 117.956L68.6844 113.868L74.9338 109.42L80.1931 105.673L82.6758 103.904C82.6716 105.048 82.6547 106.191 82.6252 107.335C82.635 107.409 82.6713 107.476 82.7272 107.525C82.7832 107.574 82.855 107.601 82.9293 107.601C83.0037 107.601 83.0755 107.574 83.1314 107.525C83.1874 107.476 83.2236 107.409 83.2334 107.335C83.3025 104.885 83.2994 102.433 83.2948 99.982C86.0123 101.37 88.7627 102.734 91.596 103.875C89.7368 104.977 87.8883 106.096 86.0506 107.233C83.8862 108.567 81.7301 109.915 79.5826 111.276C77.8543 112.37 76.1303 113.469 74.4107 114.574C73.5328 115.139 72.6559 115.706 71.78 116.276L71.7769 116.271ZM99.6402 142.223C99.6402 142.59 99.6348 142.957 99.6317 143.324C97.7124 142.657 95.8325 141.881 94.0012 141.001C91.5852 139.878 89.2068 138.674 86.8475 137.438C84.5005 136.211 82.1707 134.95 79.8579 133.655C78.0509 132.649 76.2515 131.63 74.4598 130.597C73.6414 130.125 72.8376 129.615 72.0055 129.168C72.0055 127.999 72.0029 126.832 71.9978 125.665C71.9911 123.597 71.9824 121.529 71.9717 119.461C71.9717 118.644 71.9886 117.822 71.9663 117.007L73.5924 117.851L78.4658 120.389L84.9086 123.743L91.474 127.161L96.7877 129.928L99.4568 131.317C99.5097 131.347 99.5665 131.369 99.6256 131.382C99.6386 132.338 99.644 133.294 99.6486 134.25C99.6629 136.909 99.6611 139.567 99.6432 142.225L99.6402 142.223ZM99.4331 118.134C98.3338 118.172 97.2343 118.065 96.1634 117.814C94.9174 117.576 93.7831 116.938 92.9328 115.997C92.5682 115.539 92.3497 114.982 92.3058 114.399C92.2619 113.816 92.3946 113.233 92.6866 112.726C93.1804 111.874 93.9372 111.205 94.8434 110.82C96.6983 110.012 98.7599 109.805 100.738 110.228C101.632 110.389 102.483 110.731 103.24 111.233C103.711 111.549 104.094 111.981 104.35 112.487C104.607 112.993 104.729 113.557 104.705 114.124C104.658 114.77 104.455 115.395 104.115 115.946C103.774 116.497 103.305 116.957 102.748 117.288C101.732 117.842 100.593 118.133 99.4361 118.135L99.4331 118.134ZM99.9163 100.978L100.264 100.731L105.06 97.3243C105.804 96.7967 106.551 96.2736 107.291 95.742L107.302 98.7019C107.309 100.561 107.313 102.42 107.315 104.279C106.646 103.972 105.977 103.665 105.306 103.363C103.595 102.592 101.88 101.832 100.159 101.083L99.9163 100.978ZM135.594 131.438C135.588 134.028 135.578 136.618 135.548 139.208V139.5C132.826 138.529 130.176 137.365 127.62 136.017C126.7 135.557 125.782 135.085 124.867 134.603C124.828 134.583 124.785 134.57 124.741 134.566C124.75 132.517 124.752 130.469 124.748 128.42C124.748 126.706 124.744 124.993 124.735 123.281C126.755 124.31 128.791 125.311 130.861 126.238C131.79 126.657 132.729 127.054 133.677 127.429C134.086 127.589 134.495 127.743 134.904 127.889C135.094 127.956 135.285 128.022 135.477 128.085L135.601 128.127C135.603 129.232 135.602 130.336 135.597 131.439L135.594 131.438ZM135.594 122.216V127.482C132.859 126.519 130.192 125.371 127.612 124.046C126.691 123.595 125.773 123.134 124.858 122.665C124.817 122.643 124.771 122.631 124.724 122.629V121.563C124.718 119.972 124.71 118.38 124.701 116.788V114.34C124.701 114.021 124.695 113.703 124.681 113.386V113.35C124.682 113.31 124.674 113.271 124.659 113.235C124.644 113.198 124.622 113.165 124.594 113.138C124.565 113.11 124.532 113.089 124.495 113.075C124.458 113.061 124.419 113.054 124.379 113.056C124.365 113.04 124.348 113.026 124.33 113.014C122.605 111.887 120.819 110.855 118.982 109.921C116.713 108.728 114.409 107.6 112.094 106.498C110.708 105.84 109.317 105.191 107.921 104.553V102.74C108.958 103.351 109.999 103.954 111.045 104.552C113.771 106.114 116.516 107.643 119.279 109.14C122.463 110.86 125.673 112.537 128.943 114.083C130.387 114.765 131.845 115.422 133.327 116.017C133.941 116.264 134.554 116.498 135.18 116.712C135.298 116.753 135.441 116.818 135.582 116.857C135.591 118.645 135.598 120.432 135.604 122.218L135.594 122.216ZM107.888 90.2228L108.551 90.5679L112.233 92.4854L126.966 100.155C129.389 101.417 131.813 102.679 134.236 103.941C134.533 104.095 134.828 104.253 135.126 104.401C135.254 104.473 135.394 104.522 135.538 104.546L135.549 106.78C135.559 108.99 135.568 111.199 135.575 113.409C135.578 114.34 135.58 115.271 135.581 116.203C133.653 115.536 131.765 114.758 129.926 113.874C127.504 112.749 125.12 111.542 122.755 110.303C120.412 109.075 118.085 107.816 115.775 106.525C113.964 105.518 112.16 104.495 110.365 103.457C109.548 102.986 108.747 102.476 107.916 102.03C107.916 101.251 107.916 100.471 107.911 99.692C107.904 97.3594 107.895 95.0275 107.885 92.6963C107.888 91.8802 107.906 91.0504 107.894 90.2243L107.888 90.2228ZM113.464 121.812C115.813 120.062 118.148 118.294 120.469 116.508C121.675 115.58 122.877 114.648 124.074 113.713L124.085 115.487C124.095 117.251 124.103 119.015 124.111 120.779C124.119 122.543 124.124 124.311 124.126 126.083L121.779 127.756L115.938 131.923L108.868 136.959L102.74 141.326L100.724 142.762C100.571 142.87 100.407 142.973 100.245 143.082C100.257 141.445 100.264 139.811 100.265 138.178C100.265 136.209 100.258 134.24 100.244 132.272C100.244 131.953 100.238 131.634 100.234 131.314C100.234 131.257 100.217 131.201 100.185 131.153C100.666 130.85 101.143 130.544 101.617 130.232C102.887 129.396 104.144 128.542 105.389 127.67C108.111 125.757 110.805 123.805 113.47 121.814L113.464 121.812ZM118.55 77.5567C118.545 78.9822 118.525 80.4076 118.49 81.8327C118.489 81.8545 118.491 81.8763 118.494 81.8978C117.369 82.6035 116.246 83.3117 115.124 84.0224C112.785 85.5027 110.453 86.9948 108.129 88.4986C107.74 88.7509 106.952 89.0731 107.154 89.6728C107.176 89.7401 107.214 89.8014 107.263 89.8523L107.274 92.0766L107.286 95.0027L102.914 98.1097L99.2666 100.699L98.7213 100.463L98.3693 100.309C98.3447 100.299 98.3202 100.287 98.2926 100.278C98.223 100.253 98.1482 100.244 98.0747 100.255C98.0013 100.265 97.9315 100.293 97.8715 100.336C96.7977 100.885 95.7392 101.47 94.6892 102.067C94.7271 99.1753 94.7465 96.283 94.7475 93.3904C94.8802 93.2938 95.0083 93.188 95.1356 93.0975L98.8555 90.4475L104.592 86.361L110.841 81.9086L116.1 78.1618L118.554 76.4131C118.559 76.7951 118.56 77.1747 118.556 77.5551L118.55 77.5567ZM118.556 75.6714L116.239 77.322L110.392 81.4875L103.322 86.5251L97.1935 90.8908L95.177 92.3274C95.0405 92.424 94.894 92.5184 94.7475 92.6143V90.5434C94.7429 87.8134 94.7281 85.0839 94.703 82.355C94.6984 81.8641 94.6931 81.3732 94.6869 80.8824C94.6872 80.8246 94.6704 80.768 94.6386 80.7197C95.1198 80.4176 95.5974 80.1108 96.0714 79.7994C97.3408 78.9635 98.5981 78.1093 99.8427 77.2368C102.565 75.3265 105.259 73.375 107.923 71.3832C110.275 69.6339 112.611 67.8657 114.929 66.0786C116.134 65.1521 117.336 64.2205 118.534 63.2837C118.544 64.8438 118.551 66.4033 118.556 67.9624C118.57 70.5303 118.572 73.0994 118.563 75.6699L118.556 75.6714Z" fill="#DCBEFF"/>
<path d="M133.473 118.975L130.508 117.408L125.777 114.909L124.708 114.345V115.031C124.708 115.356 124.703 115.679 124.708 116.002V116.793L127.355 118.041L132.074 120.265L133.168 120.781C133.214 120.807 133.267 120.822 133.321 120.822C133.374 120.822 133.427 120.808 133.473 120.781C133.52 120.755 133.559 120.716 133.586 120.67C133.613 120.624 133.628 120.571 133.628 120.518V119.237C133.628 119.184 133.613 119.131 133.586 119.085C133.559 119.039 133.52 119.001 133.473 118.975ZM38.9943 102.864C37.5731 102.859 37.3721 105.425 38.9437 105.425C39.2698 105.419 39.5804 105.285 39.8096 105.053C40.0387 104.821 40.1683 104.509 40.1709 104.183C40.1693 103.857 40.0488 103.544 39.8321 103.301C39.6155 103.058 39.3175 102.902 38.9943 102.864ZM42.8155 104.771C41.3942 104.767 41.1933 107.333 42.7648 107.333C43.0909 107.326 43.4015 107.193 43.6307 106.961C43.8599 106.729 43.9895 106.417 43.992 106.09C43.9902 105.765 43.8697 105.451 43.6531 105.208C43.4365 104.966 43.1386 104.81 42.8155 104.771ZM46.8276 106.494C45.4064 106.489 45.2046 109.055 46.7762 109.055C47.1021 109.048 47.4127 108.915 47.6418 108.683C47.871 108.451 48.0007 108.139 48.0034 107.813C48.0018 107.488 47.8814 107.174 47.6649 106.931C47.4484 106.688 47.1507 106.533 46.8276 106.494ZM51.0307 108.404C49.6095 108.4 49.4078 110.965 50.9793 110.965C51.3054 110.959 51.6162 110.826 51.8454 110.594C52.0746 110.361 52.2042 110.049 52.2065 109.723C52.2051 109.398 52.0847 109.084 51.8682 108.841C51.6516 108.598 51.3538 108.443 51.0307 108.404ZM42.4335 129.419C41.0123 129.415 40.8113 131.98 42.3821 131.98C42.708 131.974 43.0186 131.84 43.2477 131.608C43.4769 131.377 43.6066 131.064 43.6093 130.739C43.6079 130.413 43.4876 130.099 43.271 129.856C43.0545 129.613 42.7566 129.458 42.4335 129.419ZM55.2407 122.796L52.2755 121.229L47.5447 118.73L46.4525 118.154C46.4144 118.132 46.3719 118.119 46.3282 118.117C46.2845 118.114 46.2407 118.121 46.2002 118.138C46.1394 118.154 46.0859 118.19 46.0486 118.241C46.0112 118.291 45.9922 118.353 45.9946 118.416V120.197C45.9945 120.25 46.0087 120.303 46.0357 120.349C46.0626 120.395 46.1014 120.433 46.148 120.459L49.1232 121.861L53.8425 124.086L54.9362 124.601C54.9826 124.628 55.0352 124.642 55.0888 124.642C55.1424 124.642 55.195 124.628 55.2416 124.602C55.2881 124.575 55.3269 124.537 55.3541 124.491C55.3812 124.445 55.3958 124.392 55.3964 124.339V123.058C55.3956 123.004 55.3808 122.952 55.3535 122.906C55.3262 122.86 55.2873 122.822 55.2407 122.796ZM80.451 125.787C79.0297 125.782 78.8288 128.349 80.4003 128.349C80.7264 128.342 81.037 128.208 81.2662 127.976C81.4954 127.744 81.625 127.432 81.6275 127.106C81.6259 126.781 81.5055 126.467 81.2888 126.224C81.0721 125.981 80.7742 125.826 80.451 125.787ZM84.2721 127.7C82.8509 127.695 82.6499 130.261 84.2215 130.261C84.5475 130.254 84.8581 130.121 85.0873 129.889C85.3165 129.657 85.4461 129.345 85.4487 129.019C85.4471 128.693 85.3266 128.38 85.1099 128.137C84.8933 127.894 84.5953 127.738 84.2721 127.7ZM88.2843 129.419C86.863 129.415 86.6613 131.98 88.2329 131.98C88.5588 131.974 88.8693 131.84 89.0985 131.608C89.3276 131.377 89.4573 131.064 89.46 130.739C89.4586 130.413 89.3383 130.099 89.1218 129.856C88.9052 129.613 88.6074 129.458 88.2843 129.419ZM92.4874 131.33C91.0654 131.325 90.8644 133.891 92.436 133.891C92.762 133.884 93.0727 133.751 93.3018 133.519C93.531 133.287 93.6606 132.974 93.6632 132.648C93.6617 132.323 93.5414 132.009 93.3248 131.767C93.1083 131.524 92.8104 131.368 92.4874 131.33ZM74.911 75.3533C73.4898 75.3487 73.288 77.915 74.8596 77.915C75.1857 77.9085 75.4963 77.775 75.7255 77.5429C75.9546 77.3109 76.0843 76.9986 76.0868 76.6725C76.085 76.3472 75.9646 76.0336 75.7481 75.7907C75.5317 75.5479 75.234 75.3923 74.911 75.3533ZM78.7321 77.2639C77.3101 77.2593 77.1092 79.8256 78.6808 79.8256C79.0068 79.819 79.3174 79.6855 79.5466 79.4535C79.7758 79.2215 79.9054 78.9092 79.9079 78.5831C79.9063 78.2577 79.786 77.9441 79.5695 77.7012C79.353 77.4582 79.0552 77.3027 78.7321 77.2639ZM82.7435 78.9834C81.3223 78.9788 81.1213 81.5452 82.6929 81.5444C83.0189 81.5381 83.3295 81.4047 83.5587 81.1728C83.7879 80.9409 83.9175 80.6287 83.9201 80.3027C83.9186 79.9771 83.7982 79.6633 83.5815 79.4203C83.3648 79.1774 83.0668 79.022 82.7435 78.9834ZM86.9466 80.894C85.5254 80.8894 85.3244 83.455 86.896 83.455C87.222 83.4486 87.5326 83.3153 87.7618 83.0834C87.991 82.8515 88.1206 82.5393 88.1232 82.2133C88.1216 81.8877 88.0011 81.574 87.7844 81.3311C87.5678 81.0882 87.2698 80.9327 86.9466 80.894ZM92.4736 97.6643C92.52 97.6911 92.5727 97.7053 92.6263 97.7054C92.6799 97.7055 92.7327 97.6916 92.7792 97.665C92.8258 97.6383 92.8646 97.6 92.8917 97.5537C92.9188 97.5074 92.9333 97.4548 92.9338 97.4012V96.1211C92.9336 96.0677 92.9194 96.0154 92.8924 95.9693C92.8655 95.9232 92.8268 95.8851 92.7804 95.8588L89.8152 94.2918L85.0844 91.793L83.9929 91.2162C83.9547 91.1948 83.9123 91.1823 83.8686 91.1795C83.8249 91.1767 83.7812 91.1838 83.7406 91.2001C83.6797 91.2164 83.6262 91.2529 83.5889 91.3037C83.5515 91.3544 83.5325 91.4163 83.535 91.4793V93.2595C83.5348 93.3129 83.549 93.3654 83.576 93.4116C83.6029 93.4577 83.6418 93.4957 83.6884 93.5218L86.6644 94.9246L91.3837 97.1489L92.4736 97.6643ZM116.368 98.6606C114.946 98.656 114.745 101.222 116.316 101.222C116.642 101.216 116.953 101.082 117.182 100.85C117.411 100.618 117.541 100.306 117.543 99.9798C117.542 99.6545 117.421 99.341 117.205 99.0981C116.988 98.8552 116.691 98.6996 116.368 98.6606ZM120.187 100.571C118.766 100.567 118.565 103.133 120.137 103.133C120.463 103.126 120.773 102.993 121.002 102.761C121.232 102.529 121.361 102.217 121.364 101.89C121.362 101.565 121.242 101.251 121.025 101.008C120.808 100.765 120.51 100.61 120.187 100.571ZM124.2 102.291C122.779 102.286 122.578 104.853 124.15 104.852C124.476 104.845 124.786 104.712 125.015 104.48C125.245 104.248 125.374 103.936 125.377 103.61C125.375 103.285 125.254 102.971 125.038 102.728C124.821 102.485 124.523 102.33 124.2 102.291ZM128.403 104.201C126.982 104.197 126.781 106.762 128.353 106.762C128.679 106.756 128.989 106.623 129.218 106.391C129.448 106.159 129.577 105.847 129.58 105.521C129.578 105.195 129.458 104.881 129.241 104.638C129.024 104.395 128.726 104.24 128.403 104.201ZM96.6974 145.721L93.7322 144.155L89.0014 141.656L87.9092 141.079C87.8711 141.057 87.8286 141.045 87.7849 141.042C87.7412 141.039 87.6974 141.046 87.6569 141.063C87.5961 141.079 87.5426 141.116 87.5052 141.166C87.4679 141.217 87.4488 141.279 87.4513 141.341V143.121C87.4512 143.174 87.4654 143.227 87.4923 143.273C87.5193 143.319 87.5581 143.358 87.6047 143.384L90.5799 144.786L95.2992 147.01L96.3921 147.526C96.4385 147.552 96.4911 147.567 96.5447 147.567C96.5982 147.567 96.6509 147.553 96.6975 147.527C96.744 147.5 96.7828 147.462 96.81 147.416C96.8371 147.369 96.8517 147.317 96.8523 147.263V145.982C96.852 145.929 96.8375 145.877 96.8102 145.831C96.783 145.785 96.7441 145.747 96.6974 145.721ZM84.2637 139.593C82.8424 139.588 82.6415 142.154 84.2123 142.154C84.5383 142.148 84.849 142.014 85.0782 141.782C85.3073 141.55 85.437 141.238 85.4395 140.912C85.4377 140.587 85.3173 140.273 85.1008 140.03C84.8843 139.787 84.5867 139.632 84.2637 139.593ZM79.0919 53.843C79.1064 52.2492 79.1003 50.6546 79.098 49.0608C79.098 46.7245 79.0896 44.3883 79.0727 42.052C79.0727 41.5566 79.0699 41.0613 79.0642 40.5664C79.063 40.5068 79.0444 40.4489 79.0107 40.3997C78.9771 40.3505 78.9298 40.3121 78.8748 40.2894C78.8197 40.2666 78.7592 40.2603 78.7006 40.2714C78.6421 40.2825 78.588 40.3103 78.545 40.3516L78.3471 40.505L78.2903 40.5487L78.1722 40.6385C78.0035 40.7673 77.834 40.8946 77.6637 41.022C77.2503 41.3288 76.8331 41.6356 76.4158 41.9362C75.3057 42.7395 74.1895 43.5333 73.0671 44.3177C71.6794 45.2928 70.2886 46.2626 68.8947 47.2269C67.3316 48.3104 65.7656 49.3909 64.1969 50.4682C63.6503 50.8441 63.1026 51.2191 62.554 51.5934V50.0226C62.5598 49.9793 62.5562 49.9352 62.5436 49.8934C62.5309 49.8515 62.5095 49.8129 62.4807 49.78C62.4519 49.7471 62.4164 49.7208 62.3766 49.7027C62.3368 49.6847 62.2936 49.6753 62.2499 49.6753C62.2062 49.6753 62.163 49.6847 62.1232 49.7027C62.0834 49.7208 62.0479 49.7471 62.0191 49.78C61.9903 49.8129 61.9688 49.8515 61.9562 49.8934C61.9436 49.9352 61.94 49.9793 61.9458 50.0226V52.0061C61.0555 52.6171 60.1648 53.2274 59.2736 53.8369C57.6757 54.9275 56.0773 56.0164 54.4783 57.1035C53.0216 58.0944 51.5643 59.0841 50.1065 60.0725L46.4564 62.5437L43.877 64.2856C43.4728 64.5586 43.0655 64.8225 42.6644 65.1032L42.6122 65.1392C42.5661 65.1659 42.5277 65.2041 42.5008 65.2501C42.4739 65.2961 42.4594 65.3483 42.4588 65.4016C42.6122 67.1145 42.7582 68.8275 42.8968 70.5404C43.1491 73.6252 43.3915 76.7109 43.564 79.8011C43.5963 80.3702 43.6292 80.94 43.6538 81.5115C42.5194 81.8451 42.4588 84.0287 43.9092 84.028C44.2352 84.0216 44.5458 83.8882 44.775 83.6563C45.0042 83.4244 45.1338 83.1122 45.1364 82.7862C45.1296 82.5131 45.0432 82.248 44.8879 82.0233C44.7326 81.7987 44.5151 81.6242 44.262 81.5214C44.1715 79.6096 44.0552 77.6991 43.913 75.7905C43.7085 72.9383 43.481 70.0871 43.2304 67.237C43.1818 66.6745 43.1327 66.1133 43.0831 65.5534L43.7535 65.1017L46.0445 63.5546C47.1812 62.7877 48.3179 62.0184 49.4545 61.2468C50.8704 60.288 52.2853 59.3283 53.6991 58.3675C55.2842 57.2937 56.866 56.2171 58.4444 55.1377C60.0807 54.0215 61.7169 52.9034 63.3532 51.7836C64.9531 50.6863 66.551 49.587 68.1469 48.4856C69.5939 47.4828 71.0384 46.4768 72.4804 45.4674C73.6738 44.6324 74.8634 43.7916 76.0492 42.9448C76.8595 42.3678 77.6619 41.7797 78.456 41.1807C78.4637 42.3665 78.4701 43.5518 78.4752 44.7365C78.4859 47.3075 78.4936 49.8753 78.4844 52.4494C78.4844 52.8983 78.4821 53.347 78.4775 53.7954C77.2894 54.0723 77.2043 56.3265 78.6777 56.3265C79.0037 56.3199 79.3144 56.1864 79.5435 55.9544C79.7727 55.7224 79.9023 55.4101 79.9049 55.084C79.8978 54.8221 79.8181 54.5673 79.6745 54.3481C79.5309 54.1289 79.3292 53.954 79.0919 53.843ZM42.7978 57.1203L42.8461 57.951C42.8467 58.0046 42.8613 58.057 42.8885 58.1032C42.9157 58.1494 42.9545 58.1876 43.001 58.2142C43.0475 58.2407 43.1002 58.2546 43.1538 58.2544C43.2074 58.2543 43.2599 58.2401 43.3063 58.2133L48.1553 55.0364L48.8456 54.5831C48.8917 54.5565 48.9301 54.5183 48.957 54.4723C48.9839 54.4263 48.9984 54.3741 48.9989 54.3208L48.4897 48.4741L48.4183 47.638C48.4177 47.5845 48.4031 47.532 48.376 47.4858C48.3488 47.4396 48.31 47.4014 48.2635 47.3749C48.2169 47.3483 48.1643 47.3345 48.1107 47.3346C48.0571 47.3348 48.0045 47.3489 47.9581 47.3757C46.7564 47.9559 45.5983 48.6223 44.4929 49.3699C43.8537 49.781 43.2236 50.206 42.603 50.6446C42.5431 50.6859 42.4994 50.7468 42.4794 50.8167C42.4594 50.8867 42.4643 50.9614 42.4933 51.0281C42.4618 51.079 42.4472 51.1387 42.4519 51.1984L42.7978 57.1203ZM44.805 49.8876C45.7854 49.2323 46.8028 48.6343 47.8523 48.0967L48.3125 53.4848L48.3708 54.1659L43.6852 57.2339L43.4206 57.4072L43.1138 52.0176L43.0655 51.1877C43.0635 51.149 43.0544 51.1111 43.0387 51.0757C43.6186 50.6681 44.2065 50.272 44.802 49.8876H44.805ZM73.1991 39.3952L76.2839 37.1441L76.7334 36.8165C76.8012 36.7741 76.8503 36.7074 76.8705 36.6299C76.8908 36.5525 76.8807 36.4703 76.8423 36.4001L75.0061 32.8949L74.7407 32.3887C74.7153 32.3333 74.6714 32.2885 74.6165 32.262C74.5616 32.2356 74.4992 32.2291 74.4401 32.2437C74.3786 32.2437 74.3192 32.2655 74.2724 32.3053C74.2256 32.345 74.1945 32.4002 74.1846 32.4608C73.7669 34.3859 73.3486 36.3108 72.9298 38.2355L72.7519 39.0523C72.7013 39.2855 72.9682 39.5639 73.1991 39.3952ZM74.5935 33.441L74.5973 33.4257L76.0546 36.2022L76.1926 36.4653L73.5143 38.4196L74.5935 33.441ZM38.3132 37.0658C38.3361 37.1924 38.3895 37.3115 38.4688 37.4128C38.5482 37.5141 38.6511 37.5944 38.7685 37.6469C38.886 37.6994 39.0145 37.7223 39.1429 37.7138C39.2713 37.7053 39.3956 37.6656 39.5051 37.5981L67.4949 23.6343C67.6157 23.56 67.7143 23.4545 67.7803 23.329C67.8463 23.2035 67.8773 23.0626 67.87 22.921L67.442 17.5758C67.4349 17.4415 67.3936 17.3112 67.3221 17.1973C67.2506 17.0833 67.1512 16.9895 67.0334 16.9247C66.9155 16.8599 66.7831 16.8263 66.6486 16.8269C66.514 16.8276 66.3819 16.8625 66.2647 16.9285L38.6645 30.3431C38.5218 30.4238 38.4076 30.5469 38.3378 30.6953C38.268 30.8437 38.246 31.0101 38.2749 31.1715L38.3132 37.0658ZM41.3045 32.131L41.3467 32.1111C41.6535 31.9392 41.9894 31.8004 42.3077 31.6463L44.3326 30.6683L50.4754 27.7024L57.6084 24.2594L63.4805 21.4215L65.9249 20.2411C66.2762 20.0716 66.5838 20.5962 66.2317 20.7665L66.1895 20.7864C65.8827 20.9582 65.5468 21.0971 65.2285 21.2512L63.1998 22.2314L57.0562 25.1974L49.9232 28.6404L44.0511 31.4783L41.6067 32.6587C41.2569 32.8274 40.9486 32.3013 41.3014 32.131H41.3045ZM60.9955 36.6762L60.9494 30.3761C60.9425 30.2417 60.9014 30.1113 60.8299 29.9972C60.7585 29.8832 60.659 29.7893 60.5411 29.7245C60.4232 29.6596 60.2906 29.626 60.1561 29.6267C60.0215 29.6275 59.8893 29.6626 59.7721 29.7288L42.2947 37.9854C42.1517 38.0659 42.0373 38.1889 41.9675 38.3374C41.8977 38.4858 41.8758 38.6523 41.905 38.8138L41.7516 45.8532C41.7739 45.9802 41.8268 46.0999 41.9059 46.2017C41.985 46.3035 42.0878 46.3845 42.2054 46.4374C42.3229 46.4904 42.4517 46.5138 42.5803 46.5055C42.709 46.4973 42.8337 46.4577 42.9436 46.3901L60.6196 37.3933C60.7412 37.3188 60.8402 37.2128 60.9064 37.0866C60.9726 36.9603 61.0033 36.8185 60.9955 36.6762ZM51.1335 39.491L50.286 39.9144L44.2551 42.9295C43.9054 43.1043 43.5978 42.5797 43.9483 42.4048L44.7958 41.9815L50.8259 38.9634C51.1757 38.7915 51.4832 39.3162 51.1335 39.491ZM59.348 32.8044L57.4305 33.7248L49.1201 37.7293L43.8716 40.255C43.5203 40.4245 43.2128 39.8999 43.5648 39.7303L45.4823 38.81L53.7926 34.8086L59.0389 32.2821C59.3924 32.1103 59.7008 32.6349 59.348 32.8044Z" fill="#B26EE6"/>
<path d="M54.5623 136.184L51.5979 134.618L46.8678 132.119L45.7749 131.541C45.7388 131.521 45.6986 131.509 45.6573 131.507C45.616 131.504 45.5746 131.511 45.5363 131.527C45.4791 131.542 45.4288 131.576 45.3937 131.624C45.3586 131.672 45.3407 131.73 45.3431 131.789V133.569C45.3428 133.619 45.3558 133.669 45.3809 133.712C45.406 133.756 45.4421 133.792 45.4857 133.817L48.4593 135.218L53.1794 137.443L54.2731 137.958C54.3169 137.982 54.3661 137.995 54.4161 137.995C54.4662 137.994 54.5152 137.981 54.5587 137.956C54.6021 137.931 54.6384 137.896 54.664 137.853C54.6896 137.81 54.7037 137.761 54.705 137.711V136.43C54.7049 136.38 54.6916 136.331 54.6666 136.288C54.6416 136.245 54.6056 136.209 54.5623 136.184ZM133.331 130.631L131.576 129.704L128.776 128.225L128.13 127.884C128.108 127.871 128.085 127.864 128.06 127.863C128.036 127.861 128.011 127.865 127.989 127.874C127.955 127.883 127.925 127.903 127.905 127.931C127.884 127.959 127.873 127.993 127.874 128.028V128.032C127.874 128.038 127.874 128.043 127.874 128.048V129.085C127.874 129.114 127.882 129.143 127.897 129.169C127.911 129.195 127.932 129.216 127.958 129.231L129.722 130.06L132.515 131.377L133.164 131.684C133.189 131.698 133.219 131.706 133.248 131.705C133.278 131.705 133.307 131.697 133.332 131.682C133.358 131.668 133.379 131.647 133.394 131.621C133.409 131.596 133.418 131.567 133.418 131.538V130.78C133.418 130.749 133.41 130.719 133.395 130.693C133.38 130.667 133.357 130.645 133.331 130.631ZM131.576 132.952L128.776 131.473L128.13 131.131C128.109 131.119 128.085 131.112 128.06 131.11C128.036 131.109 128.011 131.113 127.989 131.123C127.955 131.131 127.925 131.151 127.905 131.179C127.884 131.207 127.873 131.241 127.874 131.276V131.281C127.874 131.287 127.874 131.292 127.874 131.297V132.33C127.874 132.359 127.882 132.389 127.896 132.414C127.911 132.44 127.932 132.461 127.958 132.476L129.722 133.306L132.515 134.622L133.164 134.929C133.189 134.944 133.219 134.951 133.248 134.951C133.278 134.951 133.307 134.943 133.332 134.928C133.358 134.913 133.38 134.892 133.395 134.867C133.41 134.841 133.418 134.812 133.418 134.783V134.025C133.418 133.995 133.411 133.966 133.396 133.94C133.381 133.915 133.36 133.893 133.335 133.878L131.576 132.952ZM34.6627 28.3388C34.6529 28.2651 34.6166 28.1975 34.5607 28.1485C34.5048 28.0995 34.4329 28.0725 34.3586 28.0725C34.2842 28.0725 34.2124 28.0995 34.1565 28.1485C34.1005 28.1975 34.0643 28.2651 34.0545 28.3388V62.147C34.0545 62.6072 34.0407 63.0674 34.0545 63.5276V63.5874C34.0643 63.6611 34.1005 63.7288 34.1565 63.7777C34.2124 63.8267 34.2842 63.8537 34.3586 63.8537C34.4329 63.8537 34.5048 63.8267 34.5607 63.7777C34.6166 63.7288 34.6529 63.6611 34.6627 63.5874V29.7769C34.6627 29.3167 34.6757 28.8565 34.6627 28.3963V28.3388Z" fill="#6DD3A8"/>
<path d="M65.9189 20.2432L63.4745 21.4236L57.6024 24.2615L50.4694 27.7045L44.3319 30.6682L42.307 31.6461C41.9887 31.7995 41.6551 31.9391 41.346 32.1109L41.3038 32.1308C40.951 32.3011 41.2593 32.8257 41.6106 32.6562L44.055 31.4758L49.9271 28.638L57.0601 25.1949L63.2037 22.229L65.2286 21.2511C65.5469 21.0977 65.8797 20.9581 66.1896 20.7863L66.2318 20.7663C66.5746 20.5984 66.2678 20.0737 65.9189 20.2432ZM59.0412 32.2789L53.795 34.8053L45.4824 38.8098L43.5649 39.7302C43.2128 39.8997 43.5204 40.4243 43.8717 40.2548L49.1187 37.7291L57.4283 33.7277L59.3457 32.8073C59.7009 32.6348 59.3925 32.1101 59.0412 32.2789ZM50.826 38.9632L44.7959 41.979L43.9484 42.4024C43.5986 42.5773 43.9062 43.1019 44.2552 42.927L50.2853 39.912L51.1328 39.4886C51.4833 39.316 51.1758 38.7914 50.826 38.9632ZM21.4127 53.095C21.344 53.0661 21.2672 53.0632 21.1966 53.0868C21.1259 53.1103 21.0662 53.1588 21.0287 53.2231C20.9911 53.2874 20.9783 53.3632 20.9925 53.4363C21.0067 53.5094 21.047 53.5748 21.1059 53.6204C21.4299 53.8087 21.7211 54.0486 21.968 54.3306C22.0253 54.3869 22.1024 54.4183 22.1827 54.4183C22.263 54.4183 22.3401 54.3869 22.3975 54.3306C22.4539 54.2733 22.4855 54.196 22.4855 54.1155C22.4855 54.035 22.4539 53.9577 22.3975 53.9004C22.1127 53.5827 21.7805 53.311 21.4127 53.095ZM26.1688 48.5905C26.1685 48.6305 26.1763 48.6702 26.1916 48.7072C26.2068 48.7442 26.2293 48.7778 26.2577 48.806C26.4511 48.9781 26.6285 49.1673 26.7877 49.3713L26.8552 49.4618C26.8966 49.5289 26.9609 49.5787 27.0362 49.6021C27.1155 49.623 27.1997 49.612 27.2709 49.5715C27.3392 49.5312 27.3892 49.466 27.4105 49.3897C27.4216 49.3505 27.4247 49.3095 27.4194 49.2692C27.4141 49.2288 27.4007 49.19 27.3798 49.155C27.1799 48.87 26.9483 48.6086 26.6896 48.3757C26.6316 48.3202 26.555 48.2885 26.4748 48.2868C26.3943 48.2871 26.3172 48.319 26.26 48.3757C26.2313 48.4037 26.2085 48.4371 26.1928 48.4739C26.1772 48.5108 26.169 48.5504 26.1688 48.5905ZM19.3893 51.7597C19.3196 51.7198 19.237 51.7088 19.1592 51.7292C19.0815 51.7496 19.0148 51.7996 18.9736 51.8686C18.8436 52.0892 18.7652 52.3363 18.7443 52.5915C18.7235 52.8467 18.7607 53.1033 18.8532 53.342C18.8769 53.4171 18.9263 53.4815 18.9928 53.5238C19.0279 53.5442 19.0668 53.5574 19.1071 53.5627C19.1474 53.5679 19.1883 53.5651 19.2275 53.5545C19.3048 53.5324 19.3703 53.4809 19.41 53.4111C19.4498 53.3413 19.4605 53.2586 19.44 53.1809C19.4013 53.0879 19.373 52.991 19.3556 52.8918V52.8726C19.3556 52.8457 19.351 52.8189 19.3494 52.7921C19.3467 52.741 19.3467 52.6898 19.3494 52.6387C19.3494 52.631 19.3571 52.5827 19.3556 52.5719V52.5497C19.3648 52.5002 19.3768 52.4513 19.3916 52.4032C19.3985 52.3802 19.4054 52.3579 19.4139 52.3357L19.4277 52.2981L19.4208 52.315C19.4162 52.3073 19.4507 52.2521 19.4553 52.2429C19.4676 52.2191 19.4814 52.1961 19.4952 52.1723C19.5344 52.1032 19.5453 52.0216 19.5255 51.9446C19.5058 51.8677 19.457 51.8014 19.3893 51.7597ZM24.9469 47.0481L24.9707 47.035C24.9923 47.0241 25.0149 47.0154 25.0382 47.0089C25.0885 46.9912 25.1397 46.9764 25.1916 46.9645L25.253 46.9514L25.2936 46.9438C25.3274 46.9384 25.3212 46.9392 25.2752 46.9438C25.2953 46.9377 25.3164 46.9356 25.3373 46.9376C25.365 46.9376 25.3933 46.9376 25.4209 46.933H25.5674C25.5836 46.933 25.638 46.933 25.6503 46.9415L25.6112 46.9361L25.6526 46.943C25.7554 46.9616 25.8559 46.9912 25.9525 47.0312C25.9917 47.0419 26.0326 47.0447 26.0729 47.0394C26.1132 47.0341 26.152 47.0209 26.1872 47.0005C26.2549 46.9596 26.3047 46.8947 26.3268 46.8187C26.3374 46.7795 26.3402 46.7386 26.335 46.6983C26.3297 46.658 26.3165 46.6192 26.2961 46.584C26.2524 46.5189 26.1886 46.4698 26.1143 46.4444C25.8774 46.3536 25.624 46.3134 25.3706 46.3267C25.1172 46.3399 24.8694 46.4061 24.6432 46.5211C24.5742 46.5624 24.5242 46.629 24.5038 46.7067C24.4835 46.7845 24.4944 46.8671 24.5343 46.9368C24.576 47.0044 24.642 47.0535 24.7186 47.0741C24.7953 47.0948 24.8769 47.0855 24.9469 47.0481ZM23.9583 54.0331C24.3727 54.2393 24.8371 54.3237 25.2976 54.2763C25.758 54.2289 26.1955 54.0518 26.5593 53.7655C26.923 53.4793 27.198 53.0956 27.3522 52.6592C27.5064 52.2228 27.5336 51.7515 27.4305 51.3003C27.3492 50.9168 26.7632 51.0801 26.8437 51.4621C26.916 51.7968 26.8931 52.1451 26.7777 52.4675C26.6623 52.7899 26.459 53.0735 26.1908 53.2864C25.9225 53.4992 25.6001 53.6328 25.2599 53.6719C24.9197 53.711 24.5754 53.6541 24.2659 53.5077C24.1956 53.4693 24.1134 53.4592 24.036 53.4794C23.9586 53.4997 23.8918 53.5487 23.8494 53.6166C23.8092 53.6864 23.7982 53.7692 23.8185 53.8471C23.8389 53.925 23.8891 53.9918 23.9583 54.0331ZM17.1129 57.0282C16.6482 56.9962 16.1814 57.0432 15.7323 57.167C15.6889 57.1728 15.6472 57.1879 15.6101 57.2111C15.573 57.2344 15.5413 57.2654 15.5172 57.3019C15.493 57.3384 15.477 57.3797 15.4701 57.423C15.4632 57.4663 15.4657 57.5105 15.4774 57.5527C15.489 57.595 15.5096 57.6342 15.5377 57.6678C15.5658 57.7014 15.6008 57.7286 15.6402 57.7476C15.6797 57.7666 15.7228 57.7769 15.7666 57.7778C15.8104 57.7787 15.8539 57.7702 15.8941 57.753C15.9969 57.7246 16.1012 57.7 16.2063 57.6809C16.2585 57.6709 16.3099 57.6632 16.3597 57.6548H16.3919L16.4686 57.6471C16.6818 57.6268 16.8963 57.6245 17.1098 57.6402C17.1912 57.6402 17.2692 57.6079 17.3268 57.5504C17.3843 57.4928 17.4166 57.4148 17.4166 57.3334C17.4151 57.2532 17.3826 57.1767 17.326 57.1198C17.2694 57.063 17.1931 57.0301 17.1129 57.0282Z" fill="black"/>
<path d="M30.7765 63.2576C30.7181 62.8584 30.5294 62.4898 30.2396 62.2091C29.9185 61.973 29.5174 61.8727 29.1229 61.9299C29.1755 61.5767 29.2029 61.2201 29.205 60.863L29.2165 60.5769L29.2671 59.2953L29.3875 56.2542C29.802 55.5944 30.0988 54.8678 30.2649 54.1066C30.6184 52.3213 30.2695 50.4684 29.2909 48.934C28.4184 47.4576 27.1531 46.2524 25.6362 45.4526C25.2463 45.2609 24.838 45.1095 24.4174 45.0009C24.415 44.9496 24.4011 44.8995 24.3768 44.8544V44.8467C24.5133 43.4219 24.3342 41.9844 23.8521 40.6367C23.4464 39.513 22.6058 37.9813 21.1523 38.3618C20.6409 38.5293 20.2095 38.8801 19.9412 39.3466C19.7993 39.5697 19.6767 39.8045 19.5746 40.0484C19.4806 40.3477 19.3387 40.6298 19.1543 40.8836C19.1178 40.9357 19.0703 40.979 19.0152 41.0107C18.9601 41.0424 18.8988 41.0616 18.8354 41.067C18.7721 41.0724 18.7084 41.0639 18.6487 41.042C18.5891 41.0201 18.5349 40.9855 18.4901 40.9404C18.2515 40.7249 17.986 40.5414 17.7001 40.3943C17.1472 40.1277 16.5278 40.0306 15.9199 40.1151C15.3505 40.2027 14.8227 40.4659 14.4102 40.8679C13.9977 41.27 13.7211 41.7909 13.6189 42.3578C13.5607 43.0095 13.6632 43.6655 13.9173 44.2684C14.0244 44.5592 14.0977 44.8613 14.1359 45.1688C14.1436 45.2609 14.1758 45.4442 14.1067 45.5209C14.0377 45.5976 13.8076 45.5654 13.7125 45.5592C13.1618 45.4908 12.604 45.6076 12.1271 45.8913C11.6209 46.216 11.2271 46.6891 10.9997 47.2458C10.5889 48.5504 10.6289 49.9551 11.1132 51.2342C11.5383 52.6477 12.2191 53.9712 13.1219 55.1389C13.3155 55.4344 13.5476 55.7026 13.8122 55.9366C13.8568 55.9682 13.9053 55.9939 13.9564 56.0133C13.7704 56.3011 13.6664 56.6342 13.6557 56.9767C13.6751 57.412 13.8156 57.8332 14.0614 58.193C14.3072 58.5528 14.6486 58.8368 15.0471 59.013C15.7931 59.3302 16.6197 59.4059 17.4109 59.2293C17.743 59.1688 18.0696 59.081 18.3873 58.967C18.3927 59.6573 18.4188 60.3476 18.4088 61.031C18.3812 61.5535 18.3896 62.0773 18.4341 62.5987C18.4508 62.736 18.4751 62.8722 18.507 63.0067C18.5813 63.3289 18.7285 63.6297 18.9372 63.8861C19.146 64.1424 19.4107 64.3475 19.7111 64.4855C20.2733 64.7152 20.8691 64.8518 21.4752 64.8897C21.1337 65.4437 20.8458 66.029 20.6154 66.6377C20.2824 67.6616 20.0459 68.7144 19.909 69.7824C19.5605 71.8781 19.0849 73.9508 18.4847 75.9888C17.7269 76.3432 16.9837 76.7313 16.2497 77.1317C14.8372 77.8704 13.4948 78.7361 12.2391 79.718C11.8852 79.9978 11.5543 80.3055 11.2497 80.6383C11.2 80.6694 11.1614 80.7153 11.1392 80.7695C11.1224 80.7902 11.1047 80.8094 11.0886 80.8301L11.0741 80.791C10.8979 80.256 10.7671 79.7072 10.6829 79.1504C10.404 77.1407 10.561 75.0946 11.1431 73.151C11.6284 71.498 12.3198 69.9127 13.2009 68.4324C13.2298 68.3638 13.2327 68.287 13.2092 68.2164C13.1856 68.1457 13.1372 68.086 13.0729 68.0485C13.0085 68.0109 12.9328 67.9981 12.8597 68.0123C12.7866 68.0264 12.7211 68.0668 12.6755 68.1256C11.1919 70.5591 10.2718 73.2938 9.98262 76.1292C9.91526 76.9253 9.91731 77.7257 9.98876 78.5215C10.0568 79.2949 10.2065 80.059 10.4351 80.8009C10.5184 81.0822 10.6232 81.3566 10.7488 81.6216C10.7762 81.6669 10.8147 81.7043 10.8607 81.7303C10.9067 81.7563 10.9587 81.7699 11.0115 81.7699C11.0644 81.7699 11.1164 81.7563 11.1624 81.7303C11.2084 81.7043 11.2469 81.6669 11.2742 81.6216C11.2857 81.6017 11.2995 81.5817 11.3118 81.5618C11.7192 82.9915 12.2736 84.3751 12.9662 85.6905C13.7078 87.1635 14.8533 88.3949 16.2689 89.2409C17.6075 89.9049 19.117 90.1438 20.5952 89.9257C22.0734 89.7076 23.4496 89.0429 24.5394 88.0206C26.6632 86.1415 27.8903 83.3857 28.6811 80.7158C29.6483 77.4415 29.8968 74.0207 30.2151 70.6368C30.3079 69.6397 30.4053 68.6487 30.5273 67.657C30.6492 66.6653 30.8701 65.6682 30.9107 64.6657C30.9299 64.1924 30.8847 63.7187 30.7765 63.2576ZM18.8629 58.2721C18.8193 58.247 18.7704 58.2325 18.7202 58.2299H18.7087C18.683 58.2286 18.6572 58.2304 18.632 58.2353C18.6197 58.2353 18.6059 58.2414 18.5921 58.2453L18.5752 58.2506C18.5555 58.256 18.536 58.2624 18.5169 58.2698L18.4794 58.2913L18.4073 58.3166C18.1656 58.4113 17.9184 58.4912 17.6671 58.5559C16.9622 58.7729 16.2083 58.7729 15.5034 58.5559C15.1323 58.4438 14.8099 58.2095 14.5888 57.8911C14.3677 57.5726 14.2608 57.1887 14.2854 56.8018C14.3676 56.4684 14.5572 56.1713 14.825 55.9564C15.0929 55.7415 15.424 55.6208 15.7673 55.613C16.1768 55.6051 16.5762 55.7408 16.8963 55.9964C16.9514 56.0469 17.0225 56.0763 17.0971 56.0796C17.1717 56.0828 17.2451 56.0596 17.3043 56.0141C17.3125 56.0067 17.3202 55.9987 17.3273 55.9903L17.3319 55.9842C17.3686 55.9536 17.3958 55.9131 17.4102 55.8676C17.4246 55.8221 17.4256 55.7733 17.4132 55.7272C17.4132 55.7165 17.4132 55.7058 17.4056 55.6942C17.3979 55.6827 17.3948 55.659 17.3895 55.6413C17.2319 55.1369 17.1152 54.6205 17.0405 54.0974C16.8473 52.9462 16.8541 51.7703 17.0604 50.6214C17.3159 49.1806 18.0551 47.8701 19.1558 46.9061C19.8704 46.258 20.7387 45.8034 21.6784 45.5853C22.618 45.3671 23.5978 45.3928 24.5248 45.6597C26.4791 46.3848 28.0851 47.8252 29.0178 49.6895C29.5338 50.63 29.798 51.6879 29.7845 52.7606C29.7711 53.8333 29.4805 54.8843 28.9411 55.8116C28.4316 56.6698 27.7341 57.4012 26.9009 57.9507C26.7625 57.7691 26.5685 57.6377 26.3484 57.5766C26.1284 57.5155 25.8944 57.5281 25.6822 57.6125C25.1816 57.914 24.8088 58.3885 24.6345 58.9463C24.5378 58.9713 24.4406 58.9943 24.343 59.0153C22.5016 59.3874 20.5886 59.1325 18.9089 58.2913L18.8629 58.2721ZM27.76 60.2463C27.6647 59.6386 27.4915 59.0457 27.2445 58.4823L27.2361 58.4646C27.3128 58.4125 27.3941 58.3641 27.4708 58.3112C27.9393 57.9702 28.3659 57.575 28.7417 57.1339L28.6121 60.3944L28.5799 61.2189C28.5825 61.5207 28.5383 61.8211 28.4487 62.1094C28.3008 62.173 28.1614 62.255 28.0338 62.3533C27.8939 62.4606 27.7792 62.5972 27.6978 62.7536C27.8707 61.9295 27.8933 61.0809 27.7646 60.2486L27.76 60.2463ZM20.5886 64.1373C20.2795 64.0992 19.9856 63.9815 19.7356 63.7959C19.4855 63.6102 19.2879 63.3629 19.162 63.0781C19.0718 62.8127 19.0201 62.5359 19.0086 62.2559C18.9856 61.8724 19.0086 61.4789 19.0162 61.1054C19.0301 60.4066 19.0032 59.7071 18.9963 59.0084C20.6855 59.7614 22.5651 59.978 24.3814 59.6289C24.2955 59.892 24.2203 60.1581 24.1513 60.4258C24.0822 60.6935 24.0078 60.9804 23.9296 61.2549C23.8375 61.5977 23.7198 61.933 23.5775 62.2582C23.5356 62.3773 23.477 62.4899 23.4034 62.5926C23.2815 62.7283 23.122 62.8403 22.9923 62.9684C22.7306 63.2276 22.4843 63.5019 22.2545 63.7898C22.1149 63.964 21.9822 64.1427 21.8541 64.3267C21.4299 64.292 21.0084 64.2295 20.5924 64.1396L20.5886 64.1373ZM30.2711 65.1175C30.179 66.0318 30.0072 66.9391 29.8983 67.8526C29.7879 68.7791 29.6966 69.7087 29.6099 70.6375C29.5271 71.5303 29.4489 72.4246 29.3599 73.322C29.2841 74.1102 29.1949 74.897 29.0922 75.682C28.9073 77.1687 28.6208 78.6409 28.2347 80.0884C27.6379 82.6594 26.422 85.0457 24.6928 87.0397C23.7948 88.0558 22.6199 88.7879 21.312 89.1464C20.0042 89.5048 18.6202 89.4739 17.3296 89.0576C14.3683 87.9646 12.9578 84.6927 12.0673 81.9054C11.9676 81.5986 11.8748 81.2834 11.7828 80.9712C12.0113 80.7295 12.2546 80.5023 12.5114 80.2909C13.1095 79.7972 13.7398 79.3439 14.3982 78.9341C15.5794 78.188 16.7985 77.5037 18.0506 76.8839L18.2439 76.7896C17.8895 77.9382 17.4216 79.0486 16.8472 80.1045C16.1719 80.3264 15.5195 80.6127 14.899 80.9597C14.8585 80.9764 14.822 81.0016 14.792 81.0337C14.762 81.0657 14.7393 81.1037 14.7253 81.1453C14.7112 81.1869 14.7063 81.2309 14.7108 81.2746C14.7152 81.3182 14.729 81.3604 14.7511 81.3982C14.7733 81.4361 14.8033 81.4688 14.8391 81.494C14.8749 81.5193 14.9158 81.5366 14.9589 81.5448C15.002 81.553 15.0463 81.5518 15.0889 81.5414C15.1315 81.5309 15.1714 81.5115 15.2058 81.4843C15.5634 81.2828 15.933 81.1035 16.3126 80.9474C16.0774 81.2819 15.8171 81.5981 15.5341 81.8931C15.3793 82.0537 15.2154 82.2053 15.0432 82.3472C14.741 82.5965 15.1729 83.0245 15.4727 82.7775C17.0067 81.5112 17.8903 79.54 18.5607 77.7153C19.2924 75.639 19.8566 73.5073 20.248 71.3409C20.4198 70.4573 20.5732 69.5707 20.7213 68.6825C20.9073 67.5169 21.3069 66.3957 21.9001 65.3752C21.983 65.2333 22.0727 65.0945 22.1632 64.9564C22.2936 64.7586 22.4286 64.5637 22.572 64.3758C22.8311 64.0357 23.1129 63.7136 23.4157 63.4117C23.5492 63.279 23.6941 63.1594 23.8307 63.0282C24.0794 62.7143 24.2568 62.35 24.3507 61.9606C24.5371 61.4237 24.6613 60.876 24.8109 60.3322C24.8623 60.1436 24.9175 59.9564 24.9788 59.77C25.0134 59.665 25.0517 59.5607 25.0916 59.4571C25.1877 59.2046 25.3057 58.9611 25.4444 58.7292L25.4697 58.687C25.6423 58.4017 25.877 58.0297 26.2566 58.1847C26.3047 58.2055 26.3499 58.2326 26.3909 58.2652C26.546 58.4048 26.6629 58.5817 26.7306 58.7791C26.7759 58.8895 26.815 59.0008 26.8503 59.0974C26.985 59.4626 27.0876 59.8388 27.1571 60.2218C27.1625 60.2525 27.1694 60.2832 27.174 60.3138C27.2981 61.0838 27.2768 61.8703 27.1111 62.6325C26.7962 62.5004 26.465 62.4116 26.1263 62.3686C25.7389 62.3203 25.7428 62.9285 26.1263 62.9768C26.5153 63.0279 26.8897 63.1585 27.2261 63.3603C27.4104 63.4702 27.5828 63.5987 27.7408 63.7438C27.8247 63.8197 27.9043 63.9 27.9793 63.9847C28.4527 64.5751 28.7579 65.2823 28.8629 66.0318C28.9227 66.3631 28.9135 66.7006 28.5239 66.7865C28.1609 66.8343 27.7934 66.7412 27.4969 66.5265C26.7657 66.0791 26.0841 65.5554 25.4636 64.9641C25.1775 64.698 24.7472 65.1259 25.0333 65.3944C25.6669 65.9307 26.2273 66.5481 26.7 67.2306C26.993 67.7023 27.3519 68.4754 26.9147 68.9778C26.3962 69.5737 25.2864 69.0545 24.7342 68.7699C24.0503 68.4269 23.4588 67.9248 23.0092 67.3057C22.786 66.9882 22.2583 67.2912 22.4846 67.6125C22.8994 68.1977 23.4279 68.6934 24.0385 69.0698C24.688 69.5141 25.4435 69.7787 26.2283 69.8368C26.5512 69.8561 26.8709 69.7633 27.1335 69.5743C27.396 69.3853 27.5853 69.1114 27.6694 68.7991C27.7733 68.2276 27.6603 67.638 27.3527 67.1454C27.5995 67.3064 27.8843 67.3995 28.1785 67.4154C28.4727 67.4312 28.7659 67.3694 29.0286 67.2359C29.7004 66.8126 29.4888 65.9459 29.3139 65.3108C29.1306 64.5932 28.7655 63.935 28.2539 63.3994L28.2247 63.3688C28.2002 63.345 28.1734 63.322 28.148 63.299C28.17 63.2592 28.1835 63.2153 28.1879 63.1701C28.2148 62.894 28.5346 62.7168 28.7662 62.6332C28.8056 62.6194 28.847 62.6064 28.8905 62.5941C29.0988 62.5321 29.3179 62.5152 29.5332 62.5442C29.6436 62.5592 29.7487 62.6002 29.84 62.6639C29.9731 62.7768 30.0688 62.9273 30.1146 63.0957C30.1779 63.3064 30.2241 63.5219 30.2527 63.74C30.319 64.1964 30.3251 64.6595 30.2711 65.1175Z" fill="black"/>
</svg>
