<svg width="398" height="398" viewBox="0 0 398 398" fill="none" xmlns="http://www.w3.org/2000/svg">
<path d="M316.097 179.877C316.097 179.877 308.767 214.478 289.635 229.133C270.503 243.789 267.65 195.76 218.394 187.207C187.768 181.887 161.583 187.714 138.44 202.646C117.283 216.293 96.975 239.682 86.9435 257.985C71.8902 285.487 76.6175 305.717 92.7431 310.418C98.7606 311.943 105.047 312.072 111.122 310.796C117.197 309.52 122.9 306.873 127.796 303.057C127.613 303.121 127.413 303.117 127.233 303.044C127.053 302.971 126.906 302.836 126.819 302.662C126.732 302.489 126.712 302.289 126.762 302.102C126.812 301.914 126.928 301.752 127.089 301.644C128.854 300.804 130.941 299.557 130.963 297.351C130.965 296.862 130.862 296.379 130.661 295.934C130.461 295.488 130.167 295.091 129.8 294.769C129.433 294.447 129.001 294.207 128.533 294.066C128.066 293.925 127.574 293.885 127.089 293.95C127.004 293.957 126.917 293.945 126.836 293.917C126.755 293.889 126.68 293.845 126.616 293.787C112.076 295.823 99.3207 274.007 113.757 262.352C113.832 261.687 113.754 261.015 113.528 260.385C113.303 259.756 112.936 259.186 112.456 258.721C110.043 256.218 107.172 256.719 107.566 255.277C107.594 255.176 107.642 255.082 107.706 254.999C107.771 254.917 107.851 254.848 107.943 254.797C108.034 254.746 108.134 254.713 108.238 254.701C108.342 254.689 108.448 254.697 108.548 254.726C111.825 255.893 114.851 257.599 115.357 261.07C121.62 256.096 147.801 238.528 149.578 247.33C149.656 248.142 149.569 248.961 149.322 249.739C149.076 250.516 148.675 251.236 148.143 251.855C149.427 251.873 150.707 252.006 151.967 252.252C155.767 252.899 162.618 254.18 163.308 258.378C163.807 261.379 159.896 262.829 156.941 263.818C162.114 264.325 164.396 268.991 162.526 271.864C160.942 273.715 158.728 274.914 156.313 275.23C158.917 276.213 161.754 278.288 160.638 281.344C158.869 286.197 149.864 286.193 143.802 287.576C138.969 288.668 134.71 291.481 130.03 292.983C130.726 293.373 131.318 293.926 131.755 294.594C132.192 295.262 132.461 296.026 132.539 296.821C132.617 297.615 132.502 298.416 132.204 299.157C131.906 299.897 131.433 300.555 130.826 301.073C132.678 300.146 134.324 300.078 134.258 303.081C134.071 310.762 130.804 332.638 130.163 342.825C154.554 342.669 245.794 342.679 267.027 342.813L260.615 294.362C260.406 294.368 260.203 294.291 260.05 294.149C259.897 294.006 259.806 293.809 259.797 293.6C259.654 290.743 259.523 287.884 259.379 285.015C259.209 284.314 259.175 283.586 259.28 282.872C259.258 282.343 259.226 281.802 259.202 281.281C258.906 280.921 259.109 281.082 258.078 275.3C254.831 273.462 252.591 268.442 251.666 265.036C251.619 264.835 251.652 264.625 251.758 264.449C251.863 264.272 252.033 264.143 252.231 264.089C252.429 264.035 252.641 264.059 252.821 264.158C253.002 264.256 253.137 264.42 253.2 264.616C253.988 267.747 255.525 270.641 257.678 273.048C256.413 265.686 256.144 264.797 255.888 262.376C255.778 261.359 257.38 261.381 257.479 262.376C257.479 262.461 259.487 274.2 259.519 274.313C259.618 274.426 259.685 274.563 259.712 274.711C259.74 274.859 259.726 275.012 259.674 275.153C259.883 276.323 260.106 277.492 260.293 278.672C262.232 279.878 264.526 280.384 266.793 280.109C267.487 280.031 267.698 280.747 267.433 281.255C287.508 283.143 336.18 278.209 349.866 190.05C348.262 189.568 354.006 191.291 316.097 179.877Z" fill="#FCAFB7"/>
<path d="M230.994 120.568C229.406 121.293 227.983 122.337 226.816 123.636C226.361 120.035 225.622 115.849 225.083 113.263C224.872 112.258 223.34 112.688 223.549 113.682C227.035 130.733 227.614 125.137 229 112C217.381 126.44 236.126 109.618 222 98.5C217.707 95.1242 198.018 100.207 195.753 88.5C192.791 73.1869 154.04 113.111 153.5 106C153.422 104.985 151.97 136.867 152.045 137.894C153.39 156.345 160.04 172.427 177.673 178.266C176.591 185.14 175.2 192.613 177.727 199.324C179.681 204.521 184.902 207.8 190.122 209.026C200.438 211.429 211.701 206.069 214.568 195.417C216.345 188.877 214.729 179.709 212.626 173.145C221.679 166.5 225.833 156.21 227.16 145.056C227.714 140.343 227.359 140.826 227.614 140.741C243.427 132.542 242.295 115.594 230.994 120.568ZM213.325 183.099C214.499 191.738 213.637 199.559 206.216 204.642C197.161 210.83 184.187 207.921 179.916 200.265C176.647 194.408 178.213 185.178 179.231 178.756C184.597 180.297 190.228 180.682 195.753 179.884C201.278 179.087 206.571 177.126 211.282 174.13C212.207 177.059 212.89 180.059 213.325 183.099ZM227.618 138.942C227.746 134.583 227.565 130.22 227.075 125.886C230.012 121.418 235.232 120.572 236.679 121.836C239.19 123.988 238.437 132.928 227.618 138.942Z" fill="#FFCEB6"/>
<path d="M213.325 183.099C214.499 191.738 213.637 199.559 206.216 204.642C197.161 210.83 184.187 207.921 179.916 200.265C176.647 194.408 178.213 185.178 179.231 178.756C184.597 180.297 190.228 180.682 195.753 179.884C201.278 179.087 206.571 177.126 211.282 174.13C212.207 177.059 212.89 180.059 213.325 183.099Z" fill="#FFCEB6"/>
<path d="M179.066 158.388C184.1 160.167 193.019 159.821 200.731 155.298C203.925 153.388 206.81 151.002 209.286 148.223C210.056 157.831 203.83 163.979 194.432 166.611C194.237 166.674 194.074 166.81 193.977 166.99C193.88 167.169 193.856 167.38 193.909 167.577C193.963 167.774 194.091 167.944 194.266 168.049C194.441 168.155 194.65 168.189 194.849 168.145C200.557 166.885 205.531 163.412 208.679 158.488C210.736 154.731 211.415 150.374 210.599 146.17C210.56 146.037 210.487 145.916 210.387 145.82C210.287 145.723 210.165 145.654 210.031 145.618C209.896 145.583 209.755 145.583 209.621 145.618C209.487 145.653 209.364 145.722 209.264 145.818C205.092 151.042 199.431 154.875 193.031 156.81C188.597 158.058 183.906 158.066 179.468 156.832C178.507 156.512 178.095 158.046 179.066 158.388ZM204.284 120.677C204.318 120.665 204.352 120.644 204.384 120.632C204.415 120.62 204.433 120.62 204.473 120.6C206.868 119.677 209.493 119.525 211.978 120.168C214.464 120.81 216.686 122.213 218.335 124.181C219.041 124.931 220.167 123.805 219.461 123.055C217.252 120.577 214.275 118.914 211.007 118.332C208.455 117.932 205.841 118.277 203.48 119.326C202.563 119.76 203.377 121.129 204.284 120.677ZM208.281 133.17C208.713 128.234 214.367 130.524 215.245 135.955C215.384 136.865 216.996 136.713 216.779 135.526C215.422 127.036 204.161 125.395 207.099 138.295C207.332 139.29 208.866 138.87 208.633 137.875C208.302 136.33 208.183 134.747 208.281 133.17ZM164.212 146.976C164.442 147.971 165.978 147.551 165.746 146.558C165.274 144.791 164.922 140.957 166.297 139.582C167.936 138.271 171.607 139.98 172.357 144.636C172.414 144.839 172.55 145.012 172.734 145.115C172.918 145.219 173.136 145.245 173.339 145.188C173.542 145.131 173.715 144.996 173.818 144.812C173.922 144.627 173.948 144.41 173.891 144.206C172.538 135.735 161.255 134.079 164.212 146.976Z" fill="black"/>
<path d="M315.136 299.073C307.364 303.938 315.896 318.287 323.788 310.969C324.536 310.278 325.125 309.433 325.514 308.491C325.903 307.55 326.083 306.535 326.041 305.518C325.885 300.243 319.966 296.051 315.136 299.073Z" fill="#F55555"/>
<path d="M140.438 228.019C139.622 230.326 138.816 232.632 137.999 234.938C137.942 235.142 137.968 235.36 138.071 235.544C138.175 235.728 138.347 235.863 138.551 235.92C138.754 235.977 138.972 235.951 139.156 235.848C139.34 235.744 139.476 235.572 139.533 235.368C140.35 233.062 141.156 230.754 141.972 228.45C142.029 228.247 142.003 228.029 141.9 227.845C141.797 227.66 141.624 227.525 141.421 227.467C141.217 227.41 141 227.436 140.815 227.539C140.631 227.643 140.495 227.815 140.438 228.019ZM156.773 217.263C155.069 215.731 153.374 214.195 151.663 212.661C151.514 212.512 151.311 212.428 151.1 212.428C150.889 212.428 150.687 212.512 150.537 212.661C150.388 212.81 150.304 213.013 150.304 213.224C150.304 213.435 150.388 213.638 150.537 213.787C152.236 215.322 153.939 216.856 155.646 218.389C155.796 218.538 155.998 218.622 156.209 218.622C156.421 218.622 156.623 218.538 156.773 218.389C156.922 218.24 157.006 218.037 157.006 217.826C157.006 217.615 156.922 217.412 156.773 217.263ZM121.941 229.001V234.288C121.941 234.499 122.025 234.701 122.174 234.851C122.323 235 122.526 235.084 122.737 235.084C122.948 235.084 123.15 235 123.299 234.851C123.449 234.701 123.532 234.499 123.532 234.288V229.001C123.532 228.79 123.449 228.588 123.299 228.439C123.15 228.289 122.948 228.206 122.737 228.206C122.526 228.206 122.323 228.289 122.174 228.439C122.025 228.588 121.941 228.79 121.941 229.001ZM109.05 244.486C106.732 248.406 104.188 248.553 104.924 249.729C105.033 249.909 105.208 250.04 105.412 250.093C105.616 250.147 105.832 250.119 106.016 250.015C107.804 248.772 109.305 247.161 110.419 245.29C110.998 244.409 109.595 243.575 109.05 244.486ZM99.0963 267.826C96.9459 266.457 94.9412 264.871 93.1136 263.093C92.3755 262.377 91.2494 263.491 91.9875 264.219C93.9129 266.092 96.0249 267.764 98.2905 269.207C98.4736 269.314 98.6917 269.344 98.8967 269.29C99.1017 269.236 99.2769 269.103 99.3838 268.92C99.4907 268.736 99.5204 268.518 99.4665 268.313C99.4126 268.108 99.2794 267.933 99.0963 267.826ZM94.6595 276.336C93.1693 276.451 91.6751 276.59 90.179 276.712C89.9679 276.712 89.7655 276.796 89.6162 276.945C89.467 277.094 89.3831 277.297 89.3831 277.508C89.3831 277.719 89.467 277.921 89.6162 278.07C89.7655 278.22 89.9679 278.303 90.179 278.303C91.6692 278.182 93.1633 278.051 94.6595 277.927C94.8706 277.927 95.073 277.844 95.2223 277.694C95.3715 277.545 95.4554 277.343 95.4554 277.132C95.4554 276.921 95.3715 276.718 95.2223 276.569C95.073 276.42 94.8706 276.336 94.6595 276.336ZM102.351 289.811C101.446 292 100.561 294.188 99.6474 296.391C99.5904 296.594 99.6166 296.812 99.7201 296.996C99.8237 297.18 99.9961 297.316 100.2 297.373C100.403 297.43 100.621 297.404 100.805 297.3C100.989 297.196 101.124 297.024 101.181 296.821C102.087 294.632 102.972 292.444 103.885 290.243C103.943 290.04 103.917 289.822 103.813 289.637C103.71 289.453 103.538 289.317 103.334 289.26C103.131 289.203 102.913 289.229 102.729 289.332C102.544 289.436 102.409 289.608 102.351 289.811ZM149.202 324.754C149.112 324.702 149.012 324.667 148.908 324.653C148.804 324.639 148.698 324.645 148.597 324.672C148.495 324.698 148.4 324.744 148.317 324.808C148.233 324.871 148.163 324.95 148.11 325.041C148.057 325.132 148.022 325.232 148.008 325.335C147.994 325.439 148 325.545 148.027 325.646C148.054 325.748 148.1 325.843 148.163 325.927C148.227 326.01 148.306 326.08 148.396 326.133C149.686 326.716 150.865 327.515 151.884 328.497C152.034 328.646 152.237 328.73 152.448 328.73C152.659 328.73 152.862 328.645 153.011 328.496C153.161 328.346 153.244 328.143 153.244 327.932C153.244 327.721 153.16 327.518 153.01 327.369C151.894 326.293 150.607 325.409 149.202 324.754ZM161.253 314.17L156.321 321.058C156.215 321.241 156.187 321.458 156.241 321.662C156.296 321.866 156.43 322.04 156.612 322.145C156.795 322.251 157.013 322.279 157.216 322.225C157.42 322.17 157.594 322.036 157.7 321.854L162.632 314.968C162.738 314.785 162.767 314.567 162.712 314.363C162.658 314.159 162.524 313.985 162.341 313.879C162.159 313.774 161.941 313.745 161.737 313.799C161.533 313.854 161.359 313.987 161.253 314.17ZM178.692 311.852C178.543 311.703 178.34 311.619 178.129 311.619C177.918 311.619 177.715 311.703 177.566 311.852C177.416 312.001 177.333 312.204 177.333 312.415C177.333 312.626 177.416 312.829 177.566 312.978L183.636 319.114C183.786 319.257 183.987 319.336 184.194 319.333C184.402 319.331 184.6 319.247 184.747 319.101C184.894 318.954 184.978 318.756 184.98 318.548C184.983 318.341 184.905 318.14 184.762 317.99C182.741 315.947 180.709 313.897 178.692 311.852ZM216.48 325.696C215.674 327.868 214.865 330.041 214.053 332.215C213.996 332.419 214.022 332.637 214.125 332.821C214.228 333.005 214.401 333.141 214.604 333.198C214.807 333.256 215.025 333.23 215.21 333.126C215.394 333.023 215.53 332.851 215.587 332.647C216.393 330.475 217.202 328.301 218.014 326.125C218.042 326.025 218.05 325.919 218.038 325.815C218.026 325.712 217.993 325.611 217.941 325.52C217.89 325.429 217.821 325.349 217.739 325.284C217.657 325.219 217.563 325.172 217.462 325.143C217.361 325.115 217.256 325.107 217.152 325.12C217.048 325.132 216.948 325.165 216.857 325.216C216.766 325.267 216.685 325.336 216.621 325.418C216.556 325.501 216.508 325.595 216.48 325.696ZM235.033 313.442C233.262 312.087 231.49 310.75 229.713 309.403C229.53 309.296 229.312 309.266 229.107 309.32C228.903 309.374 228.728 309.506 228.621 309.689C228.514 309.872 228.484 310.09 228.538 310.295C228.591 310.5 228.724 310.675 228.907 310.782C230.684 312.129 232.451 313.475 234.227 314.82C234.318 314.873 234.418 314.908 234.522 314.922C234.626 314.936 234.731 314.93 234.833 314.903C234.934 314.877 235.029 314.83 235.113 314.767C235.196 314.704 235.267 314.624 235.32 314.534C235.373 314.443 235.407 314.343 235.421 314.239C235.436 314.136 235.429 314.03 235.403 313.928C235.376 313.827 235.33 313.732 235.266 313.648C235.203 313.565 235.124 313.495 235.033 313.442ZM245.451 318.609L239.802 326.368C239.749 326.459 239.715 326.559 239.7 326.663C239.686 326.766 239.693 326.872 239.719 326.974C239.746 327.075 239.792 327.17 239.855 327.254C239.919 327.337 239.998 327.407 240.089 327.46C240.179 327.513 240.279 327.548 240.383 327.562C240.487 327.576 240.593 327.57 240.694 327.543C240.796 327.517 240.891 327.47 240.974 327.407C241.058 327.344 241.128 327.264 241.181 327.174C243.069 324.587 244.943 322.001 246.831 319.404C246.884 319.314 246.918 319.214 246.931 319.11C246.945 319.006 246.938 318.901 246.911 318.8C246.883 318.699 246.837 318.604 246.773 318.521C246.709 318.438 246.63 318.368 246.539 318.316C246.448 318.264 246.348 318.23 246.244 318.216C246.141 318.203 246.035 318.21 245.934 318.237C245.833 318.264 245.738 318.311 245.655 318.375C245.572 318.438 245.503 318.518 245.451 318.609ZM232.196 286.17C229.822 284.682 227.331 283.39 224.747 282.307C224.543 282.253 224.327 282.281 224.143 282.384C223.96 282.487 223.824 282.658 223.764 282.86C223.43 284.139 225.069 283.554 231.392 287.549C232.264 288.092 233.065 286.715 232.196 286.17ZM241.545 274.991C241.715 272.813 241.659 270.623 241.378 268.457C241.378 268.246 241.294 268.044 241.145 267.894C240.996 267.745 240.793 267.661 240.582 267.661C240.371 267.661 240.169 267.745 240.019 267.894C239.87 268.044 239.786 268.246 239.786 268.457C240.073 270.623 240.128 272.813 239.951 274.991C239.951 275.202 240.035 275.405 240.185 275.554C240.334 275.704 240.537 275.788 240.748 275.788C240.96 275.788 241.162 275.704 241.312 275.554C241.461 275.405 241.545 275.202 241.545 274.991ZM272.105 258.059L269.389 264.625C269.332 264.828 269.359 265.046 269.462 265.23C269.566 265.414 269.738 265.55 269.941 265.607C270.145 265.664 270.363 265.638 270.547 265.534C270.731 265.431 270.866 265.258 270.923 265.055L273.639 258.489C273.993 257.691 272.585 256.913 272.105 258.059ZM289.178 250.356C287.465 249.069 285.755 247.775 284.047 246.472C283.344 245.933 282.256 247.085 283.241 247.851C284.952 249.143 286.663 250.438 288.374 251.736C289.106 252.3 290.141 251.086 289.178 250.356ZM302.323 254.838C301.648 256.871 301.352 259.011 301.45 261.151C301.45 261.362 301.533 261.565 301.683 261.714C301.832 261.863 302.034 261.947 302.245 261.947C302.457 261.947 302.659 261.863 302.808 261.714C302.957 261.565 303.041 261.362 303.041 261.151C302.951 259.157 303.227 257.163 303.857 255.268C303.914 255.065 303.888 254.847 303.784 254.663C303.681 254.479 303.508 254.343 303.305 254.286C303.102 254.229 302.884 254.255 302.7 254.359C302.516 254.462 302.38 254.635 302.323 254.838ZM311.837 222.104C309.654 221.447 307.472 220.8 305.292 220.162C305.091 220.115 304.881 220.148 304.704 220.254C304.528 220.359 304.399 220.529 304.345 220.727C304.291 220.925 304.315 221.137 304.413 221.317C304.512 221.498 304.676 221.633 304.872 221.696C307.06 222.346 309.231 222.997 311.417 223.637C311.618 223.684 311.828 223.651 312.005 223.545C312.181 223.44 312.31 223.27 312.364 223.072C312.418 222.874 312.394 222.662 312.296 222.482C312.197 222.301 312.033 222.166 311.837 222.104ZM333.599 223.317H326.272C326.061 223.317 325.858 223.401 325.709 223.55C325.56 223.7 325.476 223.902 325.476 224.113C325.476 224.324 325.56 224.526 325.709 224.676C325.858 224.825 326.061 224.909 326.272 224.909H333.599C333.81 224.909 334.013 224.825 334.162 224.676C334.311 224.526 334.395 224.324 334.395 224.113C334.395 223.902 334.311 223.7 334.162 223.55C334.013 223.401 333.81 223.317 333.599 223.317ZM318.194 198.022C318.042 197.878 317.84 197.798 317.631 197.798C317.422 197.798 317.22 197.878 317.068 198.022C316.994 198.095 316.935 198.183 316.895 198.28C316.855 198.376 316.835 198.48 316.835 198.585C316.835 198.689 316.855 198.793 316.895 198.889C316.935 198.986 316.994 199.074 317.068 199.148C318.757 200.558 320.45 201.973 322.143 203.397C322.296 203.54 322.498 203.62 322.707 203.62C322.917 203.62 323.118 203.54 323.271 203.397C323.345 203.323 323.404 203.236 323.444 203.139C323.484 203.042 323.505 202.939 323.505 202.834C323.505 202.73 323.484 202.626 323.444 202.53C323.404 202.433 323.345 202.345 323.271 202.271C321.583 200.847 319.89 199.43 318.194 198.022ZM221.667 206.609V213.936C221.667 214.147 221.751 214.35 221.9 214.499C222.049 214.648 222.252 214.732 222.463 214.732C222.674 214.732 222.876 214.648 223.026 214.499C223.175 214.35 223.259 214.147 223.259 213.936V206.609C223.259 206.398 223.175 206.195 223.026 206.046C222.876 205.897 222.674 205.813 222.463 205.813C222.252 205.813 222.049 205.897 221.9 206.046C221.751 206.195 221.667 206.398 221.667 206.609ZM243.033 222.291C241.268 224.322 239.492 226.351 237.725 228.385C237.582 228.535 237.504 228.736 237.507 228.943C237.51 229.151 237.593 229.349 237.74 229.496C237.887 229.642 238.085 229.726 238.293 229.728C238.501 229.731 238.701 229.652 238.851 229.509C240.618 227.477 242.395 225.448 244.159 223.417C244.923 222.565 243.66 221.568 243.033 222.291ZM238.278 213.727C238.806 212.361 239.107 210.919 239.171 209.456C239.171 209.245 239.088 209.042 238.938 208.893C238.789 208.744 238.587 208.66 238.376 208.66C237.027 208.727 238.067 210.031 236.742 213.296C236.685 213.499 236.711 213.717 236.814 213.902C236.918 214.086 237.091 214.222 237.294 214.279C237.498 214.337 237.716 214.311 237.901 214.207C238.085 214.104 238.221 213.931 238.278 213.727ZM193.116 224.984C190.697 223.462 188.282 221.926 185.854 220.408C184.983 219.855 184.187 221.236 185.049 221.787C187.467 223.322 189.887 224.847 192.311 226.363C193.182 226.902 193.976 225.526 193.116 224.984ZM220.288 253.274C218.853 254.819 217.574 256.501 216.47 258.296C216.417 258.387 216.382 258.487 216.368 258.591C216.353 258.695 216.36 258.8 216.386 258.902C216.413 259.003 216.459 259.099 216.523 259.182C216.586 259.266 216.666 259.336 216.757 259.388C217.964 260.039 217.65 258.465 221.414 254.399C221.557 254.248 221.636 254.048 221.633 253.84C221.63 253.633 221.546 253.434 221.399 253.288C221.252 253.141 221.054 253.058 220.846 253.055C220.639 253.053 220.439 253.131 220.288 253.274ZM257.647 242.62C252.979 241.212 252.331 238.715 251.302 239.739C251.228 239.813 251.169 239.901 251.129 239.998C251.089 240.094 251.069 240.198 251.069 240.302C251.069 240.407 251.089 240.51 251.129 240.607C251.169 240.704 251.228 240.791 251.302 240.865C253.029 242.359 255.046 243.478 257.227 244.154C257.329 244.187 257.437 244.198 257.544 244.188C257.65 244.178 257.754 244.146 257.848 244.095C257.942 244.044 258.025 243.974 258.092 243.89C258.158 243.806 258.207 243.709 258.235 243.606C258.264 243.502 258.271 243.394 258.256 243.288C258.242 243.182 258.206 243.08 258.151 242.988C258.096 242.896 258.023 242.816 257.936 242.752C257.85 242.689 257.751 242.644 257.647 242.62Z" fill="#B26EE6"/>
<path d="M167.082 286.656C165.713 242.98 165.56 245.531 166.189 244.705C166.456 244.438 166.774 244.228 167.125 244.087C167.476 243.947 167.852 243.88 168.23 243.889C179.338 242.666 190.507 242.076 201.683 242.123C203.155 242.123 203.79 242.536 203.79 244.429C204.114 286.781 204.243 284.443 203.867 285.09C203.524 285.552 203.032 285.883 202.475 286.027C191.323 290.142 179.129 290.487 167.762 287.008L167.082 286.656Z" fill="#FF8684"/>
<path d="M212.683 294.402C212.082 290.263 212.936 286.044 215.098 282.465C215.894 281.171 216.526 281.259 217.318 281.814C220.613 284.149 223.303 287.236 225.165 290.819C225.221 291.404 224.568 291.778 224.017 291.989C220.386 293.374 216.563 294.188 212.683 294.402Z" fill="#ACEAC7"/>
<path d="M190.478 254.628C187.367 256.074 187.156 259.351 186.869 262.353C186.587 264.751 183.332 261.327 182.588 260.831C180.735 259.426 178.555 258.518 176.253 258.193C173.865 258.06 172.246 260.356 171.794 262.465C170.966 266.329 174.442 270.013 177.166 272.256C180.394 274.774 184.027 276.725 187.91 278.025C189.37 278.549 189.832 278.266 190.496 277.363C193.502 273.839 195.809 269.775 197.295 265.387C199.209 258.163 194.74 252.64 190.478 254.628Z" fill="#F55555"/>
<path d="M221.879 139.867C220.962 137.913 218.115 137.306 215.513 138.532C212.91 139.757 211.534 142.312 212.445 144.27C213.356 146.227 216.207 146.83 218.812 145.605C221.416 144.379 222.793 141.823 221.879 139.867Z" fill="#FF8684"/>
<path d="M162.016 153.466C162.016 153.979 162.15 154.487 162.412 154.961C162.674 155.436 163.057 155.866 163.541 156.229C164.025 156.592 164.599 156.88 165.231 157.076C165.863 157.273 166.54 157.374 167.224 157.374C167.908 157.374 168.586 157.273 169.218 157.076C169.85 156.88 170.424 156.592 170.907 156.229C171.391 155.866 171.775 155.436 172.037 154.961C172.298 154.487 172.433 153.979 172.433 153.466C172.433 152.953 172.298 152.445 172.037 151.971C171.775 151.497 171.391 151.066 170.907 150.703C170.424 150.34 169.85 150.052 169.218 149.856C168.586 149.66 167.908 149.559 167.224 149.559C166.54 149.559 165.863 149.66 165.231 149.856C164.599 150.052 164.025 150.34 163.541 150.703C163.057 151.066 162.674 151.497 162.412 151.971C162.15 152.445 162.016 152.953 162.016 153.466Z" fill="#FF8684"/>
<path d="M100.675 164.448L96.459 190.175L71.1077 176.974C71.1077 176.974 62.2281 220.403 86.9508 257.984C96.8251 239.909 117.149 216.402 138.447 202.646C128.601 187.464 115.746 174.463 100.675 164.448Z" fill="#FFD35C"/>
<path d="M383.278 344.123C344.538 343.417 52.7529 343.473 14.0494 344.135C12.9704 344.162 11.9446 344.609 11.1918 345.383C10.439 346.156 10.0191 347.194 10.0219 348.273C10.0248 349.353 10.4502 350.388 11.2071 351.157C11.964 351.927 12.9922 352.369 14.0713 352.39C78.534 353.206 324.646 353.128 383.264 352.39C384.344 352.368 385.374 351.924 386.131 351.153C386.888 350.381 387.313 349.344 387.315 348.263C387.316 347.183 386.895 346.144 386.14 345.37C385.386 344.596 384.358 344.149 383.278 344.123Z" fill="#CFF0FA"/>
<path d="M35.1507 65.1181H42.3908V81.387H35.1507V65.1181ZM46.3421 65.1181H53.5823V81.387H46.3421V65.1181ZM57.2809 65.1181H64.521V81.387H57.2809V65.1181Z" fill="#76D3DE"/>
<path d="M112.086 196.696C112.086 197.361 112.35 197.998 112.82 198.468C113.289 198.937 113.926 199.201 114.591 199.201C115.255 199.201 115.892 198.937 116.362 198.468C116.832 197.998 117.096 197.361 117.096 196.696C117.096 196.032 116.832 195.395 116.362 194.925C115.892 194.455 115.255 194.191 114.591 194.191C113.926 194.191 113.289 194.455 112.82 194.925C112.35 195.395 112.086 196.032 112.086 196.696Z" fill="black"/>
<path d="M112.55 203.75C114.016 206.008 109.121 209.999 106.06 206.851C105.463 206.223 104.249 207.082 104.812 207.82C106.438 210.009 102.57 215.168 98.7418 210.383C98.1031 209.577 96.977 210.713 97.6157 211.509C98.2745 212.492 99.2422 213.227 100.366 213.599C101.489 213.97 102.704 213.957 103.819 213.56C104.64 213.142 105.345 212.527 105.87 211.77C106.396 211.013 106.726 210.138 106.831 209.223C111.396 211.014 115.852 206 113.928 202.944C113.377 202.082 111.986 202.884 112.55 203.75ZM117.052 182.294C119.598 178.369 122.863 174.962 126.676 172.25C127.503 171.665 126.709 170.277 125.87 170.872C121.827 173.73 118.366 177.333 115.673 181.488C115.11 182.361 116.491 183.157 117.052 182.294ZM132.073 176.158C127.443 177.975 123.188 180.632 119.523 183.995C118.763 184.689 119.899 185.815 120.649 185.119C124.109 181.94 128.123 179.423 132.491 177.692C133.44 177.328 133.032 175.782 132.073 176.158ZM132.195 182.869C128.841 183.468 125.615 184.641 122.659 186.335C122.476 186.44 122.342 186.614 122.288 186.818C122.233 187.022 122.262 187.239 122.367 187.422C122.473 187.605 122.647 187.738 122.85 187.793C123.054 187.848 123.272 187.819 123.454 187.713C126.294 186.095 129.389 184.975 132.607 184.403C132.798 184.338 132.957 184.202 133.053 184.024C133.148 183.846 133.172 183.638 133.119 183.443C133.067 183.248 132.942 183.08 132.77 182.973C132.599 182.867 132.393 182.829 132.195 182.869ZM60.2253 203.441C62.2657 202.454 64.4809 201.88 66.7438 201.751C69.0068 201.622 71.2729 201.941 73.4123 202.689C74.3852 203.031 74.805 201.495 73.8321 201.155C71.4867 200.348 69.005 200.013 66.5295 200.168C64.054 200.323 61.6336 200.966 59.4076 202.06C58.4924 202.514 59.2982 203.893 60.2253 203.441ZM74.1863 208.441C74.3899 208.496 74.6073 208.469 74.7905 208.364C74.9737 208.259 75.1077 208.086 75.1632 207.882C75.2186 207.678 75.1908 207.461 75.0859 207.278C74.9811 207.095 74.8078 206.96 74.6041 206.905C68.7109 205.284 63.1162 208.395 58.7888 212.148C58.0169 212.822 59.143 213.948 59.9149 213.274C63.8006 209.901 68.88 206.969 74.1863 208.441ZM74.7036 211.067C71.3093 211.141 64.3995 215.148 60.5217 221.749C60.4688 221.84 60.4343 221.94 60.4201 222.044C60.4059 222.148 60.4124 222.254 60.4391 222.356C60.4658 222.457 60.5122 222.552 60.5757 222.636C60.6392 222.72 60.7186 222.79 60.8092 222.843C60.8999 222.896 61.0001 222.93 61.1041 222.944C61.2081 222.959 61.3139 222.952 61.4154 222.925C61.5169 222.899 61.6122 222.852 61.6958 222.789C61.7794 222.725 61.8496 222.646 61.9025 222.555C65.6509 216.189 72.1012 212.723 74.7036 212.667C74.9157 212.667 75.1191 212.583 75.2691 212.433C75.4191 212.283 75.5034 212.079 75.5034 211.867C75.5034 211.655 75.4191 211.452 75.2691 211.302C75.1191 211.152 74.9157 211.067 74.7036 211.067ZM208.645 239.684C206.371 236.737 202.817 233.977 198.876 234.377C197.027 234.479 195.279 235.257 193.966 236.563C192.654 237.87 191.867 239.613 191.757 241.462C183.956 241.697 177.613 242.159 171.252 242.773C168.268 243.082 165.419 242.805 165.061 245.678C164.066 244.521 162.82 243.606 161.417 243.005C160.015 242.403 158.493 242.13 156.969 242.207C155.445 242.284 153.959 242.708 152.624 243.448C151.289 244.187 150.141 245.223 149.267 246.474C146.767 241.898 135.965 248.086 131.399 250.69C125.765 253.678 120.407 257.157 115.385 261.088C114.883 257.606 111.835 255.901 108.576 254.741C108.476 254.712 108.37 254.704 108.266 254.717C108.162 254.729 108.062 254.762 107.971 254.813C107.786 254.916 107.651 255.089 107.593 255.292C107.536 255.495 107.562 255.713 107.665 255.897C107.769 256.082 107.941 256.218 108.145 256.275C109.762 256.747 111.247 257.59 112.482 258.736C112.962 259.201 113.329 259.771 113.555 260.4C113.781 261.03 113.86 261.702 113.785 262.367C99.3884 274.219 112.146 295.832 126.642 293.802C126.706 293.861 126.781 293.906 126.862 293.935C126.944 293.964 127.031 293.975 127.117 293.97C127.601 293.905 128.093 293.945 128.56 294.086C129.027 294.228 129.459 294.467 129.826 294.789C130.193 295.111 130.486 295.508 130.687 295.952C130.888 296.397 130.992 296.88 130.991 297.368C130.969 299.574 128.882 300.822 127.117 301.661C126.956 301.769 126.839 301.932 126.79 302.119C126.74 302.307 126.76 302.506 126.847 302.679C126.934 302.853 127.081 302.989 127.261 303.061C127.441 303.134 127.641 303.138 127.824 303.074C128.936 302.586 129.959 301.913 130.848 301.084C131.454 300.565 131.925 299.908 132.223 299.168C132.52 298.427 132.635 297.626 132.557 296.832C132.479 296.038 132.21 295.275 131.774 294.607C131.338 293.939 130.747 293.386 130.052 292.995C134.732 291.495 138.993 288.691 143.826 287.587C148.756 286.461 156.014 286.252 159.255 283.371C160.334 283.899 161.52 284.174 162.721 284.174C163.922 284.174 165.108 283.899 166.187 283.371L166.286 286.682C166.292 286.892 166.381 287.092 166.534 287.237C166.687 287.382 166.891 287.461 167.102 287.456C167.199 287.625 167.357 287.752 167.544 287.81C178.501 291.147 190.224 291.001 201.094 287.39C202.215 287.151 203.273 286.676 204.196 285.997C205.233 284.989 204.924 287.207 204.594 244.733C204.654 244.246 204.614 243.753 204.477 243.282C204.341 242.811 204.11 242.372 203.798 241.993C202.965 241.198 202.25 241.243 193.325 241.454C193.068 236.779 201.283 232.081 207.749 241.166C213.967 249.904 213.706 261.704 214.713 280.027C214.767 281.043 216.368 281.053 216.305 280.027C215.405 263.453 215.676 248.862 208.645 239.684ZM158.549 281.863C156.88 283.25 154.845 284.123 152.69 284.378C146.287 285.824 144.194 284.975 136.19 288.616C131.182 290.882 126.365 293.438 121.069 291.851C110.966 288.777 103.393 273.276 114.491 263.764C114.655 263.761 114.813 263.706 114.942 263.606C115.071 263.507 115.164 263.368 115.208 263.211C115.22 263.189 115.22 263.155 115.232 263.133C120.313 259.095 125.745 255.52 131.465 252.451C134.19 250.939 146.068 243.921 147.889 247.228C148.708 248.87 146.86 250.68 146.001 252.417C143.581 252.681 141.198 253.21 138.894 253.995C137.933 254.327 138.341 255.871 139.312 255.529C143.035 254.286 146.942 253.685 150.867 253.752C151.066 253.752 150.992 253.676 151.209 253.73C154.717 254.305 159.717 255.188 161.44 257.908C162.793 260.043 159.303 261.352 156.738 262.214C153.695 263.304 150.524 264.002 147.304 264.289C147.093 264.289 146.89 264.373 146.741 264.522C146.592 264.671 146.508 264.874 146.508 265.085C146.508 265.296 146.592 265.498 146.741 265.647C146.89 265.797 147.093 265.881 147.304 265.881C150.885 265.902 156 264.687 158.549 265.725C160.304 266.432 162.279 268.541 161.43 270.572C160.536 272.701 157.391 273.308 155.415 273.793C150.666 274.927 153.038 273.861 145.736 274.621C145.525 274.621 145.322 274.705 145.173 274.854C145.024 275.003 144.94 275.206 144.94 275.417C144.94 275.628 145.024 275.83 145.173 275.979C145.322 276.129 145.525 276.212 145.736 276.212C147.931 276.351 150.134 276.273 152.314 275.98C156.374 276.284 161.263 278.725 158.549 281.867V281.863ZM160.282 282.062C162.059 278.952 159.667 276.473 156.315 275.224C158.73 274.905 160.942 273.706 162.528 271.857C164.394 269.012 162.146 264.321 156.943 263.811C159.866 262.838 163.801 261.37 163.31 258.372C162.912 255.943 159.912 254.299 157.793 253.581C154.936 252.73 152.005 252.152 149.039 251.854C149.12 250.335 149.592 248.863 150.408 247.58C151.223 246.296 152.356 245.245 153.696 244.526C154.906 244.038 156.203 243.803 157.507 243.835C158.811 243.867 160.095 244.166 161.279 244.713C162.838 245.563 164.147 246.808 165.075 248.322C165.087 248.521 165.793 270.65 166.135 281.519C165.286 282.099 164.303 282.454 163.279 282.55C162.255 282.645 161.224 282.479 160.282 282.066V282.062ZM201.019 242.929C203.169 242.929 202.945 242.716 203.008 246.04C203.351 287.127 203.553 284.567 202.853 284.999C201.84 285.522 200.765 285.916 199.654 286.17C190.505 289.032 180.756 289.389 171.422 287.207C170.228 286.918 169.06 286.566 167.868 286.248C167.588 285.004 166.519 245.927 166.664 245.499C166.973 244.576 168.586 244.648 171.499 244.363C181.308 243.386 191.161 242.907 201.019 242.929ZM364.283 150.651C364.412 149.868 364.273 149.063 363.888 148.368C363.503 147.674 362.895 147.129 362.162 146.823C359.177 145.695 355.244 148.98 352.681 151.304C353.704 148.391 355.387 143.212 354.193 140.178C353.29 137.864 350.948 137.005 348.378 138.943C345.454 141.485 343.045 144.565 341.281 148.015C341.659 145.41 341.833 142.779 341.8 140.146C341.575 133.322 338.219 133.509 334.538 138.821C330.895 144.785 327.948 151.147 325.754 157.782C324.659 155.517 323.239 153.423 321.538 151.569C319.694 149.748 316.383 148.186 314.286 150.542C311.353 153.837 315.014 158.5 316.196 160.959C318.281 165.434 318.269 175.483 317.939 180.44L319.507 180.915L319.507 180.912C319.887 175.475 319.904 166.514 318.084 161.369C317.028 158.359 314.358 155.715 314.817 153.047C315.187 150.858 317.362 150.005 319.937 152.251C322.138 154.55 323.927 157.212 325.223 160.12C325.304 160.252 325.422 160.359 325.562 160.426C325.702 160.493 325.859 160.518 326.013 160.498C326.167 160.479 326.312 160.415 326.43 160.314C326.549 160.214 326.636 160.082 326.681 159.933C328.044 155.88 335.348 136.561 339.24 136.561C339.538 136.561 339.707 137.096 339.803 137.295C340.847 140.693 339.697 148.755 339.074 152.108C338.921 152.935 340.101 153.586 340.531 152.725C342.682 148.363 349.836 136.249 352.494 140.276C354.253 143.109 351.201 151.288 349.834 154.259C349.482 155.021 350.443 155.96 351.084 155.229C353.686 152.279 360.556 145.805 362.56 149.227C364.008 155.03 349.818 184.153 347.276 189.287L347.276 189.289L348.819 189.753C352.379 182.445 363.829 158.663 364.283 150.651ZM77.2363 69.1916C75.6567 68.5943 73.9211 68.5516 72.3141 69.0702C72.3558 64.0405 72.6762 63.5292 70.0081 63.5292C70.0081 63.5292 35.8608 63.4198 32.7371 63.5292C31.0161 63.5968 31.2688 65.3079 31.2688 66.5136C31.2688 82.7825 31.1454 82.0025 31.6011 82.5278C31.7783 82.7008 31.9926 82.8314 32.2276 82.9096C32.4626 82.9878 32.7124 83.0117 32.958 82.9794C73.3009 82.9794 70.8537 82.9973 71.1123 82.9456C72.0534 82.9456 72.2922 81.9946 72.2922 81.0475V75.616C72.8798 75.8366 73.5054 75.9387 74.1327 75.9164C74.76 75.8942 75.3767 75.748 75.9473 75.4863C76.5178 75.2246 77.031 74.8525 77.4571 74.3916C77.8832 73.9307 78.2139 73.39 78.4301 72.8007C78.6852 72.1545 78.7054 71.4393 78.4872 70.7798C78.2691 70.1202 77.8264 69.5582 77.2363 69.1916ZM70.7144 81.3878C19.1383 81.3878 36.6427 81.3539 32.9122 81.3539L32.8903 65.1408C33.1012 65.1726 70.9253 65.1308 70.6925 65.1308C70.6985 66.7603 70.7204 59.2058 70.7204 81.3878H70.7144ZM75.0299 74.1576C74.4683 74.4112 73.838 74.4701 73.2392 74.3247C72.7279 74.1695 72.8413 73.8054 72.3001 73.8393V70.7474C73.4579 70.3892 74.6777 70.2767 75.8814 70.4172C77.875 70.8151 77.0373 73.4931 75.0358 74.1576H75.0299ZM266.818 280.11C264.551 280.384 262.258 279.878 260.316 278.676C260.129 277.496 259.919 276.326 259.7 275.156C259.756 275.016 259.772 274.862 259.744 274.714C259.717 274.565 259.647 274.427 259.545 274.316C259.477 274.117 257.535 262.526 257.503 262.379C257.392 261.384 255.804 261.364 255.912 262.379C256.093 264.11 257.672 272.84 257.702 273.051C255.552 270.642 254.015 267.749 253.222 264.619C253.159 264.423 253.024 264.259 252.843 264.161C252.663 264.063 252.451 264.038 252.253 264.092C252.055 264.147 251.885 264.275 251.78 264.452C251.674 264.628 251.641 264.839 251.688 265.039C252.593 268.372 254.923 273.568 258.1 275.301C259.133 281.087 258.926 280.918 259.226 281.284C259.248 281.815 259.678 290.733 259.823 293.602C259.869 294.624 261.466 294.618 261.425 293.602C261.425 293.528 260.794 280.814 260.794 280.743C262.677 281.621 264.767 281.962 266.832 281.726C267.821 281.63 267.839 279.997 266.818 280.11ZM100.089 236.208C94.7168 232.147 85.0076 234.698 81.4483 243.128C76.6136 254.592 80.7042 265.095 83.9313 266.746C84.4018 266.932 84.9053 267.02 85.411 267.005C85.9167 266.989 86.414 266.871 86.8725 266.658C87.3311 266.444 87.7413 266.139 88.0781 265.761C88.4149 265.384 88.6713 264.942 88.8316 264.462C89.1847 263.509 89.3384 262.493 89.2833 261.478C89.7882 262.198 90.5264 262.723 91.3733 262.962C92.2201 263.201 93.1236 263.141 93.931 262.791C95.6858 261.885 95.7952 259.337 96.028 257.618C96.1712 256.601 96.2707 255.576 96.3364 254.562C98.1628 258.905 102.21 258.557 103.399 254.737C103.802 252.699 104.038 250.631 104.106 248.555C104.35 243.812 103.907 239.093 100.089 236.208ZM102.23 252.499C101.784 257.337 99.0283 256.898 97.7709 253.989C97.3671 252.774 96.8764 251.59 96.3026 250.445C96.2106 250.3 96.0745 250.187 95.9141 250.124C95.7537 250.061 95.5775 250.052 95.411 250.096C95.2446 250.14 95.0968 250.237 94.989 250.371C94.8813 250.506 94.8194 250.671 94.8123 250.843C94.9123 253.52 94.7161 256.2 94.2274 258.833C94.1751 259.606 93.9572 260.359 93.5888 261.04C92.9043 261.967 91.4141 261.472 90.7516 260.787C89.8945 259.584 89.4531 258.134 89.4942 256.657C89.4981 256.461 89.4299 256.271 89.3025 256.123C89.1751 255.974 88.9975 255.878 88.8036 255.852C88.6097 255.826 88.4131 255.872 88.2512 255.982C88.0894 256.092 87.9738 256.258 87.9264 256.448C87.1305 259.233 88.5233 263.041 86.7326 264.804C86.4939 265.074 86.1845 265.272 85.8392 265.375C85.494 265.479 85.1267 265.484 84.7788 265.389C82.9544 264.695 78.2948 256.49 82.4948 244.697C85.4792 236.385 94.1995 233.868 99.2591 237.557C103.319 240.69 102.721 247.174 102.239 252.397C102.236 252.431 102.233 252.465 102.23 252.499ZM148.573 203.109C146.082 191.977 130.923 193.05 126.268 204.08C123.532 210.566 122.911 219.292 126.632 225.337C127.117 226.297 127.848 227.112 128.751 227.698C129.221 227.884 129.725 227.972 130.231 227.957C130.736 227.942 131.233 227.824 131.692 227.61C132.151 227.396 132.561 227.091 132.898 226.714C133.234 226.336 133.491 225.894 133.651 225.414C134.004 224.461 134.158 223.445 134.103 222.43C134.607 223.151 135.346 223.675 136.193 223.915C137.04 224.154 137.943 224.093 138.75 223.743C140.505 222.84 140.615 220.289 140.848 218.57C140.991 217.553 141.09 216.529 141.156 215.514C142.986 219.863 147.031 219.493 148.219 215.691C149.055 211.548 149.175 207.292 148.573 203.109ZM147.061 213.455C146.631 218.264 143.878 217.88 142.602 214.945C142.197 213.731 141.706 212.547 141.134 211.402C141.042 211.256 140.906 211.143 140.746 211.081C140.585 211.018 140.409 211.008 140.243 211.052C140.076 211.097 139.928 211.193 139.821 211.328C139.713 211.462 139.651 211.627 139.644 211.799C139.743 214.476 139.547 217.156 139.059 219.79C139.005 220.562 138.786 221.315 138.418 221.996C137.734 222.923 136.244 222.428 135.583 221.743C134.726 220.541 134.283 219.092 134.324 217.615C134.326 217.421 134.256 217.233 134.129 217.086C134.002 216.939 133.826 216.844 133.633 216.818C133.441 216.793 133.245 216.838 133.084 216.947C132.923 217.055 132.807 217.218 132.758 217.406C131.962 220.219 133.355 224.01 131.564 225.762C131.327 226.035 131.019 226.235 130.674 226.341C130.329 226.446 129.961 226.453 129.612 226.359C127.788 225.665 123.126 217.458 127.326 205.668C130.311 197.343 139.043 194.848 144.093 198.529C148.185 201.67 147.529 208.19 147.071 213.451L147.061 213.455Z" fill="black"/>
<path d="M318.084 161.369C319.904 166.514 319.887 175.475 319.507 180.912L347.276 189.287C349.818 184.153 364.008 155.03 362.56 149.227C360.556 145.805 353.686 152.279 351.084 155.229C350.443 155.96 349.482 155.021 349.834 154.259C351.201 151.288 354.253 143.109 352.494 140.276C349.836 136.249 342.682 148.363 340.531 152.725C340.101 153.586 338.921 152.935 339.074 152.108C339.697 148.755 340.847 140.693 339.803 137.295C339.707 137.096 339.538 136.561 339.24 136.561C335.348 136.561 328.044 155.88 326.681 159.933C326.636 160.082 326.549 160.214 326.43 160.314C326.312 160.415 326.167 160.479 326.013 160.498C325.859 160.518 325.702 160.493 325.562 160.426C325.422 160.359 325.304 160.252 325.223 160.12C323.927 157.212 322.138 154.55 319.937 152.251C317.362 150.005 315.187 150.858 314.817 153.047C314.358 155.715 317.028 158.359 318.084 161.369Z" fill="#FFCEB6"/>
<path d="M158.549 281.863C156.88 283.25 154.845 284.123 152.69 284.378C146.287 285.824 144.194 284.975 136.19 288.616C131.182 290.882 126.365 293.438 121.069 291.851C110.966 288.777 103.393 273.276 114.491 263.764C114.655 263.761 114.813 263.706 114.942 263.606C115.071 263.507 115.164 263.368 115.208 263.211C115.22 263.189 115.22 263.155 115.232 263.133C120.313 259.095 125.745 255.52 131.465 252.451C134.19 250.939 146.068 243.921 147.889 247.228C148.708 248.87 146.86 250.68 146.001 252.417C143.581 252.681 141.198 253.21 138.894 253.995C137.933 254.327 138.341 255.871 139.312 255.529C143.035 254.286 146.942 253.685 150.867 253.752C151.066 253.752 150.992 253.676 151.209 253.73C154.717 254.305 159.717 255.188 161.44 257.908C162.793 260.043 159.303 261.352 156.738 262.214C153.695 263.304 150.524 264.002 147.304 264.289C147.093 264.289 146.89 264.373 146.741 264.522C146.592 264.671 146.508 264.874 146.508 265.085C146.508 265.296 146.592 265.498 146.741 265.647C146.89 265.797 147.093 265.881 147.304 265.881C150.885 265.902 156 264.687 158.549 265.725C160.304 266.432 162.279 268.541 161.43 270.572C160.536 272.701 157.391 273.308 155.415 273.793C150.666 274.927 153.038 273.861 145.736 274.621C145.525 274.621 145.322 274.705 145.173 274.854C145.024 275.003 144.94 275.206 144.94 275.417C144.94 275.628 145.024 275.83 145.173 275.979C145.322 276.129 145.525 276.212 145.736 276.212C147.931 276.351 150.134 276.273 152.314 275.98C156.374 276.284 161.263 278.725 158.549 281.867V281.863Z" fill="#FFCEB6"/>
<path d="M102.23 252.499C101.784 257.337 99.0283 256.898 97.7709 253.989C97.3671 252.774 96.8764 251.59 96.3026 250.445C96.2106 250.3 96.0745 250.187 95.9141 250.124C95.7537 250.061 95.5775 250.052 95.411 250.096C95.2446 250.14 95.0968 250.237 94.989 250.371C94.8813 250.506 94.8194 250.671 94.8123 250.843C94.9123 253.52 94.7161 256.2 94.2274 258.833C94.1751 259.606 93.9572 260.359 93.5888 261.04C92.9043 261.967 91.4141 261.472 90.7516 260.787C89.8945 259.584 89.4531 258.134 89.4942 256.657C89.4981 256.461 89.4299 256.271 89.3025 256.123C89.1751 255.974 88.9975 255.878 88.8036 255.852C88.6097 255.826 88.4131 255.872 88.2512 255.982C88.0894 256.092 87.9738 256.258 87.9264 256.448C87.1305 259.233 88.5233 263.041 86.7326 264.804C86.4939 265.074 86.1845 265.272 85.8392 265.375C85.494 265.479 85.1267 265.484 84.7788 265.389C82.9544 264.695 78.2948 256.49 82.4948 244.697C85.4792 236.385 94.1995 233.868 99.2591 237.557C103.319 240.69 102.721 247.174 102.239 252.397L102.23 252.499Z" fill="#FFD35C"/>
<path d="M147.061 213.455C146.631 218.264 143.878 217.88 142.602 214.945C142.197 213.731 141.706 212.547 141.134 211.402C141.042 211.256 140.906 211.143 140.746 211.081C140.585 211.018 140.409 211.008 140.243 211.052C140.076 211.097 139.928 211.193 139.821 211.328C139.713 211.462 139.651 211.627 139.644 211.799C139.743 214.476 139.547 217.156 139.059 219.79C139.005 220.562 138.786 221.315 138.418 221.996C137.734 222.923 136.244 222.428 135.583 221.743C134.726 220.541 134.283 219.092 134.324 217.615C134.326 217.421 134.256 217.233 134.129 217.086C134.002 216.939 133.826 216.844 133.633 216.818C133.441 216.793 133.245 216.838 133.084 216.947C132.923 217.055 132.807 217.218 132.758 217.406C131.962 220.219 133.355 224.01 131.564 225.762C131.327 226.035 131.019 226.235 130.674 226.341C130.329 226.446 129.961 226.453 129.612 226.359C127.788 225.665 123.126 217.458 127.326 205.668C130.311 197.343 139.043 194.848 144.093 198.529C148.185 201.67 147.529 208.19 147.071 213.451L147.061 213.455Z" fill="#FFD35C"/>
<path d="M225.948 124.87C225.948 124.87 231.379 119.44 235.353 120.532C235.353 120.532 236.986 80.5417 211.834 79.1012C205.644 72.9116 202.518 69.4537 197.21 65.946C193.062 63.0621 188.353 61.0859 183.389 60.1465C178.426 59.2071 173.32 59.3257 168.405 60.4945C163.798 61.6183 159.454 63.6273 155.614 66.4096C148.7 71.6462 150.62 75.2951 147.721 79.7398C143.404 86.3214 136.13 81.2878 124.642 90.2847C121.268 92.9503 118.492 96.2958 116.494 100.104C114.497 103.912 113.323 108.098 113.048 112.389C112.585 117.829 117.762 121.042 121.082 124.428C124.889 128.302 124.28 132.014 122.242 133.58C120.497 134.915 118.036 134.464 115.896 134.959C111.184 136.053 108.259 142.388 111.614 146.24C114.352 149.385 118.997 150.279 122.451 152.376C127.519 155.456 126.978 168.113 142.174 159.063C157.371 150.012 151.577 133.558 152.482 127.4C153.387 121.243 151.577 112.743 171.3 111.661C191.023 110.579 178.54 97.0055 185.768 90.1295C192.996 83.2535 197.706 97.3696 201.872 98.0878C202.473 98.2401 203.108 98.1872 203.677 97.9374C204.245 97.6876 204.713 97.2553 205.007 96.7091C208.412 97.2124 225.144 100.822 225.948 124.87Z" fill="#B26EE6"/>
<path d="M206.228 97.3242C207.357 98.0396 208.606 98.5445 209.915 98.8144C210.896 99.1228 211.308 97.5888 210.335 97.2785C208.544 96.7234 206.984 96.5244 206.26 94.8293C205.882 92.093 206.256 89.3053 207.343 86.7657C208.429 84.226 210.187 82.0304 212.428 80.4147C213.277 79.8536 212.482 78.4728 211.622 79.0359C209.43 80.5608 207.636 82.5896 206.392 84.9519C205.147 87.3142 204.488 89.9408 204.469 92.6109C204.339 93.4812 204.432 94.3704 204.74 95.1949C205.047 96.0194 205.56 96.7521 206.228 97.3242ZM339.968 306.367C343.237 304.13 343.689 299.339 339.131 299.393C339.059 299.377 337.937 299.393 337.881 299.403C336.469 299.403 337.165 300.229 337.364 311.555C337.35 311.624 337.346 311.695 337.354 311.764L337.374 312.272C337.377 312.508 337.473 312.733 337.642 312.897C337.811 313.062 338.038 313.153 338.274 313.15C338.51 313.147 338.735 313.051 338.9 312.882C339.065 312.713 339.156 312.486 339.153 312.25C339.141 310.958 339.119 309.667 339.087 308.376C339.195 307.723 338.647 307.686 342.034 312.536C342.066 312.613 342.111 312.684 342.165 312.747C342.283 312.924 342.466 313.048 342.674 313.093C342.882 313.139 343.099 313.102 343.28 312.991C343.462 312.879 343.593 312.702 343.646 312.496C343.7 312.29 343.672 312.071 343.568 311.886C342.287 310.1 341.086 308.258 339.968 306.367ZM338.954 304.91C338.91 303.75 338.866 302.582 338.811 301.422L338.854 301.379L338.822 301.202L338.854 301.18C339.005 301.181 339.156 301.174 339.306 301.158C340.621 301.158 340.86 301.729 340.565 302.749C340.297 303.636 339.727 304.4 338.954 304.91ZM355.209 311.41C354.783 311.805 354.252 312.067 353.679 312.163C353.107 312.259 352.519 312.185 351.988 311.951C351.058 311.354 351.051 310.067 350.531 306.345L353.516 305.849C354.731 305.66 354.298 303.806 353.064 303.995C351.564 304.224 350.676 304.361 350.478 304.437L350.444 304.413L350.366 304.369C350.338 304.359 350.312 304.344 350.288 304.325C350.157 303.233 350.024 302.137 349.924 301.036C350.696 300.93 351.476 300.896 352.254 300.937C353.448 300.937 353.388 299.087 352.199 299.039C349.626 298.927 349.765 299.317 349.715 299.116C349.274 299.254 348.243 299.5 348.182 299.526L348.104 299.502C347.972 299.554 347.843 299.613 347.718 299.68C347.551 299.782 347.419 299.934 347.341 300.114C347.262 300.293 347.241 300.493 347.28 300.685C347.318 300.878 347.415 301.054 347.557 301.189C347.698 301.325 347.878 301.414 348.072 301.444C348.412 304.827 348.81 307.811 349.286 310.539C349.984 314.464 353.331 315.087 356.249 313.077C357.266 312.353 356.206 310.708 355.209 311.41ZM371.38 309.325C371.44 309.085 371.403 308.83 371.278 308.616C371.153 308.402 370.95 308.246 370.711 308.18C370.472 308.114 370.217 308.143 370 308.262C369.782 308.382 369.62 308.581 369.548 308.818C369.323 309.582 368.865 310.257 368.237 310.748C367.61 311.238 366.844 311.52 366.048 311.553C362.777 311.621 360.181 308.04 361.965 303.454C362.22 302.617 362.75 301.89 363.468 301.391C364.187 300.893 365.053 300.651 365.927 300.706C367.12 300.921 367.612 299.075 366.38 298.862C362.938 298.313 359.548 301.074 359.548 306.478C359.548 314.516 369.542 315.779 371.38 309.325ZM387.239 301.842C387.15 300.828 385.562 300.816 385.647 301.842C386.305 309.413 386.541 317.014 386.354 324.611C386.29 326.734 386.131 327.973 383.419 328.749C379.506 329.868 367.453 330.096 362.926 329.943C362.715 329.943 362.513 330.027 362.364 330.176C362.214 330.326 362.131 330.528 362.131 330.739C362.131 330.95 362.214 331.153 362.364 331.302C362.513 331.451 362.715 331.535 362.926 331.535C368.319 331.709 373.717 331.521 379.084 330.972C384.474 330.443 387.8 330.033 387.924 324.726C388.133 317.092 387.904 309.451 387.239 301.842ZM38.5714 329.951C32.0324 330.185 25.4854 329.852 19.0038 328.956C17.8387 328.834 16.7458 328.334 15.892 327.532C15.1772 326.286 14.9044 324.836 15.1181 323.415C14.9829 316.215 15.226 309.013 15.8463 301.838C15.9358 300.814 14.3342 300.824 14.2546 301.838C13.6301 309.013 13.387 316.215 13.5264 323.415C13.3753 324.958 13.6141 326.514 14.2208 327.94C14.8987 328.987 15.928 329.758 17.1236 330.114C20.9178 331.457 34.1008 331.672 38.5555 331.537C39.5861 331.519 39.598 329.919 38.5714 329.951ZM12.8559 54.4247C12.9295 48.9055 12.4083 47.9545 19.8971 47.1627C25.3517 46.5979 30.8382 46.4025 36.3192 46.5777C36.5302 46.5777 36.7327 46.4939 36.8819 46.3446C37.0312 46.1954 37.115 45.993 37.115 45.7819C37.115 45.5708 37.0312 45.3684 36.8819 45.2191C36.7327 45.0699 36.5302 44.986 36.3192 44.986C29.4515 44.7414 22.5759 45.1337 15.7806 46.1579C15.1164 46.2329 14.4737 46.4387 13.8894 46.7633C13.3051 47.0879 12.7909 47.5251 12.3764 48.0494C11.9619 48.5738 11.6553 49.175 11.4743 49.8185C11.2934 50.4619 11.2416 51.1348 11.322 51.7984C11.1279 59.4324 11.3637 67.0712 12.0283 74.6787C12.1178 75.6954 13.7055 75.7053 13.6199 74.6787C13.0236 67.9446 12.7686 61.1846 12.8559 54.4247ZM360.684 46.5777C367.223 46.3419 373.77 46.6747 380.252 47.5725C381.418 47.6937 382.511 48.1942 383.365 48.9971C384.082 50.2422 384.354 51.6935 384.137 53.1135C384.273 60.313 384.03 67.5147 383.409 74.6886C383.322 75.7153 384.921 75.7053 385.001 74.6886C385.626 67.5149 385.87 60.3131 385.731 53.1135C385.881 51.5704 385.643 50.0143 385.037 48.5872C384.358 47.5407 383.329 46.7703 382.134 46.4146C378.521 45.1373 365.915 44.8229 360.7 44.99C359.657 45.0099 359.657 46.6115 360.684 46.5777ZM88.2037 208.23C87.7084 208.23 87.2242 208.377 86.8123 208.652C86.4004 208.927 86.0793 209.318 85.8897 209.776C85.7 210.233 85.6503 210.737 85.7468 211.223C85.8433 211.709 86.0817 212.155 86.4318 212.505C86.7819 212.856 87.228 213.095 87.7138 213.191C88.1996 213.288 88.7032 213.239 89.1609 213.05C89.6187 212.86 90.01 212.54 90.2855 212.128C90.561 211.716 90.7082 211.232 90.7086 210.737C90.7089 210.408 90.6443 210.082 90.5185 209.778C90.3927 209.474 90.2083 209.197 89.9756 208.964C89.743 208.732 89.4668 208.547 89.1628 208.421C88.8587 208.295 88.5328 208.23 88.2037 208.23Z" fill="black"/>
</svg>
