<svg width="154" height="154" viewBox="0 0 154 154" fill="none" xmlns="http://www.w3.org/2000/svg">
<path d="M82.7047 28.6256C82.7297 29.1377 82.882 29.6355 83.1479 30.074C83.4138 30.5124 83.7848 30.8776 84.2274 31.1365C84.67 31.3954 85.1702 31.5399 85.6827 31.5568C86.1951 31.5737 86.7037 31.4625 87.1624 31.2333L88.7831 30.4226C88.7831 30.4226 87.2936 39.187 93.1549 39.727C93.277 36.4554 93.8529 33.2167 94.8661 30.1035C94.2994 30.0841 93.7453 29.9318 93.2483 29.659C92.7512 29.3862 92.3252 29.0006 92.0045 28.533C91.6837 28.0655 91.4773 27.5291 91.4017 26.9672C91.3262 26.4053 91.3836 25.8335 91.5695 25.2978C91.7553 24.7622 92.0644 24.2777 92.4717 23.8833C92.879 23.4889 93.3733 23.1957 93.9147 23.0272C94.456 22.8588 95.0294 22.8198 95.5886 22.9135C96.1478 23.0072 96.6771 23.2308 97.1341 23.5665C99.1283 18.9484 102.341 14.3557 107.523 13.749C114.606 12.9176 122.391 16.9274 125.51 22.8608C126.27 24.32 126.835 25.8723 127.192 27.4781C127.37 27.4077 127.554 27.3518 127.741 27.3109C129.927 23.1761 133.075 15.0053 126.263 11.3744C116.942 6.40505 110.105 12.6192 94.7802 4.12555C94.7802 4.12555 86.2904 1.84528 93.1227 10.1303C93.1227 10.1303 80.9038 12.4106 83.1794 16.7579C85.3615 20.925 89.0661 18.6286 89.3691 18.4276C88.9556 18.7145 82.4309 23.1155 82.7047 28.6256Z" fill="#7D4AB4"/>
<path d="M36.4361 95.1731C33.3135 95.305 30.2699 96.195 27.5682 97.7663C23.1541 100.422 20.8401 105.973 21.4092 110.151C21.93 113.796 24.274 118.655 27.8934 118.919C27.981 118.925 28.0636 118.962 28.126 119.024C28.1885 119.085 28.2265 119.168 28.2332 119.255C31.0496 115.714 33.4487 112.894 34.8109 111.322C34.1589 111.466 34.5631 110.606 33.1289 108.248C32.0821 106.544 30.654 105.106 28.9572 104.048C28.5561 103.826 28.9166 103.213 29.3177 103.434C29.5102 103.541 29.6904 103.664 29.8707 103.787C32.3612 105.498 34.1958 108.006 35.0732 110.897C35.1169 111.028 34.9413 111.162 35.7489 110.251C33.4303 105.527 34.0316 99.9545 36.4361 95.1731Z" fill="#FFCEB6"/>
<path d="M20.9798 111.69C16.3832 115.324 16.6394 121.777 22.5636 126.156C22.614 126.191 22.6546 126.238 22.6814 126.294C22.7083 126.349 22.7205 126.41 22.717 126.471C24.5095 124.028 26.2904 121.716 27.9402 119.631C27.9265 119.633 27.9125 119.633 27.8988 119.631C24.2372 119.368 21.825 115.225 20.9798 111.69ZM22.1993 126.77C20.8078 125.749 19.609 124.488 18.6589 123.047C17.6717 125.442 17.6886 128.58 19.8623 130.286C20.0042 130.407 19.5831 130.751 22.4493 126.828C22.4061 126.839 22.3609 126.839 22.3175 126.829C22.274 126.819 22.2335 126.799 22.1993 126.77ZM56.3488 107.811C55.7283 98.8519 51.7415 89.7937 42.8574 91.1268C39.9689 91.5632 38.4426 92.8073 37.1487 95.3368C34.6943 100.136 34.1621 105.588 36.5267 110.2C38.1067 113.283 40.9553 114.001 43.1336 112.103C45.8004 109.792 46.1785 103.248 45.9714 99.7984C45.943 99.3382 46.6556 99.3443 46.684 99.7984C46.8147 102.458 46.6169 105.124 46.0949 107.736C49.6198 108.088 53.109 108.734 56.526 109.668C56.3642 109.505 56.4669 109.508 56.3488 107.811Z" fill="#FFCEB6"/>
<path d="M109.418 92.8058C105.129 83.1371 98.0017 69.4984 91.3381 61.4458L86.0903 62.2688C88.5976 67.502 98.2487 86.9383 102.165 91.1606C103.61 90.8983 105.057 90.6347 106.504 90.3698C106.562 90.3557 106.622 90.3568 106.679 90.3728C106.736 90.3888 106.788 90.4193 106.83 90.4613C106.872 90.5033 106.903 90.5554 106.919 90.6126C106.935 90.6698 106.936 90.7301 106.922 90.7878C106.903 90.8729 106.89 90.959 106.88 91.0455C106.553 93.9248 107.426 97.1953 108.551 99.8997C110.586 104.468 113.441 108.625 116.975 112.164C114.643 105.397 112.309 99.3175 109.418 92.8058ZM125.604 71.1406C127.598 82.4621 125.596 97.7168 119.251 111.273C123.846 105.602 127.24 98.3013 127.373 90.9036C127.374 90.8447 127.39 90.787 127.42 90.7362C127.45 90.6854 127.492 90.6433 127.544 90.614C127.595 90.5846 127.653 90.5691 127.712 90.5689C127.771 90.5688 127.829 90.5839 127.88 90.6129C128.634 91.0179 129.391 91.4275 130.143 91.8325C130.773 87.9386 130.778 83.9692 130.159 80.0737C128.944 76.9506 127.419 73.9577 125.604 71.1406Z" fill="#CFF0FA"/>
<path d="M115.007 75.289C114.896 75.3047 114.783 75.2799 114.688 75.2192C114.652 75.2585 114.608 75.2884 114.558 75.3062C114.508 75.324 114.454 75.3292 114.402 75.3213C112.383 75.0513 107.034 75.1441 105.176 83.0939C105.176 83.0939 115.497 103.956 117.773 113.479C117.773 113.479 125.596 100.077 125.698 80.7853C124.552 79.5374 119.687 74.6363 115.007 75.289Z" fill="#ACEAC7"/>
<path d="M127.447 27.0209C126.799 24.2765 125.493 21.7313 123.639 19.6062C121.786 17.4811 119.442 15.8402 116.811 14.8257C113.219 13.3148 108.451 12.695 105.108 13.9866C101.211 15.4984 98.692 19.2198 96.987 23.0533C96.4812 22.7587 95.9166 22.5795 95.3335 22.5285C94.7504 22.4776 94.1632 22.5561 93.614 22.7584C93.0648 22.9608 92.567 23.282 92.1564 23.6991C91.7457 24.1162 91.4323 24.6189 91.2386 25.1712C91.0448 25.7235 90.9754 26.3118 91.0355 26.8941C91.0955 27.4763 91.2835 28.0381 91.5859 28.5392C91.8883 29.0404 92.2977 29.4685 92.7849 29.793C93.272 30.1175 93.8248 30.3304 94.4038 30.4164C91.5023 40.3497 91.6971 48.3969 101.703 51.0208C101.585 52.8095 101.485 54.6027 101.46 56.3951C101.654 56.4296 101.845 56.4762 102.033 56.5347C102.321 56.9512 102.001 57.2304 102.404 51.1926C103.48 51.4307 104.567 51.6137 105.662 51.741C109.634 52.2227 113.507 52.5234 117.325 51.422C117.349 54.1478 117.59 56.8783 117.369 59.5966C117.379 59.6347 117.385 59.6737 117.387 59.7131C117.388 59.7032 117.391 59.6936 117.396 59.6848C117.396 59.7047 118.014 59.8198 118.03 59.832C118.046 59.8443 118.055 59.8527 118.067 59.8604C118.333 56.9826 118.049 54.0911 118.032 51.2011C120.045 50.5527 121.877 49.4358 123.375 47.9421C126.654 44.6003 128.025 39.4569 128.2 34.7982C128.782 34.8499 129.369 34.7727 129.917 34.5721C130.466 34.3715 130.964 34.0524 131.375 33.6376C131.786 33.2227 132.101 32.7223 132.297 32.1719C132.493 31.6216 132.565 31.0348 132.509 30.4533C132.452 29.8719 132.268 29.31 131.97 28.8078C131.671 28.3056 131.266 27.8753 130.782 27.5475C130.299 27.2198 129.749 27.0027 129.172 26.9117C128.595 26.8207 128.004 26.858 127.443 27.0209H127.447ZM127.962 34.0557C127.909 34.0422 127.854 34.0407 127.801 34.0516C127.747 34.0624 127.697 34.0852 127.653 34.1183C127.61 34.1514 127.575 34.1939 127.55 34.2425C127.526 34.2912 127.513 34.3448 127.512 34.3994C127.213 44.2299 122.696 50.9242 112.911 51.4319C109.402 51.498 105.897 51.1746 102.459 50.4678C92.234 48.1392 92.2815 40.3228 95.2099 30.2047C95.2235 30.1519 95.2249 30.0967 95.2141 30.0432C95.2032 29.9898 95.1804 29.9395 95.1473 29.8962C95.1142 29.8529 95.0718 29.8176 95.0231 29.793C94.9744 29.7685 94.9208 29.7553 94.8663 29.7545C94.3538 29.7348 93.8532 29.5949 93.4049 29.3459C92.9566 29.097 92.5731 28.746 92.2856 28.3213C91.9981 27.8967 91.8146 27.4103 91.7499 26.9016C91.6852 26.3929 91.7412 25.8761 91.9133 25.393C92.0853 24.9099 92.3687 24.4741 92.7405 24.1209C93.1122 23.7676 93.5619 23.5069 94.0531 23.3596C94.5443 23.2124 95.0633 23.1829 95.5681 23.2734C96.0728 23.364 96.5492 23.572 96.9586 23.8808C97.0402 23.9277 97.1369 23.9406 97.2278 23.9168C97.3188 23.893 97.3968 23.8343 97.4449 23.7535C98.9405 20.309 101.126 16.7609 104.47 15.0512C108.542 12.9566 116.65 13.8448 122.243 19.193C124.605 21.4494 126.214 24.3779 126.853 27.5808C126.879 27.6714 126.939 27.7482 127.021 27.7949C127.103 27.8416 127.2 27.8545 127.291 27.8308C127.76 27.6348 128.269 27.551 128.776 27.5861C129.284 27.6212 129.776 27.7742 130.214 28.0331C130.652 28.2919 131.023 28.6494 131.298 29.077C131.574 29.5047 131.746 29.9907 131.8 30.4964C131.854 31.0021 131.79 31.5136 131.612 31.99C131.434 32.4665 131.147 32.8949 130.775 33.241C130.402 33.5872 129.954 33.8416 129.465 33.9839C128.977 34.1263 128.462 34.1527 127.962 34.0611V34.0557ZM69.9252 113.032C66.4799 111.967 60.7214 110.353 57.1372 109.459C57.0904 107.001 56.7746 104.555 56.1953 102.165C55.0448 97.476 52.6518 92.6155 48.099 90.9036C45.5583 90.0181 42.7813 90.0937 40.2925 91.1161C38.8124 91.8265 37.6007 92.9951 36.8372 94.4486C33.7983 94.5296 30.815 95.283 28.102 96.6545C23.1365 99.2385 19.7985 105.173 20.8278 110.921C18.9243 112.315 17.6139 114.374 17.1562 116.688C16.8551 118.624 17.2346 120.605 18.23 122.292C16.9576 124.953 16.8303 128.678 19.2785 130.7C17.4155 133.404 15.4573 136.421 13.826 139.285C13.7994 139.332 13.7839 139.385 13.7805 139.439C13.7771 139.493 13.7859 139.547 13.8063 139.597C13.8267 139.648 13.8582 139.693 13.8984 139.729C13.9386 139.765 13.9864 139.792 14.0384 139.808C14.8821 140.049 47.5644 149.476 47.7975 149.549C47.8731 149.568 47.9528 149.562 48.025 149.533C48.0972 149.504 48.1581 149.452 48.1987 149.385C48.8537 148.415 58.8783 133.089 60.831 129.98C62.9962 126.534 68.7717 117.286 70.1883 113.464C70.2064 113.372 70.1894 113.277 70.1407 113.197C70.092 113.117 70.0151 113.058 69.9252 113.032ZM47.7116 148.785C45.5219 148.138 14.8576 139.296 14.665 139.239C20.3531 129.45 28.5016 119.144 35.923 110.589C36.5437 111.837 37.5422 112.857 38.7762 113.504C39.6964 113.895 40.7165 113.988 41.6921 113.768C42.6677 113.547 43.5492 113.026 44.2119 112.277C45.1779 111.073 45.8035 109.632 46.0235 108.105C51.1761 108.277 64.4681 112.129 69.3646 113.61C65.9814 121.704 50.3547 144.496 47.7116 148.785ZM39.3 92.5266C41.1539 91.0593 44.3116 90.7203 46.5819 91.1997C53.6574 92.706 56.1746 102.027 56.417 109.283C53.7816 108.636 48.8568 107.512 46.1585 107.4C46.6284 104.901 46.8029 102.355 46.6785 99.8145C46.6494 99.3605 45.9376 99.3543 45.966 99.8145C46.1362 102.629 45.8678 106.889 44.7342 109.709C43.6197 112.482 41.5696 113.451 39.7971 113.09C38.1434 112.707 37.1126 111.383 36.3548 109.873C34.1673 105.279 34.7756 100.015 37.1448 95.3575C37.6483 94.2681 38.3839 93.3019 39.3 92.5266ZM27.5651 97.7659C30.2667 96.1965 33.3105 95.3101 36.4323 95.1834C34.1052 99.78 33.4563 105.13 35.5809 109.9C35.3761 110.13 35.1752 110.36 34.9673 110.595C33.9849 107.616 31.9815 105.079 29.3108 103.432C28.9096 103.211 28.5491 103.825 28.9503 104.046C29.453 104.336 29.926 104.674 30.3623 105.057C32.2679 106.624 33.6656 108.721 34.3783 111.083C34.4803 111.457 35.0133 110.155 28.0122 118.95C27.763 118.839 25.6 119.038 23.487 115.81C22.532 114.33 21.8692 112.681 21.5342 110.951C20.5632 106.115 23.2017 100.391 27.5681 97.7659H27.5651ZM17.7629 117.29C18.0491 115.073 19.2015 113.06 20.9682 111.691C21.7797 115.085 24.0576 119.083 27.5099 119.591C25.8011 121.738 24.1346 123.919 22.5114 126.132C19.675 124.014 17.4607 120.71 17.766 117.29H17.7629ZM18.6557 123.047C19.5813 124.46 20.7498 125.696 22.1072 126.701C21.2869 127.836 20.4737 128.977 19.6674 130.123C17.6924 128.379 17.7008 125.368 18.6588 123.047H18.6557Z" fill="black"/>
<path d="M131.667 29.8595C131.528 29.4285 131.302 29.0309 131.002 28.6915C130.702 28.3522 130.336 28.0784 129.925 27.8874C129.515 27.6964 129.069 27.5923 128.617 27.5817C128.164 27.571 127.714 27.654 127.295 27.8254C127.25 27.8379 127.203 27.8413 127.156 27.8354C127.11 27.8296 127.065 27.8146 127.024 27.7914C126.983 27.7681 126.948 27.7371 126.919 27.7C126.89 27.663 126.869 27.6206 126.857 27.5754C126.475 25.8412 125.84 24.1724 124.974 22.6222C121.868 17.2693 114.962 13.5072 108.117 14.0549C102.769 14.4844 99.5944 18.8102 97.4491 23.7519C97.4012 23.8329 97.3232 23.8917 97.2322 23.9155C97.1411 23.9394 97.0444 23.9263 96.9629 23.8793C96.5534 23.5705 96.0771 23.3624 95.5723 23.2718C95.0676 23.1813 94.5486 23.2108 94.0573 23.358C93.5661 23.5053 93.1164 23.7661 92.7447 24.1193C92.373 24.4726 92.0896 24.9084 91.9175 25.3914C91.7454 25.8745 91.6894 26.3913 91.7541 26.9C91.8188 27.4088 92.0023 27.8951 92.2898 28.3197C92.5774 28.7444 92.9608 29.0954 93.4091 29.3444C93.8574 29.5933 94.3581 29.7333 94.8705 29.7529C94.925 29.7537 94.9786 29.7669 95.0273 29.7914C95.076 29.816 95.1185 29.8513 95.1516 29.8946C95.1846 29.938 95.2075 29.9882 95.2183 30.0417C95.2291 30.0951 95.2277 30.1503 95.2141 30.2031C90.6812 45.2706 95.3399 50.105 107.131 51.1826C110.726 51.5201 113.866 51.7402 117.332 50.6749C119.883 49.9529 122.145 48.4533 123.803 46.3851C126.411 43.028 127.389 38.5702 127.516 34.3993C127.517 34.3448 127.53 34.2913 127.555 34.2427C127.579 34.1941 127.615 34.1517 127.658 34.1186C127.701 34.0856 127.752 34.0628 127.805 34.0519C127.858 34.041 127.913 34.0423 127.966 34.0557C128.52 34.1547 129.089 34.1095 129.62 33.9244C130.151 33.7393 130.625 33.4205 130.997 32.9988C131.369 32.5772 131.626 32.0668 131.743 31.5169C131.861 30.967 131.834 30.3962 131.667 29.8595ZM113.738 45.4946C110.151 46.5546 105.829 43.0755 104.841 39.4653C109.04 39.1585 114.603 38.3025 118.455 36.5952C118.954 38.4004 118.743 40.3282 117.866 41.9831C116.989 43.638 115.512 44.8944 113.738 45.4946Z" fill="#FFCEB6"/>
<path d="M113.324 79.4073L112.079 98.464L117.88 113.79C122.104 104.098 120.702 107.861 124.092 97.4286C124.092 97.4286 120.158 81.8916 118.087 78.9939C117.312 78.7045 116.483 78.5914 115.659 78.6629C114.835 78.7344 114.037 78.9887 113.324 79.4073Z" fill="#B26EE6"/>
<path d="M125.178 70.7475C124.039 65.9822 120.977 61.7952 118.033 59.8324C118.017 59.8202 117.395 59.7051 117.399 59.6852C117.075 64.7312 116.11 69.7155 114.527 74.518L102.036 56.5351C97.2913 54.9881 90.7918 61.7614 91.4767 61.0788C95.4866 63.3031 106.49 85.7583 105.176 83.0915C106.616 76.9364 110.438 74.7842 114.402 75.3188C114.455 75.3267 114.508 75.3215 114.558 75.3037C114.608 75.2859 114.653 75.256 114.688 75.2168C114.783 75.2774 114.896 75.3022 115.007 75.2866C120.62 74.4896 126.56 81.7469 125.96 81.0651C125.604 77.5469 125.974 74.0801 125.178 70.7475Z" fill="#6DD3A8"/>
<path d="M44.2121 112.276C43.5487 113.024 42.6672 113.545 41.6919 113.765C40.7166 113.986 39.6969 113.894 38.7764 113.504C37.5413 112.858 36.5425 111.838 35.9232 110.589C28.5325 119.11 20.3257 129.488 14.6653 139.24C17.675 140.136 44.4882 147.835 47.7119 148.785C49.2205 146.302 66.3567 121.161 69.3564 113.606C64.4377 112.115 51.1488 108.273 46.0153 108.101C45.7984 109.629 45.1757 111.071 44.2121 112.276Z" fill="#B26EE6"/>
<path d="M32.7644 128.559L28.4991 127.229L22.6248 136.058L33.0551 139.558L35.4166 135.641L29.3958 133.623L32.7644 128.559Z" fill="#FEE992"/>
<path d="M45.3638 127.937L35.2694 124.793L32.7644 128.559L38.5935 130.377L35.4167 135.641L39.8253 137.119L45.3638 127.937Z" fill="#FFD35C"/>
<path d="M32.7644 128.559L29.3958 133.623L35.4166 135.641L38.5935 130.377L32.7644 128.559Z" fill="#FF8684"/>
<path d="M115.007 75.289C114.896 75.3047 114.783 75.2799 114.688 75.2192C114.653 75.2585 114.608 75.2884 114.558 75.3062C114.508 75.324 114.455 75.3292 114.402 75.3213C113.174 75.1541 111.925 75.2749 110.751 75.6741C110.751 75.6741 111.666 78.9944 113.324 79.4078C114.037 78.989 114.835 78.7345 115.66 78.663C116.484 78.5915 117.314 78.7047 118.088 78.9944C118.44 78.5496 118.685 78.03 118.804 77.4755C118.923 76.921 118.913 76.3467 118.774 75.7968C117.58 75.3174 116.286 75.1429 115.007 75.289ZM77.9112 88.2397C72.757 96.3668 66.0759 103.417 58.2378 109.001C57.8206 109.345 58.2831 109.623 58.6681 109.534C59.1774 109.415 61.2621 107.667 62.3849 106.746C68.7066 101.608 74.1557 95.4817 78.5209 88.604C78.5692 88.5232 78.5834 88.4264 78.5604 88.3351C78.5374 88.2437 78.4791 88.1653 78.3982 88.117C78.3173 88.0687 78.2206 88.0544 78.1293 88.0775C78.0379 88.1005 77.9595 88.1588 77.9112 88.2397Z" fill="#7D4AB4"/>
<path d="M137 83.2731C134.264 78.6459 130.383 73.5009 126.177 70.1906C125.875 69.9379 125.558 69.7043 125.228 69.4911C125.187 69.459 125.139 69.4373 125.087 69.4278C125.036 69.4182 124.984 69.421 124.934 69.4361C124.884 69.4511 124.839 69.4779 124.802 69.5142C124.764 69.5504 124.736 69.5951 124.72 69.6445C124.51 70.3409 125.936 74.2702 125.596 82.9073C125.172 93.6221 121.632 105.553 117.843 112.59C112.551 96.9892 105 79.8117 95.7138 66.2106C94.5533 64.5079 93.0101 62.381 91.8458 60.9798C91.5391 60.6147 91.5659 60.7174 89.8394 60.9798C75.8035 63.1918 77.1135 62.7761 73.4818 64.1566C67.987 66.2482 62.1127 69.5731 58.5254 74.1774C57.1011 76.0113 55.742 77.8981 54.3461 79.7526C53.0614 81.4592 46.0902 90.5964 46.0695 90.6247C46.0237 90.706 46.0117 90.802 46.0359 90.892C46.0602 90.9821 46.1189 91.059 46.1993 91.1063C46.2797 91.1535 46.3755 91.1673 46.4659 91.1447C46.5564 91.122 46.6344 91.0648 46.6831 90.9852C57.8697 76.4737 58.9818 74.3216 61.5497 71.9715C65.8287 68.043 71.463 65.4521 76.9662 63.7356C77.8394 64.111 78.6411 64.6343 79.3362 65.2826C87.8429 72.8505 89.0824 92.3712 89.0341 103.749C89.0383 103.84 89.0777 103.927 89.1441 103.99C89.2104 104.054 89.2986 104.089 89.3903 104.089C89.4821 104.089 89.5703 104.054 89.6366 103.99C89.7029 103.927 89.7423 103.84 89.7466 103.749C89.798 94.238 89.0225 82.7155 85.5949 73.879C84.1268 70.0962 81.6103 65.5272 78.1619 63.5346L85.3663 62.4048C88.0838 68.0576 97.2892 86.6003 101.429 91.3971C101.568 91.5605 101.761 91.8512 101.982 91.8795C102.084 91.8956 106.016 91.1632 106.149 91.1386C106.037 92.3568 106.096 93.5847 106.325 94.7864C107.437 101.88 112.4 108.592 117.427 113.641C118.024 119.09 118.227 124.576 118.032 130.054C118.003 130.514 118.715 130.509 118.744 130.054C118.965 124.567 118.76 119.071 118.131 113.615C119.32 112.366 120.407 111.023 121.381 109.599C125.145 104.274 127.781 98.0423 128.037 91.4983C128.761 91.891 129.49 92.2799 130.215 92.6726C130.262 92.6994 130.315 92.7152 130.369 92.7188C130.423 92.7223 130.478 92.7135 130.528 92.6931C130.578 92.6727 130.623 92.6411 130.66 92.6008C130.696 92.5604 130.723 92.5123 130.738 92.4602C131.282 89.3084 131.448 86.1029 131.232 82.9119C131.634 83.8499 132.799 87.5798 133.287 89.3017C137.236 103.147 138.683 118.57 138.953 132.963C138.953 133.057 138.99 133.148 139.057 133.214C139.124 133.281 139.214 133.319 139.309 133.319C139.403 133.319 139.494 133.281 139.56 133.214C139.627 133.148 139.665 133.057 139.665 132.963C139.333 114.296 136.486 87.25 126.676 71.5527C130.144 74.6863 133.138 78.3073 135.564 82.3021C144.345 96.3756 147.763 114.165 148.266 130.879C148.266 130.973 148.303 131.064 148.37 131.13C148.437 131.197 148.527 131.235 148.622 131.235C148.716 131.235 148.807 131.197 148.873 131.13C148.94 131.064 148.978 130.973 148.978 130.879C148.542 114.657 145.238 97.2592 137 83.2731ZM108.555 99.877C107.292 97.1109 106.723 94.0785 106.897 91.0427C106.905 91.0044 106.916 90.8602 106.938 90.7889C106.953 90.7284 106.952 90.6651 106.935 90.6052C106.918 90.5452 106.886 90.4905 106.842 90.4465C106.798 90.4025 106.744 90.3705 106.684 90.3538C106.624 90.3371 106.56 90.3361 106.5 90.3509L102.17 91.1363C98.2518 86.914 88.5877 67.4608 86.1103 62.2798L91.3297 61.4568C93.2643 63.8752 95.0668 66.3964 96.7293 69.0094C103.408 79.3415 110.438 93.2686 116.939 112.097C113.417 108.574 110.575 104.431 108.555 99.877ZM130.152 80.074C130.888 83.6988 130.64 88.1374 130.132 91.8021C129.387 91.4009 128.638 90.9998 127.892 90.5987C127.838 90.5682 127.777 90.5523 127.714 90.5525C127.652 90.5527 127.591 90.5691 127.537 90.6C127.483 90.6309 127.438 90.6753 127.406 90.7288C127.374 90.7823 127.357 90.8432 127.355 90.9055C127.223 98.2832 123.842 105.541 119.32 111.164C123.235 102.711 125.576 93.6155 126.23 84.3231C126.534 79.9455 126.332 75.5474 125.628 71.216C127.425 74.012 128.941 76.9791 130.152 80.074Z" fill="#7D4AB4"/>
<path d="M122.956 121.764C124.099 121.764 125.026 123.201 125.026 124.974C125.026 126.746 124.098 128.183 122.956 128.183C121.813 128.183 120.885 126.746 120.885 124.974C120.885 123.201 121.811 121.764 122.956 121.764ZM45.5684 116.393C45.6229 116.392 45.6764 116.379 45.7251 116.354C45.7737 116.33 45.8161 116.294 45.8492 116.251C45.8823 116.208 45.9053 116.158 45.9163 116.104C45.9273 116.051 45.9261 115.996 45.9128 115.943C45.8553 115.587 45.7402 114.776 46.3139 114.792C47.6945 114.835 47.1714 113.822 47.3003 113.27C47.3457 113.074 47.4435 112.894 47.5833 112.749C47.7231 112.604 47.8997 112.499 48.0941 112.447C48.1857 112.422 48.2635 112.362 48.3107 112.279C48.3578 112.197 48.3702 112.099 48.3453 112.008C48.3204 111.916 48.2601 111.838 48.1778 111.791C48.0954 111.744 47.9977 111.732 47.9062 111.757C47.5505 111.855 47.2327 112.058 46.9946 112.34C46.7564 112.622 46.609 112.97 46.5716 113.337C46.5509 113.55 46.6537 113.836 46.5916 114.036C46.5632 114.135 46.6038 114.106 46.4896 114.102C46.307 114.062 46.117 114.072 45.9397 114.131C45.7625 114.191 45.6045 114.296 45.4825 114.438C45.3435 114.611 45.2431 114.812 45.188 115.028C45.133 115.243 45.1246 115.467 45.1634 115.686C44.8102 115.65 44.4547 115.727 44.1475 115.905C43.8403 116.082 43.597 116.353 43.4523 116.677C43.2368 117.35 43.7315 118.104 43.4607 118.63C43.3503 118.83 43.2068 118.765 43.0105 118.772C42.8151 118.778 42.6296 118.86 42.4929 118.999C42.3562 119.139 42.2789 119.326 42.2773 119.522C42.2489 119.8 42.3678 120.238 42.0157 120.316C41.6146 120.402 41.2012 120.373 40.9181 120.73C40.4863 121.267 40.8483 122.125 40.6972 122.354C40.5055 122.661 39.7155 121.957 39.1088 122.396C38.7407 122.662 39.0965 123.275 39.4693 123.009C39.7071 122.841 40.1488 123.104 40.4112 123.132C40.5923 123.162 40.7783 123.135 40.9433 123.054C41.1082 122.973 41.2439 122.843 41.3316 122.682C41.4516 122.346 41.4812 121.984 41.4175 121.633C41.3845 121.119 41.4558 121.108 41.8884 121.047C42.6224 120.96 42.9392 120.699 42.9729 119.959C42.9775 119.865 42.9277 119.541 43.0097 119.467C43.0182 119.46 43.3579 119.489 43.4477 119.472C43.7237 119.38 43.9571 119.191 44.1053 118.94C44.2535 118.69 44.3065 118.395 44.2546 118.108C44.2216 117.67 43.8941 116.987 44.2952 116.643C44.6767 116.412 45.1278 116.323 45.5684 116.393ZM50.7548 118.726C50.8873 118.665 51.0008 118.569 51.0836 118.449C51.1665 118.329 51.2155 118.189 51.2257 118.043C51.2477 117.746 51.3597 117.462 51.5469 117.23C51.7341 116.999 51.9875 116.829 52.2735 116.745C52.365 116.72 52.4429 116.66 52.49 116.578C52.5371 116.495 52.5496 116.398 52.5246 116.306C52.4997 116.215 52.4395 116.137 52.3571 116.09C52.2748 116.042 52.1771 116.03 52.0855 116.055C51.5625 116.198 51.1133 116.535 50.8284 116.996C50.4449 117.623 50.6083 117.904 50.5055 118.024C50.4396 118.106 50.2639 118.089 50.1573 118.126C49.6618 118.31 49.7071 118.81 49.7401 119.239C49.7523 119.436 49.7723 119.559 49.5759 119.637C49.2293 119.771 48.2544 119.845 48.5735 121.098C48.6502 121.385 48.9209 121.929 48.4623 121.995C48.0205 122.056 47.5741 121.909 47.1484 122.117C46.9263 122.239 46.758 122.441 46.6769 122.681C46.5959 122.921 46.6078 123.183 46.7105 123.415C46.9528 124.081 47.6523 124.611 47.39 125.06C47.2266 125.342 46.7718 125.003 46.5632 124.907C46.1904 124.731 45.8185 124.559 45.4495 124.383C45.0361 124.19 44.6764 124.805 45.0898 124.997C46.7649 125.791 46.8033 125.834 47.0917 125.876C47.217 125.89 47.3439 125.879 47.4649 125.844C47.5859 125.808 47.6985 125.749 47.7962 125.669C47.8938 125.589 47.9745 125.49 48.0334 125.379C48.0924 125.267 48.1284 125.145 48.1394 125.02C48.2375 124.377 47.7912 123.934 47.4966 123.423C47.3939 123.247 47.222 122.907 47.4514 122.755C47.7651 122.547 48.8197 122.989 49.2853 122.277C49.7155 121.621 49.0237 120.754 49.273 120.496C49.5706 120.189 50.5715 120.519 50.4357 119.063C50.4208 118.97 50.4154 118.875 50.4196 118.781C50.5324 118.77 50.6444 118.752 50.7548 118.726ZM57.8242 113.811C54.7048 118.515 52.3992 121.896 50.9105 125.047C50.718 125.461 51.3278 125.821 51.5241 125.408C53.0819 122.11 55.1535 119.162 58.4378 114.17C58.6924 113.79 58.0773 113.43 57.8242 113.811ZM50.2187 127.908C50.3814 127.908 50.5375 127.843 50.6526 127.728C50.7676 127.613 50.8323 127.457 50.8323 127.294C50.8323 127.132 50.7676 126.976 50.6526 126.861C50.5375 126.745 50.3814 126.681 50.2187 126.681C50.0559 126.681 49.8999 126.745 49.7848 126.861C49.6697 126.976 49.6051 127.132 49.6051 127.294C49.6051 127.457 49.6697 127.613 49.7848 127.728C49.8999 127.843 50.0559 127.908 50.2187 127.908Z" fill="#7D4AB4"/>
<path d="M4.8599 143.456C7.18849 142.689 9.4956 141.86 11.7812 140.971C12.2031 140.806 12.019 140.119 11.5933 140.28C9.30922 141.169 7.00185 141.997 4.67122 142.765C4.2371 142.911 4.42578 143.598 4.8599 143.456ZM5.96897 132.395C8.40902 132.613 10.8555 132.766 13.3083 132.855C13.7685 132.872 13.7685 132.159 13.3083 132.143C10.8611 132.053 8.41465 131.899 5.96897 131.683C5.51414 131.642 5.51414 132.354 5.96897 132.395ZM14.6835 148.92C15.3483 148.174 16.0155 147.428 16.6854 146.681C16.7197 146.648 16.7472 146.609 16.7662 146.565C16.7851 146.522 16.7952 146.475 16.7958 146.428C16.7964 146.38 16.7875 146.333 16.7696 146.289C16.7517 146.245 16.7251 146.205 16.6916 146.172C16.658 146.138 16.6181 146.111 16.5741 146.094C16.5302 146.076 16.4831 146.067 16.4356 146.067C16.3881 146.068 16.3413 146.078 16.2978 146.097C16.2542 146.116 16.215 146.143 16.1822 146.178C15.5175 146.922 14.8502 147.669 14.1804 148.417C14.1163 148.484 14.0811 148.573 14.0822 148.666C14.0834 148.759 14.1208 148.848 14.1864 148.914C14.2521 148.979 14.3409 149.017 14.4337 149.018C14.5266 149.019 14.6163 148.984 14.6835 148.92Z" fill="#B26EE6"/>
<path d="M105.755 20.2487C104.821 20.0334 103.843 20.1126 102.955 20.4754C102.068 20.8383 101.314 21.4669 100.798 22.2751C100.536 22.6517 101.154 23.0076 101.412 22.6356C101.847 21.9613 102.479 21.4369 103.222 21.1331C103.965 20.8293 104.784 20.7607 105.567 20.9367C105.658 20.9617 105.755 20.9495 105.838 20.9026C105.92 20.8558 105.98 20.7783 106.005 20.687C106.03 20.5958 106.018 20.4984 105.971 20.4162C105.924 20.334 105.847 20.2737 105.755 20.2487ZM118.584 22.1501C118.493 22.1251 118.395 22.1374 118.312 22.1845C118.23 22.2315 118.17 22.3093 118.145 22.4009C118.12 22.4924 118.132 22.5901 118.179 22.6726C118.226 22.755 118.304 22.8153 118.395 22.8404C119.177 23.0331 119.879 23.4642 120.404 24.0738C120.929 24.6835 121.251 25.4416 121.326 26.2427C121.326 26.3373 121.364 26.428 121.431 26.4949C121.498 26.5618 121.588 26.5994 121.683 26.5994C121.777 26.5994 121.868 26.5618 121.935 26.4949C122.002 26.428 122.039 26.3373 122.039 26.2427C121.962 25.2855 121.587 24.3765 120.968 23.6427C120.348 22.9089 119.515 22.3871 118.584 22.1501Z" fill="black"/>
<path d="M102.038 27.4221C102.038 27.724 102.158 28.0135 102.371 28.227C102.584 28.4404 102.874 28.5604 103.176 28.5604C103.478 28.5604 103.767 28.4404 103.981 28.227C104.194 28.0135 104.314 27.724 104.314 27.4221C104.314 27.1203 104.194 26.8308 103.981 26.6173C103.767 26.4039 103.478 26.2839 103.176 26.2839C102.874 26.2839 102.584 26.4039 102.371 26.6173C102.158 26.8308 102.038 27.1203 102.038 27.4221Z" fill="black"/>
<path d="M118.605 27.6311C118.38 27.631 118.16 27.6976 117.972 27.8226C117.785 27.9475 117.639 28.1252 117.553 28.3332C117.466 28.5412 117.444 28.7701 117.488 28.9909C117.531 29.2117 117.64 29.4146 117.799 29.5739C117.958 29.7331 118.161 29.8416 118.382 29.8856C118.603 29.9296 118.831 29.9071 119.039 29.821C119.247 29.7348 119.425 29.589 119.55 29.4018C119.675 29.2146 119.742 28.9945 119.742 28.7693C119.742 28.4676 119.622 28.1782 119.409 27.9647C119.196 27.7513 118.907 27.6313 118.605 27.6311Z" fill="black"/>
<path d="M105.661 32.8087C108.111 33.4001 110.666 33.4001 113.116 32.8087C113.116 32.8087 115.395 24.1103 111.253 24.3189C107.11 24.5275 105.661 32.8087 105.661 32.8087Z" fill="#FF8684"/>
</svg>
