<svg width="154" height="154" viewBox="0 0 154 154" fill="none" xmlns="http://www.w3.org/2000/svg">
<path d="M98.3098 114.906L104.988 114.177L99.264 102.94C97.1578 103.83 95.0309 104.688 92.8565 105.394C90.9061 106.025 89.728 106.443 87.8941 105.489C87.6627 105.375 87.4497 105.226 87.2621 105.049C85.6685 105.873 84.0163 106.579 82.3188 107.16C81.8226 107.308 80.985 107.562 80.5785 107.167L82.8795 116.59L97.6824 114.979L98.1112 119.351C97.4255 119.376 74.7946 120.178 74.5868 120.185L76.1829 106.85L75.5125 107.073C75.3653 108.3 73.9732 119.929 73.9019 120.537C73.9023 120.622 73.9362 120.704 73.9964 120.764C74.0565 120.824 74.1381 120.858 74.2232 120.859L98.4602 119.982C98.5455 119.982 98.6271 119.948 98.6875 119.887C98.748 119.827 98.7823 119.745 98.7831 119.66C98.398 115.739 98.3351 115.04 98.3098 114.906Z" fill="#ACEAC7"/>
<path d="M112.657 82.8444C112.549 84.5112 112.785 86.1825 113.35 87.7545C113.914 89.3265 114.796 90.7658 115.939 91.9831H116.513C115.494 84.8539 112.657 82.8444 112.657 82.8444ZM128.801 78.3176C123.174 82.8206 122.349 89.4704 122.244 91.9701H123.029C129.577 83.461 128.801 78.3176 128.801 78.3176ZM120.788 91.9731H121.317C121.594 89.7327 121.967 82.7224 116.88 77.2346C116.88 77.2339 115.312 82.3428 120.788 91.9731Z" fill="#6DD3A8"/>
<path d="M75.3918 64.3453C74.5553 64.7978 73.7513 65.308 72.9858 65.8723C72.1206 67.5597 71.4855 69.6383 72.633 70.9391C73.9974 72.4846 76.0683 70.5909 77.4382 68.9449C77.6872 68.4003 77.9669 67.8703 78.2757 67.3572C77.5965 67.1095 76.9833 66.7091 76.4833 66.1869C75.9832 65.6647 75.6098 65.0346 75.3918 64.3453ZM84.5428 64.2847C84.1799 65.4313 83.4016 66.4008 82.3606 67.0031C81.3195 67.6053 80.091 67.7967 78.9162 67.5398C78.8134 67.7024 78.7213 67.8704 78.6278 68.0383C78.3125 69.8523 78.0226 73.4525 80.7853 73.1265C83.6493 72.7883 86.9381 67.3741 88.2558 64.9964C87.0473 64.6266 85.8024 64.3879 84.5428 64.2847Z" fill="#DCBEFF"/>
<path d="M107.764 89.541C104.811 79.6875 98.0866 68.0032 88.2561 64.9973C86.9384 67.3811 83.6488 72.7922 80.7856 73.1274C78.0244 73.4534 78.3128 69.8531 78.6281 68.0392C76.6985 71.5299 75.6592 75.4424 75.6023 79.4306C75.5983 79.5132 75.5626 79.5911 75.5027 79.6481C75.4428 79.7052 75.3632 79.737 75.2805 79.737C75.1978 79.737 75.1183 79.7052 75.0584 79.6481C74.9985 79.5911 74.9628 79.5132 74.9588 79.4306C75.0225 75.7971 75.8682 72.22 77.4385 68.9427C76.0686 70.5917 73.9977 72.4855 72.6333 70.9369C71.4828 69.633 72.1209 67.5575 72.9861 65.8702C70.2674 67.8228 67.961 70.2928 66.1989 73.1386C64.4368 75.9844 63.2538 79.1501 62.7176 82.454C62.7125 82.4965 62.6974 82.5372 62.6735 82.5726C62.6495 82.6081 62.6175 82.6374 62.58 82.658C62.5425 82.6786 62.5007 82.69 62.4579 82.6912C62.4151 82.6924 62.3727 82.6834 62.3341 82.665C62.2574 82.9955 62.1807 83.3315 62.104 83.6751L73.2162 84.7113C73.301 84.7132 73.3818 84.7478 73.4418 84.8078C73.5018 84.8678 73.5364 84.9486 73.5383 85.0334V102.499L74.0254 102.532C74.1336 102.086 74.2806 101.649 74.4648 101.228C75.952 97.7563 79.2094 96.5912 81.8955 97.4848C85.9996 94.877 92.3472 91.8336 97.3733 90.6432C93.408 86.4723 90.5471 79.7795 88.7125 74.3347C88.0858 72.4762 87.4953 70.5918 87.0389 68.6819C86.9423 68.2785 87.5628 68.1082 87.6602 68.5117C88.6673 72.4854 89.9944 76.3712 91.6286 80.1308C93.2569 83.8316 95.2334 87.576 98.1081 90.4745C98.9334 90.3 99.7668 90.1671 100.605 90.0764C101.017 90.0327 101.013 90.677 100.605 90.7199C94.8031 91.3335 87.3304 94.8808 82.631 97.7839C85.0754 98.9781 86.884 101.926 87.6425 104.5C87.6941 104.557 87.7486 104.611 87.8059 104.662C88.2629 104.988 88.787 105.208 89.3399 105.305C89.4319 105.326 89.7916 105.399 89.8683 105.399C92.0036 105.431 100.044 101.934 101.954 101.079C102.032 101.044 102.12 101.04 102.201 101.067C102.281 101.093 102.35 101.149 102.392 101.223C103.918 100.478 108.361 98.2426 108.933 96.6434C109.635 94.6799 108.318 91.3895 107.764 89.541Z" fill="#B26EE6"/>
<path d="M64.0398 75.8248C65.7329 72.0773 68.2857 68.7819 71.4912 66.206C72.3431 65.5025 73.2415 64.8573 74.1802 64.2747C73.1691 64.3666 72.1504 64.3328 71.1475 64.1742C67.1628 63.5367 63.3309 62.1651 59.8467 60.1291C59.8306 60.1688 59.8057 60.2043 59.7739 60.2329C59.7421 60.2616 59.7042 60.2826 59.663 60.2945C59.6219 60.3064 59.5786 60.3088 59.5364 60.3015C59.4943 60.2943 59.4543 60.2775 59.4195 60.2526C54.9847 57.2813 50.9826 53.3374 48.5466 48.5606C48.1159 47.7632 47.7546 46.9302 47.4667 46.0709C47.449 46.0571 47.4199 46.1238 47.3562 46.2067C45.7233 48.345 42.7773 49.2317 40.1204 49.2102C39.9777 49.2241 39.8337 49.2019 39.7017 49.1458C41.5286 56.2474 45.4242 63.3942 51.06 68.036C51.0931 68.0612 51.1199 68.0937 51.1384 68.1309C51.1568 68.1682 51.1664 68.2092 51.1664 68.2508C51.1664 68.2923 51.1568 68.3333 51.1384 68.3706C51.1199 68.4078 51.0931 68.4403 51.06 68.4655C54.868 71.7377 59.2766 74.2373 64.0398 75.8248Z" fill="#B26EE6"/>
<path d="M78.9501 66.8985C80.0352 67.1547 81.1775 66.971 82.1275 66.3875C83.0775 65.804 83.7579 64.8681 84.0199 63.7845C84.1093 63.2755 84.1445 62.7585 84.125 62.2421V60.488C82.8116 61.0796 81.3848 61.3771 79.9444 61.3597C78.5041 61.3422 77.0849 61.0101 75.7863 60.3867V62.6486C75.7646 63.4551 75.9613 64.2525 76.3554 64.9565C76.6379 65.4357 77.0127 65.8542 77.4581 66.1875C77.9035 66.5209 78.4106 66.7625 78.9501 66.8985Z" fill="#FFCEB6"/>
<path d="M94.7527 50.7052C94.3693 50.1105 93.7875 49.671 93.1107 49.4647C92.4338 49.2584 91.7058 49.2987 91.0558 49.5785C91.008 49.5911 90.958 49.5927 90.9095 49.583C90.861 49.5734 90.8153 49.5528 90.776 49.5228C90.7366 49.4929 90.7046 49.4543 90.6824 49.4102C90.6602 49.366 90.6484 49.3173 90.6478 49.2679C90.6445 46.7402 89.7254 44.2993 88.0607 42.3972C83.9957 37.8942 77.1096 38.5699 73.2248 43.3943C69.1505 48.4564 69.9827 56.3173 75.4629 59.485C80.5289 62.4118 86.7292 59.8861 89.3945 54.6407C89.42 54.5989 89.4545 54.5634 89.4956 54.5368C89.5366 54.5102 89.5831 54.4931 89.6316 54.4869C89.6801 54.4806 89.7294 54.4853 89.7759 54.5007C89.8223 54.516 89.8647 54.5416 89.9 54.5755C90.5233 55.0344 91.29 55.2557 92.062 55.1995C92.834 55.1432 93.5606 54.8132 94.1108 54.2687C94.5998 53.8314 94.9287 53.2431 95.045 52.5974C95.1613 51.9518 95.0585 51.2857 94.7527 50.7052ZM48.1334 37.7262C47.5472 38.4549 47.0936 39.281 46.7935 40.1668C46.7708 40.2492 46.7164 40.3192 46.6421 40.3614C46.5678 40.4036 46.4797 40.4146 46.3974 40.3919C46.315 40.3692 46.245 40.3147 46.2028 40.2404C46.1605 40.1661 46.1496 40.0781 46.1722 39.9957C46.2129 39.8285 46.0779 39.5785 46.0403 39.4128C45.8481 38.4298 45.6067 37.4571 45.3171 36.4983C45.1108 35.5087 44.61 34.6047 43.8805 33.9051C43.6603 33.7409 43.1572 33.4196 43.0092 33.7992C42.9062 34.1822 42.8778 34.5813 42.9256 34.975C42.9531 36.0076 43.058 37.0368 43.2393 38.0537C43.2813 38.1005 43.3094 38.1582 43.3203 38.2202C43.3312 38.2821 43.3246 38.3459 43.3011 38.4043C43.2776 38.4626 43.2382 38.5132 43.1875 38.5504C43.1367 38.5875 43.0765 38.6097 43.0138 38.6144C41.3583 38.6117 39.7463 39.1447 38.4187 40.1338C37.9498 40.5641 37.5891 41.099 37.3658 41.695C37.1426 42.291 37.0632 42.9313 37.134 43.5638C37.1843 43.5903 37.2259 43.6308 37.2537 43.6804C37.6916 44.4589 38.8061 45.9215 39.6475 45.6086C39.9872 45.482 40.0041 44.8523 39.9911 44.4895C39.9293 43.5724 39.7319 42.6696 39.4051 41.8104C39.2831 41.4676 39.8484 41.2306 39.9926 41.5627C40.3799 42.4478 41.3057 43.8568 42.2637 43.7103C42.5646 43.6423 42.8316 43.4693 43.0165 43.2224C43.2015 42.9754 43.2924 42.6706 43.273 42.3627C43.2553 41.2687 43.0068 40.1908 42.5436 39.1996C42.3726 38.8253 42.9271 38.4986 43.0997 38.8752C43.6036 39.9773 44.1282 41.7345 43.836 42.9341C43.7521 43.3313 43.5364 43.6885 43.224 43.9477C42.9116 44.2069 42.5207 44.353 42.1149 44.3622C41.8133 44.3433 41.5185 44.2644 41.2479 44.13C40.9772 43.9957 40.7361 43.8087 40.5387 43.5799C40.7312 44.6606 40.8071 46.1877 39.5178 46.2851C39.1174 46.26 38.728 46.1432 38.3798 45.9437C38.0317 45.7442 37.734 45.4674 37.5098 45.1346C38.0656 46.4542 38.9181 47.6279 40.001 48.5646C42.753 48.6459 45.89 47.6388 47.2875 45.1683C47.7799 43.7479 49.1735 39.0178 48.4218 37.7331C48.3605 37.6288 48.3359 37.5383 48.1334 37.7262ZM80.433 97.8476C77.8252 97.6942 75.4222 99.6002 74.6867 102.581C74.5578 103 74.5209 103.442 74.5785 103.876C75.7689 103.45 78.392 101.192 79.3431 100.365C79.6499 100.095 80.0917 100.518 79.7987 100.82C78.9297 101.703 76.9432 104.059 76.9708 105.327C76.9846 105.961 77.4057 105.848 78.0446 105.544C79.4801 104.749 80.8005 103.762 81.9693 102.611C82.0253 102.558 82.0984 102.527 82.1753 102.523C82.2522 102.519 82.328 102.543 82.3889 102.59C82.4499 102.637 82.4921 102.704 82.508 102.779C82.5239 102.855 82.5123 102.933 82.4755 103.001C81.8384 104.023 81.343 105.127 81.0029 106.282C80.9262 106.771 80.9875 106.835 81.5865 106.717C83.4422 106.148 85.2384 105.4 86.9501 104.485C85.8786 101.351 83.7334 98.0463 80.433 97.8476Z" fill="#FFCEB6"/>
<path d="M114.24 92.6302L114.93 102.771C118.367 103.232 121.846 103.276 125.294 102.902C125.335 102.895 125.378 102.898 125.418 102.912C125.458 102.925 125.494 102.948 125.524 102.978V92.6072L114.24 92.6302Z" fill="#B26EE6"/>
<path d="M39.2076 99.206L39.1087 98.5725H4.30642C4.22381 98.5765 4.14591 98.6122 4.08886 98.6721C4.03182 98.732 4 98.8116 4 98.8943C4 98.977 4.03182 99.0565 4.08886 99.1164C4.14591 99.1763 4.22381 99.212 4.30642 99.216C41.7509 99.216 39.0956 99.2222 39.2076 99.206ZM149.413 98.5725H125.529V99.216H149.413C149.495 99.212 149.573 99.1763 149.63 99.1164C149.687 99.0565 149.719 98.977 149.719 98.8943C149.719 98.8116 149.687 98.732 149.63 98.6721C149.573 98.6122 149.495 98.5765 149.413 98.5725ZM114.69 99.216L114.646 98.5725C114.646 98.5725 107.493 98.5671 107.075 98.561C106.773 98.7758 106.441 98.9951 106.087 99.216H114.69ZM125.297 102.902C121.861 103.288 118.39 103.243 114.965 102.77C114.574 102.71 114.377 103.333 114.793 103.391C118.274 103.878 121.803 103.93 125.297 103.544C125.704 103.5 125.707 102.857 125.297 102.902ZM114.225 92.6191H125.549C125.632 92.6134 125.709 92.5765 125.766 92.5157C125.823 92.4549 125.854 92.3748 125.854 92.2916C125.854 92.2084 125.823 92.1284 125.766 92.0676C125.709 92.0068 125.632 91.9698 125.549 91.9641L114.225 91.9871C114.141 91.9871 114.061 92.0204 114.001 92.0797C113.942 92.1389 113.909 92.2193 113.909 92.3031C113.909 92.3869 113.942 92.4673 114.001 92.5266C114.061 92.5858 114.141 92.6191 114.225 92.6191ZM36.4058 102.265C32.7128 102.288 29.0212 102.119 25.3458 101.759C24.9339 101.718 24.9362 102.362 25.3458 102.402C29.0212 102.762 32.7128 102.931 36.4058 102.908C36.4884 102.904 36.5663 102.869 36.6233 102.809C36.6804 102.749 36.7122 102.669 36.7122 102.587C36.7122 102.504 36.6804 102.424 36.6233 102.364C36.5663 102.304 36.4884 102.269 36.4058 102.265ZM40.7876 105.793L34.5443 105.886C34.4617 105.89 34.3838 105.925 34.3267 105.985C34.2697 106.045 34.2379 106.125 34.2379 106.208C34.2379 106.29 34.2697 106.37 34.3267 106.43C34.3838 106.49 34.4617 106.525 34.5443 106.529L40.7876 106.437C40.873 106.437 40.955 106.403 41.0154 106.343C41.0758 106.282 41.1097 106.201 41.1097 106.115C41.1097 106.03 41.0758 105.948 41.0154 105.887C40.955 105.827 40.873 105.793 40.7876 105.793ZM112.316 103.717C110.186 103.353 108.026 103.195 105.865 103.245C105.78 103.245 105.698 103.279 105.638 103.339C105.578 103.399 105.544 103.481 105.544 103.566C105.544 103.652 105.578 103.733 105.638 103.794C105.698 103.854 105.78 103.888 105.865 103.888C107.968 103.836 110.071 103.987 112.145 104.339C112.55 104.408 112.724 103.787 112.316 103.717ZM133.157 105.666C129.66 105.271 126.151 104.994 122.632 104.834C122.218 104.816 122.219 105.46 122.632 105.478C126.149 105.636 129.657 105.913 133.157 106.309C133.564 106.355 133.561 105.712 133.157 105.666Z" fill="#7D4AB4"/>
<path d="M99.9856 110.497C99.9856 110.996 97.2842 110.432 96.979 110.355C96.4378 110.124 95.8563 110.001 95.2678 109.994C94.7233 110.081 94.4042 110.52 94.046 110.541C93.6088 110.566 93.4477 110.178 92.4276 110.606C91.6212 110.98 90.7941 111.307 89.9503 111.587C89.6758 111.72 89.361 111.742 89.0705 111.65C88.8682 111.526 88.6477 111.435 88.417 111.379C87.5941 111.272 87.2551 112.091 86.6307 112.275C86.5234 112.299 86.4122 112.301 86.3043 112.279C86.1963 112.258 86.0941 112.214 86.0042 112.151C85.9143 112.087 85.8387 112.006 85.7824 111.911C85.7261 111.817 85.6903 111.711 85.6774 111.602C85.6542 111.52 85.5998 111.45 85.5257 111.408C85.4516 111.366 85.364 111.355 85.2816 111.376C85.2004 111.401 85.1318 111.456 85.09 111.53C85.0481 111.604 85.0363 111.691 85.0569 111.773C85.0998 112.012 85.2036 112.235 85.3584 112.422C85.5131 112.609 85.7134 112.753 85.94 112.84C86.1666 112.926 86.4117 112.953 86.6516 112.917C86.8915 112.881 87.1182 112.784 87.3095 112.635C87.6071 112.422 88.0236 111.896 88.4378 112.041C89.0168 112.244 89.0253 112.562 90.1704 112.194C91.9345 111.624 92.4299 111.245 92.9553 111.097C93.5329 110.935 93.842 111.427 94.632 111.014C94.8457 110.861 95.0776 110.735 95.3223 110.639C95.6473 110.619 95.9719 110.684 96.2649 110.826C97.323 111.156 98.4247 111.325 99.5331 111.327C100.029 111.309 100.631 111.083 100.628 110.499C100.623 110.418 100.587 110.341 100.527 110.285C100.468 110.23 100.389 110.199 100.308 110.198C100.226 110.198 100.147 110.229 100.088 110.284C100.028 110.34 99.9914 110.416 99.9856 110.497ZM86.7542 108.707C87.6163 108.923 88.0872 108.12 89.0015 108.166C89.836 108.207 90.6214 108.573 91.4559 108.315C91.8455 108.195 92.1952 107.98 92.578 107.843C93.4309 107.536 94.2891 107.971 95.1275 107.672C95.7464 107.452 96.09 106.852 96.6614 106.982C96.9002 107.048 97.1421 107.102 97.3862 107.143C97.8974 107.205 98.4158 107.134 98.8919 106.938C99.27 106.784 99.1051 106.16 98.7208 106.317C97.4231 106.85 96.9391 106.192 96.2273 106.337C95.888 106.444 95.5746 106.62 95.3069 106.855C94.5553 107.38 93.8159 106.989 92.9208 107.103C92.0257 107.216 91.5318 107.826 90.6076 107.766C89.8782 107.719 88.9762 107.32 88.1294 107.653C87.7689 107.795 87.3341 108.19 86.9276 108.086C86.8452 108.063 86.757 108.074 86.6825 108.116C86.608 108.158 86.5532 108.228 86.5303 108.31C86.5073 108.392 86.518 108.481 86.56 108.555C86.602 108.63 86.6718 108.684 86.7542 108.707ZM91.2841 52.6318L93.2782 51.3985C93.3155 51.3775 93.3482 51.3494 93.3745 51.3156C93.4008 51.2819 93.42 51.2433 93.4312 51.202C93.4424 51.1607 93.4453 51.1176 93.4396 51.0752C93.434 51.0329 93.42 50.992 93.3984 50.9551C93.3768 50.9182 93.3481 50.886 93.3139 50.8603C93.2797 50.8346 93.2408 50.8159 93.1993 50.8054C93.1579 50.795 93.1147 50.7928 93.0725 50.7992C93.0302 50.8055 92.9896 50.8202 92.953 50.8424C92.2883 51.2546 91.6236 51.6657 90.9589 52.0758C90.8866 52.1196 90.8346 52.1901 90.8138 52.272C90.7931 52.354 90.8054 52.4407 90.8481 52.5137C90.8907 52.5866 90.9603 52.6399 91.0419 52.662C91.1234 52.6841 91.2104 52.6733 91.2841 52.6318ZM75.7095 44.3568C75.7343 44.235 75.7246 44.1087 75.6815 43.9922C75.6385 43.8756 75.5638 43.7734 75.4658 43.697C75.3678 43.6205 75.2505 43.573 75.127 43.5595C75.0034 43.5461 74.8786 43.5674 74.7665 43.6211C74.6545 43.6747 74.5595 43.7585 74.4925 43.8631C74.4254 43.9677 74.3889 44.089 74.3869 44.2132C74.3849 44.3374 74.4177 44.4597 74.4814 44.5664C74.5452 44.6731 74.6374 44.7598 74.7477 44.8169C74.9364 44.88 75.1422 44.8672 75.3217 44.7813C75.5011 44.6954 75.6402 44.5432 75.7095 44.3568ZM84.6166 47.3396C84.7516 47.4654 84.9227 47.5456 85.1057 47.569C85.2888 47.5924 85.4746 47.5577 85.6368 47.4699C85.7991 47.3821 85.9298 47.2455 86.0103 47.0795C86.0908 46.9135 86.1172 46.7263 86.0857 46.5445C86.0543 46.3627 85.9665 46.1953 85.8348 46.066C85.7032 45.9367 85.5342 45.852 85.3519 45.8239C85.1695 45.7957 84.9829 45.8255 84.8184 45.9091C84.6538 45.9926 84.5197 46.1257 84.4348 46.2896C84.3231 46.454 84.2797 46.6554 84.3136 46.8513C84.3475 47.0472 84.4561 47.2222 84.6166 47.3396ZM75.6819 49.8975C75.6616 49.9797 75.6735 50.0666 75.7153 50.1402C75.7571 50.2139 75.8256 50.2686 75.9067 50.2933C76.3511 50.4639 76.8147 50.5798 77.2872 50.6384C79.2162 50.916 81.1843 50.6329 82.9568 49.8231C82.914 50.5853 82.6663 51.3219 82.2397 51.955C81.8131 52.5882 81.2235 53.0944 80.5331 53.4203C79.5995 53.7833 78.5927 53.9187 77.5963 53.8153C77.1829 53.7877 77.1845 54.4289 77.5963 54.4588C81.1475 54.6943 83.2161 52.9248 83.5789 49.9926C83.6111 49.7678 83.6249 49.5408 83.6203 49.3138C83.619 49.2577 83.6033 49.2029 83.5746 49.1547C83.5459 49.1064 83.5053 49.0664 83.4566 49.0385C83.4079 49.0106 83.3529 48.9957 83.2968 48.9953C83.2407 48.9949 83.1854 49.009 83.1363 49.0362C80.4028 50.37 77.5657 50.2971 76.0723 49.6728C75.9908 49.6524 75.9046 49.6644 75.8318 49.7063C75.7589 49.7483 75.7052 49.8168 75.6819 49.8975ZM85.4565 43.5499C85.8338 43.6345 86.1713 43.8446 86.4137 44.1458C86.8335 44.723 87.0411 45.4274 87.0012 46.14C87.0012 46.2252 87.035 46.307 87.0953 46.3673C87.1556 46.4275 87.2373 46.4614 87.3226 46.4614C87.4078 46.4614 87.4895 46.4275 87.5498 46.3673C87.6101 46.307 87.6439 46.2252 87.6439 46.14C87.637 44.346 86.8478 43.3589 85.8622 42.9953C85.7865 42.965 85.7078 42.9423 85.6275 42.9279C85.5453 42.9079 85.4586 42.92 85.3851 42.9618C85.3115 43.0035 85.2567 43.0718 85.2317 43.1526C85.2093 43.2351 85.2203 43.323 85.2624 43.3974C85.3045 43.4718 85.3742 43.5266 85.4565 43.5499ZM38.8625 48.3612C40.0695 53.594 42.2924 58.5387 45.4049 62.9149C46.8982 64.985 48.6464 66.8587 50.6082 68.4917C50.9242 68.7509 51.3821 68.2992 51.063 68.0361C45.4379 63.4027 41.5362 56.2643 39.7047 49.1459C39.8367 49.202 39.9807 49.2241 40.1234 49.2103C42.847 49.2341 45.8513 48.3129 47.4697 46.071C48.8545 49.7003 51.0208 52.9805 53.815 55.6791C55.5301 57.3833 57.4083 58.9151 59.4225 60.2527C59.7661 60.4827 60.0859 59.9236 59.7477 59.6966C56.5215 57.5844 53.6835 54.9319 51.3583 51.8556C49.8395 49.8894 48.6751 47.6733 47.9176 45.3071C48.4971 43.6595 48.9188 41.9607 49.177 40.2334C49.2974 39.3544 49.4731 38.1733 48.9576 37.3779C48.8678 37.2077 48.7152 37.0792 48.5323 37.0195C48.3494 36.9598 48.1504 36.9736 47.9774 37.0581C47.3617 37.5618 46.8884 38.2178 46.6045 38.961C46.4511 38.2178 46.2977 37.519 45.9756 36.4429C45.7348 35.2721 45.1364 34.2048 44.2629 33.3888C44.0681 33.2032 43.8242 33.0773 43.5601 33.0259C43.2961 32.9746 43.0228 32.9999 42.7726 33.0989C42.5995 33.255 42.4653 33.4494 42.3806 33.6666C42.2959 33.8838 42.2631 34.1177 42.2848 34.3498C42.2832 35.568 42.3776 36.7843 42.5671 37.9877C41.5209 38.0531 40.4937 38.298 39.5306 38.7117C35.4095 40.4804 35.7178 45.047 38.8625 48.3612ZM38.4215 40.1329C39.749 39.1438 41.361 38.6108 43.0165 38.6135C43.0793 38.6088 43.1394 38.5867 43.1902 38.5495C43.241 38.5124 43.2804 38.4618 43.3038 38.4034C43.3273 38.345 43.334 38.2812 43.323 38.2193C43.3121 38.1573 43.284 38.0997 43.242 38.0529C43.06 37.036 42.9552 36.0068 42.9283 34.9741C42.8805 34.5805 42.9089 34.1813 43.0119 33.7984C43.16 33.4149 43.6631 33.7393 43.8832 33.9042C44.6127 34.6039 45.1135 35.5079 45.3198 36.4974C45.7731 37.9762 45.9388 38.9633 46.0431 39.412C46.0807 39.5769 46.2156 39.8277 46.175 39.9949C46.1638 40.0357 46.1607 40.0783 46.1659 40.1203C46.1712 40.1622 46.1846 40.2028 46.2055 40.2396C46.2264 40.2764 46.2544 40.3087 46.2877 40.3347C46.3211 40.3606 46.3593 40.3798 46.4001 40.391C46.4409 40.4023 46.4835 40.4053 46.5255 40.4001C46.5675 40.3949 46.608 40.3814 46.6448 40.3605C46.6816 40.3396 46.7139 40.3117 46.7399 40.2783C46.7659 40.2449 46.785 40.2067 46.7963 40.1659C47.0953 39.2801 47.5481 38.454 48.1339 37.7254C48.3049 37.5658 48.3364 37.5858 48.4215 37.7307C49.144 38.9663 47.7374 43.8843 47.2871 45.1659C45.8958 47.6203 42.7535 48.6496 40.0007 48.5622C38.9184 47.6249 38.0661 46.4513 37.5095 45.1322C37.7337 45.4649 38.0314 45.7417 38.3796 45.9412C38.7277 46.1407 39.1171 46.2575 39.5175 46.2827C40.8068 46.1822 40.7317 44.6582 40.5384 43.5775C40.7358 43.8063 40.9769 43.9933 41.2476 44.1276C41.5182 44.262 41.813 44.3409 42.1145 44.3598C42.5206 44.3516 42.9118 44.2063 43.2249 43.9476C43.5379 43.6889 43.7542 43.332 43.8387 42.9348C44.1302 41.7382 43.6086 39.9795 43.1024 38.8758C42.9299 38.4992 42.3753 38.826 42.5464 39.2003C43.0105 40.1908 43.2583 41.2688 43.2735 42.3626C43.2931 42.6699 43.2028 42.9742 43.0188 43.221C42.8347 43.4679 42.5688 43.6413 42.2687 43.7102C41.31 43.8559 40.3842 42.4446 39.9976 41.5626C39.8535 41.2305 39.2882 41.4675 39.4101 41.8103C39.7169 42.6755 40.1994 44.4051 39.9217 45.2718C39.9054 45.3447 39.8726 45.4129 39.826 45.4712C39.7793 45.5296 39.72 45.5765 39.6525 45.6085C39.0742 45.824 38.4614 45.2288 38.1109 44.8499C37.3515 44.0269 37.3439 43.6764 37.1391 43.5637C37.0678 42.9313 37.1468 42.291 37.3697 41.6948C37.5925 41.0987 37.9529 40.5636 38.4215 40.1329Z" fill="black"/>
<path d="M62.7175 82.4565C63.3321 78.6789 64.791 75.0886 66.9854 71.9529C69.1799 68.8172 72.0534 66.2169 75.392 64.3456C75.6105 65.0343 75.984 65.6638 76.484 66.1854C76.984 66.7071 77.597 67.107 78.2759 67.3545C77.8842 68.0124 77.5348 68.6946 77.2298 69.397C75.7909 72.5496 75.0178 75.9651 74.9587 79.43C74.9627 79.5126 74.9984 79.5905 75.0583 79.6475C75.1182 79.7046 75.1977 79.7364 75.2804 79.7364C75.3632 79.7364 75.4427 79.7046 75.5026 79.6475C75.5625 79.5905 75.5982 79.5126 75.6022 79.43C75.66 75.5095 76.6641 71.661 78.529 68.212C78.5582 68.1575 78.8358 67.6636 78.9125 67.5401C80.1259 67.8064 81.3953 67.5936 82.4555 66.9462C83.5157 66.2987 84.2848 65.2667 84.6021 64.0656C87.8932 64.6217 91.7619 65.0796 95.0147 64.433C96.2381 64.1891 97.8388 63.9483 98.4808 62.7188C98.6477 62.3977 98.7457 62.0454 98.7687 61.6844C98.7917 61.3233 98.7391 60.9614 98.6142 60.6218C98.3328 59.9705 97.9705 59.3572 97.5359 58.7964C96.3593 57.0729 96.7021 56.1288 96.8057 53.9168C96.8992 51.9372 97.2053 50.6118 96.8824 48.241C96.4949 44.8609 94.9165 41.7291 92.43 39.4068C89.8216 37.2197 86.6103 35.8765 83.2215 35.555C80.7276 35.2086 78.1866 35.5755 75.8926 36.6134C73.5987 37.6512 71.6455 39.3175 70.2593 41.4194C69.4324 42.7767 68.7487 44.2161 68.2191 45.7146C67.5288 47.797 68.042 50.4193 67.512 52.4288C66.9881 54.4176 64.8206 55.5443 65.1665 57.3076C65.3605 57.9928 65.8019 58.5815 66.4052 58.9597C67.1204 59.4202 67.9051 59.7626 68.7292 59.9737C69.6711 60.2644 73.9447 61.5414 75.1412 61.8774C75.1184 62.4864 75.1497 63.0963 75.2348 63.6998C73.8988 64.3955 72.6434 65.2361 71.4911 66.2063C66.4775 70.2193 63.1294 75.9484 62.0939 82.2863C62.0303 82.6866 62.6492 82.86 62.7175 82.4565ZM84.0199 63.7849C83.7579 64.8685 83.0775 65.8044 82.1275 66.3879C81.1775 66.9714 80.0352 67.1551 78.9501 66.8989C78.2578 66.7266 77.6215 66.3791 77.1022 65.89C76.5829 65.4008 76.1982 64.7863 75.9849 64.1055C75.8466 63.6323 75.7792 63.1412 75.7847 62.6482V60.3871C77.0834 61.011 78.5028 61.3434 79.9435 61.3612C81.3842 61.3789 82.8113 61.0816 84.125 60.4899C84.1933 61.5891 84.1581 62.6923 84.0199 63.7849ZM75.1412 59.2903C69.9318 55.9854 69.2438 48.3392 73.2238 43.3944C74.3612 41.9188 75.8787 40.7804 77.6137 40.1015C79.3487 39.4225 81.2358 39.2285 83.0727 39.5403C87.4445 40.4308 90.5792 44.3332 90.6498 49.268C90.6504 49.3175 90.6622 49.3661 90.6844 49.4103C90.7067 49.4545 90.7387 49.493 90.778 49.523C90.8173 49.5529 90.863 49.5735 90.9115 49.5831C90.96 49.5928 91.01 49.5913 91.0578 49.5787C91.7081 49.3015 92.4353 49.2626 93.1115 49.4687C93.7877 49.6748 94.3695 50.1127 94.7547 50.7054C95.057 51.2866 95.1579 51.9516 95.0417 52.5963C94.9255 53.241 94.5988 53.8289 94.1128 54.2681C93.5627 54.8128 92.8361 55.1431 92.0641 55.1994C91.292 55.2556 90.5252 55.0341 89.902 54.5749C89.8667 54.5409 89.8243 54.5154 89.7779 54.5C89.7314 54.4847 89.6821 54.48 89.6336 54.4862C89.5851 54.4925 89.5386 54.5096 89.4976 54.5362C89.4566 54.5628 89.422 54.5983 89.3965 54.6401C86.6776 59.9891 80.2425 62.527 75.1412 59.2903Z" fill="black"/>
<path d="M101.953 101.084C100.041 101.941 92.0064 105.437 89.868 105.404C89.7951 105.404 89.4369 105.333 89.3395 105.31C88.7868 105.213 88.2627 104.993 87.8055 104.668C87.7483 104.616 87.6937 104.562 87.6422 104.505C86.8913 101.959 85.0904 98.9911 82.6307 97.7893C87.4228 94.8287 94.8481 91.335 100.605 90.7253C101.012 90.6823 101.018 90.035 100.605 90.0818C99.7665 90.1725 98.933 90.3053 98.1078 90.4798C95.2362 87.5814 93.2566 83.8369 91.6282 80.1362C89.9975 76.3752 88.6704 72.4898 87.6598 68.517C87.5624 68.1136 86.9419 68.2869 87.0386 68.6873C87.4949 70.5971 88.0855 72.4816 88.7121 74.34C90.5529 79.7857 93.4107 86.4815 97.373 90.6486C92.2671 91.8581 85.8842 94.956 81.8951 97.4901C78.449 96.345 74.9354 98.646 74.025 102.535L73.538 102.501V85.0357C73.536 84.9509 73.5015 84.8701 73.4415 84.8101C73.3815 84.7501 73.3007 84.7155 73.2158 84.7136L36.7953 81.3173C36.5652 81.2959 36.4562 81.539 36.4885 81.7246C40.1815 105.461 39.9744 104.113 39.9813 104.165C39.9842 104.199 39.9938 104.232 40.0097 104.262C40.0256 104.292 40.0475 104.319 40.0739 104.341C40.1003 104.362 40.1308 104.378 40.1635 104.387C40.1963 104.397 40.2306 104.399 40.2644 104.395C40.2743 104.395 40.282 104.402 40.292 104.404C75.1394 108.015 73.2465 107.88 73.4053 107.773C74.9577 107.256 79.0588 105.892 80.6089 105.369C80.5751 105.464 80.5322 105.557 80.5061 105.652C80.3698 106.016 80.3263 106.409 80.3795 106.794C80.5767 107.614 81.53 107.397 82.3216 107.16C84.0189 106.578 85.6711 105.873 87.2648 105.049C88.0393 105.675 88.9984 106.027 89.9938 106.053C92.2671 106.033 100.204 102.574 102.279 101.643C102.655 101.472 102.325 100.917 101.953 101.084ZM72.8845 107.137C71.9035 107.035 40.9201 103.812 40.565 103.783C40.4607 103.111 37.2094 82.1541 37.1903 82.0007C37.1903 82.0007 72.5018 85.3218 72.886 85.344L72.8845 107.137ZM76.5277 106.05L73.5364 107.047V103.144L73.9199 103.17C73.8264 104.123 74.0473 104.781 74.917 104.435C75.5477 104.158 76.138 103.797 76.6719 103.361L76.9848 103.384C76.5438 104.16 76.0376 105.307 76.5308 106.05H76.5277ZM80.9993 106.291C81.3433 105.133 81.84 104.027 82.4765 103.001C82.5133 102.933 82.5249 102.855 82.509 102.779C82.4931 102.704 82.4509 102.637 82.3899 102.59C82.329 102.543 82.2532 102.519 82.1763 102.523C82.0994 102.527 82.0263 102.558 81.9703 102.611C80.8014 103.762 79.481 104.749 78.0456 105.544C77.4941 105.807 77.0025 105.969 76.9718 105.36C76.902 104.082 78.9445 101.689 79.7989 100.82C80.0927 100.521 79.6532 100.094 79.3433 100.365C78.4912 101.109 75.7768 103.447 74.5788 103.876C74.5314 103.61 74.5327 103.337 74.5826 103.071C74.9884 100.653 76.7302 98.3622 79.2467 97.9212C83.0732 97.2524 85.694 100.812 86.9534 104.485C85.2421 105.369 83.4595 106.108 81.6244 106.694C81.0161 106.824 80.9256 106.747 81.0023 106.291H80.9993Z" fill="black"/>
<path d="M52.3977 91.9935C52.3666 92.0519 52.354 92.1184 52.3615 92.1842C52.369 92.2499 52.3963 92.3118 52.4398 92.3617C52.4833 92.4116 52.5409 92.4471 52.605 92.4635C52.6691 92.48 52.7367 92.4765 52.7988 92.4537C52.9238 92.4039 52.9231 92.3532 53.0642 92.1553C53.229 91.9502 53.4237 91.7711 53.6417 91.6238C53.9548 91.4101 54.3169 91.279 54.6942 91.2427C55.0715 91.2064 55.4519 91.266 55.8001 91.416C56.133 91.6119 56.406 91.8951 56.5896 92.2349C56.7731 92.5748 56.8603 92.9584 56.8416 93.3442C56.7412 94.7869 54.4954 95.2341 53.7737 93.9539C53.729 93.8837 53.6588 93.8335 53.5778 93.8138C53.4969 93.7942 53.4115 93.8067 53.3395 93.8486C53.2676 93.8906 53.2147 93.9588 53.192 94.0389C53.1692 94.1191 53.1784 94.2049 53.2176 94.2784C53.4553 94.6384 53.7867 94.9267 54.1763 95.1121C54.5658 95.2975 54.9985 95.373 55.4278 95.3304C55.8571 95.2879 56.2666 95.1289 56.6121 94.8706C56.9577 94.6124 57.2261 94.2646 57.3885 93.865C57.5124 93.3882 57.5027 92.8866 57.3605 92.415C57.2183 91.9434 56.9491 91.5201 56.5824 91.1912C56.2621 90.9487 55.8945 90.7761 55.5033 90.6847C55.1121 90.5934 54.706 90.5853 54.3115 90.6609C53.9169 90.7365 53.5426 90.8943 53.213 91.1238C52.8833 91.3534 52.6055 91.6497 52.3977 91.9935ZM79.7747 116.049C79.1036 116.146 78.8282 115.825 78.4601 115.828C78.0919 115.83 77.8679 116.267 77.3817 115.966C77.0288 115.747 76.7052 116.305 77.0572 116.522C77.2753 116.659 77.5306 116.723 77.7874 116.708C78.0288 116.688 78.2612 116.608 78.4624 116.473C78.9295 116.673 79.4425 116.741 79.9457 116.67C80.0278 116.647 80.0974 116.592 80.1396 116.518C80.1818 116.444 80.1931 116.357 80.1712 116.274C80.1466 116.193 80.0917 116.124 80.0179 116.083C79.9441 116.041 79.857 116.029 79.7747 116.049ZM81.1744 112.592C77.0365 112.296 77.4008 112.346 77.3625 112.257C77.319 112.183 77.2484 112.13 77.1661 112.109C77.0837 112.087 76.9961 112.099 76.9222 112.141C76.85 112.185 76.7977 112.256 76.7761 112.338C76.7546 112.42 76.7654 112.508 76.8064 112.582C76.8838 112.71 76.9946 112.814 77.1269 112.884C77.2593 112.953 77.4081 112.985 77.5573 112.976C77.634 112.983 81.4114 113.252 81.1744 113.235C81.5878 113.265 81.5863 112.619 81.1744 112.592Z" fill="black"/>
</svg>
