<svg width="49" height="49" viewBox="0 0 49 49" fill="none" xmlns="http://www.w3.org/2000/svg">
<path d="M1 44.0895H44.0136C44.0136 42.0154 43.1896 40.0262 41.723 38.5595C40.2563 37.0928 38.2671 36.2689 36.1929 36.2689H26.4171C26.4171 34.1947 25.5932 32.2055 24.1265 30.7389C22.6598 29.2722 20.6706 28.4482 18.5965 28.4482H1" fill="#020D1C" fill-opacity="0.1"/>
<path d="M1 44.0895H44.0136C44.0136 42.0154 43.1896 40.0262 41.723 38.5595C40.2563 37.0929 38.2671 36.2689 36.1929 36.2689H26.4171C26.4171 34.1947 25.5932 32.2055 24.1265 30.7389C22.6598 29.2722 20.6706 28.4482 18.5965 28.4482H1" stroke="white" stroke-width="2" stroke-linecap="round" stroke-linejoin="round"/>
<path d="M1 24.5381V48V24.5381Z" fill="#020D1C" fill-opacity="0.1"/>
<path d="M1 24.5381V48" stroke="white" stroke-width="2" stroke-linecap="round" stroke-linejoin="round"/>
<path d="M16.6372 36.2695H26.413H16.6372Z" fill="#020D1C" fill-opacity="0.1"/>
<path d="M16.6372 36.2695H26.413" stroke="white" stroke-width="2" stroke-linecap="round" stroke-linejoin="round"/>
<circle cx="36.2837" cy="12" r="11" fill="#020D1C" fill-opacity="0.1" stroke="white" stroke-width="2"/>
<path d="M40 14.7244C40 15.5719 39.7007 16.2604 39.1022 16.79C38.5037 17.31 37.7234 17.623 36.7615 17.7289V19H35.6874V17.7433C34.7896 17.6856 34.02 17.4593 33.3788 17.0644C32.7375 16.6696 32.2779 16.1352 32 15.4611L33.9078 14.4644C34.2498 15.2348 34.843 15.673 35.6874 15.7789V13.28C35.6767 13.28 35.6713 13.28 35.6713 13.28L35.6393 13.2656C35.2652 13.1404 34.9606 13.0296 34.7255 12.9333C34.4903 12.837 34.2124 12.6974 33.8918 12.5144C33.5818 12.3315 33.336 12.1437 33.1543 11.9511C32.9833 11.7489 32.8283 11.4937 32.6894 11.1856C32.5611 10.8774 32.497 10.5404 32.497 10.1744C32.497 9.32704 32.8016 8.64815 33.4108 8.13778C34.0307 7.62741 34.7896 7.3337 35.6874 7.25667V6H36.7615V7.28556C38.2151 7.43963 39.2411 8.11852 39.8397 9.32222L37.98 10.3044C37.7234 9.72667 37.3173 9.37518 36.7615 9.25V11.6622C37.7555 12.0185 38.4235 12.3026 38.7655 12.5144C39.5885 13.0441 40 13.7807 40 14.7244ZM34.6934 10.1889C34.6934 10.4007 34.7682 10.5885 34.9178 10.7522C35.0675 10.9063 35.324 11.0652 35.6874 11.2289V9.20667C35.3667 9.26444 35.1209 9.38 34.9499 9.55333C34.7789 9.72667 34.6934 9.93852 34.6934 10.1889ZM36.7615 15.75C37.4456 15.6152 37.7876 15.2781 37.7876 14.7389C37.7876 14.4981 37.7021 14.2959 37.5311 14.1322C37.3707 13.9685 37.1142 13.8144 36.7615 13.67V15.75Z" fill="white"/>
</svg>
