<svg width="48" height="48" viewBox="0 0 48 48" fill="none" xmlns="http://www.w3.org/2000/svg">
<path fill-rule="evenodd" clip-rule="evenodd" d="M16.3476 14.3883C29.7762 0.959718 47.0012 1 47.0012 1C47.0012 1 47.0414 18.225 33.6129 31.6536C32.9918 32.2746 32.3254 32.8286 31.6257 33.318C31.8124 35.6997 31.7366 39.3369 29.8794 41.1928C25.5247 45.5475 18.2656 46.9997 18.2656 46.9997L19.6358 37.4084H16.3469L10.5918 31.6534V28.3644L1 29.7347C1 29.7347 2.4522 22.4756 6.80689 18.1209C8.66333 16.2633 12.302 16.1878 14.6836 16.3748C15.1729 15.6754 15.7268 15.0091 16.3476 14.3883ZM31.6945 12.4699C29.5747 12.4699 27.8578 14.1868 27.8578 16.3066C27.8578 18.4264 29.5747 20.1434 31.6945 20.1434C33.8143 20.1434 35.5312 18.4264 35.5312 16.3066C35.5312 14.1868 33.8143 12.4699 31.6945 12.4699Z" fill="#020D1C" fill-opacity="0.1"/>
<path d="M47.0012 1L48.0012 0.997663C47.9999 0.447205 47.554 0.00129151 47.0035 4.17233e-06L47.0012 1ZM16.3476 14.3883L17.0547 15.0954L16.3476 14.3883ZM33.6129 31.6536L34.32 32.3607L33.6129 31.6536ZM31.6257 33.318L31.0526 32.4986C30.7623 32.7016 30.6011 33.043 30.6288 33.3962L31.6257 33.318ZM29.8794 41.1928L29.1725 40.4855L29.1723 40.4857L29.8794 41.1928ZM18.2656 46.9997L17.2757 46.8583C17.2298 47.1796 17.3427 47.5032 17.5784 47.7262C17.8142 47.9492 18.1435 48.044 18.4618 47.9803L18.2656 46.9997ZM19.6358 37.4084L20.6258 37.5499C20.6668 37.2629 20.5812 36.9722 20.3913 36.7532C20.2013 36.5342 19.9257 36.4084 19.6358 36.4084V37.4084ZM16.3469 37.4084L15.6398 38.1156C15.8273 38.3031 16.0817 38.4084 16.3469 38.4084V37.4084ZM10.5918 31.6534H9.5918C9.5918 31.9186 9.69715 32.1729 9.88469 32.3605L10.5918 31.6534ZM10.5918 28.3644H11.5918C11.5918 28.0746 11.466 27.7989 11.247 27.609C11.028 27.4191 10.7374 27.3335 10.4504 27.3745L10.5918 28.3644ZM1 29.7347L0.0194293 29.5385C-0.0442359 29.8568 0.0505006 30.1861 0.273529 30.4219C0.496557 30.6577 0.820136 30.7705 1.14142 30.7247L1 29.7347ZM6.80689 18.1209L7.514 18.828L7.51423 18.8278L6.80689 18.1209ZM14.6836 16.3748L14.6054 17.3717C14.9585 17.3994 15.3 17.2382 15.503 16.948L14.6836 16.3748ZM47.0012 1C47.0035 4.17233e-06 47.003 3.21865e-06 47.0025 2.32458e-06C47.0023 1.90735e-06 47.0017 1.19209e-06 47.0012 7.15256e-07C47.0001 -1.19209e-07 46.9988 -3.57628e-07 46.9973 7.7486e-07C46.9942 3.03984e-06 46.99 1.0848e-05 46.9848 3.0756e-05C46.9744 7.05719e-05 46.9598 0.000158608 46.9412 0.00034678C46.904 0.000723064 46.8505 0.00150001 46.7814 0.003093C46.6432 0.00627881 46.4424 0.0127297 46.1843 0.0257725C45.6682 0.0518547 44.9222 0.10432 43.9877 0.209844C42.1194 0.420812 39.4934 0.844338 36.4415 1.69516C30.3406 3.39603 22.5084 6.81328 15.6405 13.6812L17.0547 15.0954C23.6154 8.53472 31.1099 5.25783 36.9786 3.6217C39.9116 2.80402 42.4311 2.39833 44.2121 2.19721C45.1023 2.09669 45.807 2.04739 46.2853 2.02322C46.5244 2.01114 46.7068 2.00534 46.8275 2.00256C46.8878 2.00117 46.9327 2.00054 46.9614 2.00024C46.9758 2.0001 46.9862 2.00004 46.9924 2.00002C46.9956 2 46.9977 2 46.9987 2C46.9993 2 46.9995 2 46.9996 2C46.9996 2 46.9994 2 46.9994 2C46.9991 2 46.9988 2 47.0012 1ZM34.32 32.3607C41.1879 25.4928 44.6051 17.6605 46.306 11.5596C47.1568 8.50775 47.5803 5.88171 47.7913 4.01344C47.8968 3.07895 47.9493 2.33298 47.9754 1.81683C47.9884 1.55873 47.9949 1.35799 47.9981 1.21977C47.9997 1.15065 48.0004 1.09716 48.0008 1.05993C48.001 1.04132 48.0011 1.02677 48.0011 1.01636C48.0011 1.01116 48.0012 1.00699 48.0012 1.00387C48.0012 1.00231 48.0012 1.00102 48.0012 0.99998C48.0012 0.999462 48.0012 0.998882 48.0012 0.998624C48.0012 0.99811 48.0012 0.997663 47.0012 1C46.0012 1.00234 46.0012 1.00202 46.0012 1.00177C46.0012 1.00178 46.0012 1.00159 46.0012 1.0016C46.0012 1.00161 46.0012 1.00188 46.0012 1.00242C46.0012 1.00348 46.0012 1.00558 46.0011 1.00871C46.0011 1.01497 46.0011 1.02533 46.0009 1.03972C46.0006 1.06849 46 1.11336 45.9986 1.17368C45.9958 1.29434 45.99 1.47678 45.9779 1.7159C45.9538 2.1942 45.9045 2.89884 45.8039 3.78902C45.6028 5.57008 45.1971 8.08957 44.3795 11.0225C42.7433 16.8912 39.4664 24.3858 32.9058 30.9465L34.32 32.3607ZM32.1989 34.1375C32.9446 33.6158 33.6562 33.0245 34.32 32.3607L32.9058 30.9465C32.3275 31.5248 31.7061 32.0415 31.0526 32.4986L32.1989 34.1375ZM30.5863 41.9002C31.7322 40.755 32.265 39.136 32.5067 37.6089C32.7515 36.0623 32.7192 34.4713 32.6227 33.2398L30.6288 33.3962C30.7189 34.5463 30.7421 35.9648 30.5313 37.2962C30.3175 38.6471 29.8837 39.7748 29.1725 40.4855L30.5863 41.9002ZM18.2656 46.9997C18.4618 47.9803 18.462 47.9802 18.4623 47.9802C18.4624 47.9802 18.4628 47.9801 18.463 47.98C18.4635 47.9799 18.4642 47.9798 18.4649 47.9797C18.4664 47.9794 18.4683 47.979 18.4706 47.9785C18.4753 47.9775 18.4818 47.9762 18.49 47.9745C18.5063 47.9711 18.5294 47.9663 18.5591 47.9599C18.6184 47.9471 18.7039 47.9281 18.8129 47.9027C19.0309 47.852 19.3436 47.7752 19.7311 47.6695C20.5051 47.4584 21.5814 47.1307 22.7985 46.6626C25.2148 45.7333 28.2666 44.2198 30.5865 41.8999L29.1723 40.4857C27.1375 42.5205 24.3825 43.9105 22.0805 44.7959C20.9385 45.2352 19.9279 45.5428 19.2048 45.74C18.8436 45.8385 18.5552 45.9092 18.3592 45.9549C18.2612 45.9777 18.1865 45.9942 18.1373 46.0048C18.1128 46.0101 18.0946 46.014 18.0832 46.0163C18.0775 46.0175 18.0735 46.0183 18.0712 46.0188C18.07 46.019 18.0693 46.0192 18.069 46.0192C18.0689 46.0193 18.0688 46.0193 18.0689 46.0193C18.0689 46.0193 18.0691 46.0192 18.0691 46.0192C18.0693 46.0192 18.0695 46.0191 18.2656 46.9997ZM18.6459 37.267L17.2757 46.8583L19.2556 47.1411L20.6258 37.5499L18.6459 37.267ZM16.3469 38.4084H19.6358V36.4084H16.3469V38.4084ZM9.88469 32.3605L15.6398 38.1156L17.054 36.7013L11.2989 30.9462L9.88469 32.3605ZM9.5918 28.3644V31.6534H11.5918V28.3644H9.5918ZM1.14142 30.7247L10.7332 29.3544L10.4504 27.3745L0.858579 28.7448L1.14142 30.7247ZM6.09978 17.4138C3.77991 19.7337 2.26646 22.7856 1.3371 25.2018C0.868977 26.4189 0.541325 27.4952 0.330194 28.2693C0.224523 28.6567 0.147756 28.9694 0.0969747 29.1874C0.0715777 29.2965 0.0526603 29.3819 0.0398609 29.4412C0.0334606 29.4709 0.0285881 29.494 0.0251983 29.5104C0.0235034 29.5185 0.0221789 29.525 0.0212194 29.5297C0.0207396 29.532 0.020351 29.534 0.0200529 29.5354C0.0199038 29.5362 0.0197774 29.5368 0.0196735 29.5373C0.0196216 29.5376 0.0195605 29.5379 0.0195345 29.538C0.0194791 29.5383 0.0194293 29.5385 1 29.7347C1.98057 29.9309 1.98053 29.9311 1.9805 29.9312C1.9805 29.9312 1.98047 29.9314 1.98046 29.9314C1.98044 29.9315 1.98045 29.9315 1.98048 29.9313C1.98054 29.931 1.98068 29.9303 1.98092 29.9292C1.98139 29.9269 1.98221 29.9228 1.9834 29.9171C1.98577 29.9057 1.98958 29.8876 1.99488 29.863C2.00548 29.8139 2.02202 29.7391 2.04483 29.6411C2.09048 29.4452 2.16119 29.1568 2.2597 28.7956C2.45694 28.0725 2.76451 27.0619 3.20378 25.9198C4.08918 23.6178 5.47918 20.8628 7.514 18.828L6.09978 17.4138ZM14.7619 15.3778C13.5304 15.2812 11.9391 15.2487 10.3921 15.4934C8.86456 15.735 7.24505 16.2678 6.09955 17.414L7.51423 18.8278C8.22517 18.1164 9.35322 17.6826 10.7046 17.4688C12.0364 17.2582 13.4552 17.2814 14.6054 17.3717L14.7619 15.3778ZM15.6405 13.6812C14.9769 14.3447 14.3857 15.0561 13.8642 15.8016L15.503 16.948C15.9601 16.2947 16.4766 15.6735 17.0547 15.0954L15.6405 13.6812ZM28.8578 16.3066C28.8578 14.7391 30.127 13.4699 31.6945 13.4699V11.4699C29.0224 11.4699 26.8578 13.6346 26.8578 16.3066H28.8578ZM31.6945 19.1434C30.127 19.1434 28.8578 17.8742 28.8578 16.3066H26.8578C26.8578 18.9787 29.0224 21.1434 31.6945 21.1434V19.1434ZM34.5312 16.3066C34.5312 17.8742 33.262 19.1434 31.6945 19.1434V21.1434C34.3666 21.1434 36.5312 18.9787 36.5312 16.3066H34.5312ZM31.6945 13.4699C33.262 13.4699 34.5312 14.7391 34.5312 16.3066H36.5312C36.5312 13.6346 34.3666 11.4699 31.6945 11.4699V13.4699Z" fill="white"/>
<path d="M11.1514 40.4645C11.0651 40.5872 11.0133 40.7292 10.9021 40.8385C9.03165 42.7089 6.22508 41.7747 6.22508 41.7747C6.22508 41.7747 5.28892 38.9681 7.16124 37.0977C7.27251 36.9865 7.41255 36.9366 7.53532 36.8483L6.65863 35.9697C5.92965 36.1616 5.23712 36.5261 4.66737 37.0958C2.04688 39.7163 2.46317 45.5366 2.46317 45.5366C2.46317 45.5366 8.24896 45.9874 10.904 43.3324C11.4737 42.7627 11.8382 42.0701 12.0301 41.3411L11.1514 40.4645Z" fill="white"/>
</svg>
