<svg width="48" height="48" viewBox="0 0 48 48" fill="none" xmlns="http://www.w3.org/2000/svg">
<path d="M21 40.5H4.5C3.70435 40.5 2.94129 40.1839 2.37868 39.6213C1.81607 39.0587 1.5 38.2957 1.5 37.5V4.5C1.5 3.70435 1.81607 2.94129 2.37868 2.37868C2.94129 1.81607 3.70435 1.5 4.5 1.5H25.758C26.5531 1.50017 27.3156 1.81596 27.878 2.378L33.622 8.122C34.184 8.6844 34.4998 9.44691 34.5 10.242V40.5" fill="#020D1C" fill-opacity="0.1"/>
<path d="M28.5 31.5H46.5V46.5H28.5V31.5Z" fill="#020D1C" fill-opacity="0.1" stroke="white" stroke-width="2" stroke-linecap="round" stroke-linejoin="round"/>
<path d="M37.5 22.5C35.9087 22.5 34.3826 23.1321 33.2574 24.2574C32.1321 25.3826 31.5 26.9087 31.5 28.5V31.5H43.5V28.5C43.5 26.9087 42.8679 25.3826 41.7426 24.2574C40.6174 23.1321 39.0913 22.5 37.5 22.5Z" stroke="white" stroke-width="2" stroke-linecap="round" stroke-linejoin="round"/>
<path d="M37.5 38.3076C37.6483 38.3076 37.7933 38.3516 37.9167 38.434C38.04 38.5164 38.1361 38.6335 38.1929 38.7706C38.2497 38.9076 38.2645 39.0584 38.2356 39.2039C38.2066 39.3494 38.1352 39.483 38.0303 39.5879C37.9254 39.6928 37.7918 39.7642 37.6463 39.7932C37.5008 39.8221 37.35 39.8073 37.213 39.7505C37.0759 39.6937 36.9588 39.5976 36.8764 39.4743C36.794 39.3509 36.75 39.2059 36.75 39.0576C36.75 38.8587 36.829 38.6679 36.9697 38.5273C37.1103 38.3866 37.3011 38.3076 37.5 38.3076Z" stroke="white" stroke-width="2" stroke-linecap="round" stroke-linejoin="round"/>
<path d="M7.5 13.5V31.5H21" stroke="white" stroke-width="2" stroke-linecap="round" stroke-linejoin="round"/>
<path d="M7.5 25.5005L12.878 20.1225C13.1566 19.8438 13.4874 19.6226 13.8515 19.4717C14.2156 19.3208 14.6059 19.2432 15 19.2432C15.3941 19.2432 15.7844 19.3208 16.1485 19.4717C16.5126 19.6226 16.8434 19.8438 17.122 20.1225L18.284 21.2845C18.6064 21.6066 18.9979 21.8509 19.4288 21.9991C19.8597 22.1472 20.3187 22.1952 20.7709 22.1395C21.2232 22.0838 21.6568 21.9258 22.0388 21.6775C22.4209 21.4292 22.7414 21.0972 22.976 20.7065L23.692 19.5065" stroke="white" stroke-width="2" stroke-linecap="round" stroke-linejoin="round"/>
<path d="M21 40.5H4.5C3.70435 40.5 2.94129 40.1839 2.37868 39.6213C1.81607 39.0587 1.5 38.2956 1.5 37.5V4.5C1.5 3.70435 1.81607 2.94129 2.37868 2.37868C2.94129 1.81607 3.70435 1.5 4.5 1.5H25.758C26.5531 1.50017 27.3156 1.81596 27.878 2.378L33.622 8.122C34.184 8.6844 34.4998 9.44691 34.5 10.242V15" stroke="white" stroke-width="2" stroke-linecap="round" stroke-linejoin="round"/>
</svg>
